<svg width="37" height="36" viewBox="0 0 37 36" fill="none" xmlns="http://www.w3.org/2000/svg">
<g clip-path="url(#clip0_1214_701)">
<path d="M18.9395 7.93934C19.5252 7.35355 20.4748 7.35355 21.0605 7.93934L30.0605 16.9393C30.6463 17.5251 30.6463 18.4746 30.0605 19.0604L21.0605 28.0604C20.4748 28.6462 19.5252 28.6462 18.9395 28.0604C18.3537 27.4746 18.3537 26.5251 18.9395 25.9393L25.3789 19.4999H8C7.17157 19.4999 6.5 18.8283 6.5 17.9999C6.5 17.1715 7.17157 16.4999 8 16.4999H25.3789L18.9395 10.0604L18.8369 9.94618C18.3564 9.35702 18.3903 8.48851 18.9395 7.93934Z" fill="#727967"/>
</g>
<defs>
<clipPath id="clip0_1214_701">
<rect width="36" height="36" fill="white" transform="translate(0.5)"/>
</clipPath>
</defs>
</svg>
