<svg width="19" height="20" viewBox="0 0 19 20" fill="none" xmlns="http://www.w3.org/2000/svg">
<path d="M0.5 16.8828V14.8828C0.5 14.3305 0.947715 13.8828 1.5 13.8828C2.05228 13.8828 2.5 14.3305 2.5 14.8828V16.8828L2.50488 16.9814C2.52757 17.2104 2.62883 17.4257 2.79297 17.5898C2.98051 17.7774 3.23478 17.8828 3.5 17.8828H15.5C15.7652 17.8828 16.0195 17.7774 16.207 17.5898C16.3946 17.4023 16.5 17.148 16.5 16.8828V14.8828C16.5 14.3305 16.9477 13.8828 17.5 13.8828C18.0523 13.8828 18.5 14.3305 18.5 14.8828V16.8828C18.5 17.6785 18.1837 18.4413 17.6211 19.0039C17.0585 19.5665 16.2957 19.8828 15.5 19.8828H3.5C2.70435 19.8828 1.94151 19.5665 1.37891 19.0039C0.816297 18.4413 0.5 17.6785 0.5 16.8828ZM8.5 1.88281C8.5 1.33053 8.94771 0.882812 9.5 0.882812C10.0523 0.882812 10.5 1.33053 10.5 1.88281V11.4688L13.793 8.17578C14.1835 7.78526 14.8165 7.78526 15.207 8.17578C15.5976 8.56631 15.5976 9.19932 15.207 9.58984L10.207 14.5898C9.81651 14.9804 9.18349 14.9804 8.79297 14.5898L3.79297 9.58984C3.40244 9.19932 3.40244 8.56631 3.79297 8.17578C4.18349 7.78526 4.81651 7.78526 5.20703 8.17578L8.5 11.4688V1.88281Z" fill="#727967"/>
</svg>
