<svg width="101px" height="101px" viewBox="0 0 101 101" fill="none" xmlns="http://www.w3.org/2000/svg">
<path fill-rule="evenodd" clip-rule="evenodd" d="M81.98 17.5H19.52C15.81 17.5 12.84 19.93 12.75 23.08V68.82C12.75 71.95 15.75 74.5 19.52 74.5H48.75V85.5H31.25C30.8522 85.5 30.4706 85.658 30.1893 85.9393C29.908 86.2206 29.75 86.6022 29.75 87C29.75 87.3978 29.908 87.7794 30.1893 88.0607C30.4706 88.342 30.8522 88.5 31.25 88.5H70.25C70.6478 88.5 71.0294 88.342 71.3107 88.0607C71.592 87.7794 71.75 87.3978 71.75 87C71.75 86.6022 71.592 86.2206 71.3107 85.9393C71.0294 85.658 70.6478 85.5 70.25 85.5H51.75V74.5H81.98C85.75 74.5 88.75 71.95 88.75 68.82V23.18C88.75 20.05 85.75 17.5 81.98 17.5ZM85.75 68.82C85.75 70.27 84.02 71.5 81.98 71.5H19.52C17.52 71.5 15.75 70.27 15.75 68.82V23.12C15.75 21.68 17.48 20.5 19.52 20.5H81.98C83.98 20.5 85.75 21.73 85.75 23.18V68.82Z" fill="black"/>
<path fill-rule="evenodd" clip-rule="evenodd" d="M56.02 37.1293C55.6679 36.9538 55.2611 36.9235 54.887 37.0451C54.5129 37.1667 54.2015 37.4304 54.02 37.7793L45.9399 53.4993C45.85 53.6746 45.7955 53.8659 45.7794 54.0623C45.7634 54.2587 45.7862 54.4564 45.8466 54.6439C45.907 54.8315 46.0037 55.0054 46.1312 55.1555C46.2588 55.3057 46.4146 55.4293 46.59 55.5193C46.7653 55.6093 46.9566 55.6638 47.153 55.6798C47.3494 55.6958 47.547 55.673 47.7346 55.6127C47.9221 55.5523 48.096 55.4556 48.2462 55.328C48.3964 55.2005 48.52 55.0446 48.61 54.8693L56.6699 39.1193C56.8424 38.7683 56.8709 38.3639 56.7495 37.9922C56.6281 37.6204 56.3663 37.3108 56.02 37.1293ZM65.61 36.5793C65.3256 36.3143 64.9495 36.1701 64.5609 36.177C64.1723 36.1838 63.8015 36.3412 63.5267 36.6161C63.2519 36.8909 63.0945 37.2617 63.0876 37.6503C63.0807 38.0389 63.225 38.415 63.49 38.6993L70.97 46.1693L63.49 53.6393C63.3426 53.7766 63.2244 53.9422 63.1424 54.1262C63.0604 54.3102 63.0163 54.5089 63.0128 54.7103C63.0092 54.9117 63.0463 55.1117 63.1217 55.2985C63.1971 55.4853 63.3094 55.6549 63.4519 55.7974C63.5943 55.9398 63.764 56.0521 63.9508 56.1276C64.1375 56.203 64.3376 56.24 64.539 56.2365C64.7404 56.2329 64.939 56.1889 65.123 56.1069C65.307 56.0249 65.4726 55.9067 65.61 55.7593L74.15 47.2293C74.4309 46.9481 74.5886 46.5668 74.5886 46.1693C74.5886 45.7718 74.4309 45.3906 74.15 45.1093L65.61 36.5793ZM39.15 36.5793C38.8687 36.2984 38.4875 36.1406 38.09 36.1406C37.6924 36.1406 37.3112 36.2984 37.0299 36.5793L28.49 45.1193C28.209 45.4006 28.0513 45.7818 28.0513 46.1793C28.0513 46.5768 28.209 46.9581 28.49 47.2393L37.0299 55.7793C37.3143 56.0443 37.6904 56.1885 38.079 56.1817C38.4676 56.1748 38.8384 56.0174 39.1132 55.7425C39.388 55.4677 39.5454 55.097 39.5523 54.7084C39.5592 54.3197 39.4149 53.9437 39.15 53.6593L31.67 46.1893L39.15 38.6993C39.4309 38.4181 39.5886 38.0368 39.5886 37.6393C39.5886 37.2418 39.4309 36.8606 39.15 36.5793Z" fill="black"/>
</svg>
