<svg width="351" height="462" viewBox="0 0 351 462" fill="none" xmlns="http://www.w3.org/2000/svg">
<path d="M213.643 461.879C89.1914 451.106 -3.47081 348.344 0.0997765 225.047C4.41166 76.065 144.276 -29.3105 289.095 7.30964C381.812 30.7532 451.019 111.289 461.069 207.441C474.079 331.899 386.05 443.365 261.209 460.514L252.252 461.75L234.337 461.935C224.484 462.04 215.175 462.015 213.643 461.879ZM244.851 459.149C321.514 454.164 389.621 412.182 428.551 345.903C458.469 294.97 467.148 231.688 452.112 174.083C415.405 33.4095 258.726 -37.9404 129.129 26.9973C7.16063 88.1172 -34.4879 241.263 39.7407 355.701C84.2432 424.308 163.772 464.418 244.851 459.149ZM214.261 449.531C213.075 449.395 209.319 448.987 205.921 448.622C108.342 438.152 28.7077 360.834 14.4686 262.73C-1.61756 151.937 68.9478 46.271 177.196 19.0345C196.642 14.1419 208.163 12.8447 231.866 12.8755L251.017 12.9064L258.738 13.9875C369.803 29.5424 449.82 120.537 449.771 231.225C449.721 341.888 369.581 433.148 259.047 448.406C252.017 449.376 219.944 450.185 214.261 449.531ZM256.267 434.173C393.092 415.641 473.387 273.849 418.025 148.521C388.991 82.7861 329.026 38.2773 255.959 28.2204L247.928 27.1146L231.249 27.1208C175.454 27.1393 126.757 47.1667 87.2208 86.3505C7.01238 165.842 6.36375 294.76 85.7691 374.573C122.259 411.249 163.957 430.498 217.349 435.322C223.372 435.866 249.46 435.094 256.267 434.173ZM219.82 396.373C140.088 388.738 80.7097 333.406 68.0212 254.928L66.9339 248.213V230.916L66.9277 213.619L68.0459 206.515C78.9923 136.919 131.402 81.495 198.817 68.2319C211.802 65.6745 215.508 65.3594 232.484 65.3656L249.163 65.3718L256.576 66.5208C329.835 77.8688 385.235 133.373 396.614 206.824L397.954 215.472V230.916V246.36L396.614 255.008C383.808 337.619 313.675 397.59 230.94 396.682C226.016 396.627 221.013 396.491 219.82 396.373ZM252.11 381.059C355.132 366.592 413.694 257.325 368.358 164.168C354.397 135.48 329.434 110.121 301.054 95.7958C208.299 48.9829 98.575 105.816 82.2788 209.109L81.1792 216.09L81.1606 230.607L81.1483 245.124L82.2973 252.537C91.3473 310.717 131.532 357.826 187.129 375.432C197.822 378.817 209.411 380.973 223.527 382.202C228.599 382.647 245.692 381.961 252.11 381.059ZM223.724 355.145C217.813 353.236 212.735 348.387 210.505 342.512L209.183 339.022L209.498 331.881C209.912 322.336 208.621 320.384 204.648 324.56C201.807 327.55 199.706 328.384 195.784 328.081L192.331 327.816L187.889 325.129C185.449 323.652 181.069 320.298 178.159 317.672C171.865 311.989 167.052 309.753 159.979 309.215L155.432 308.869L155.896 310.358C156.155 311.174 156.878 312.502 157.514 313.311C158.997 315.22 158.972 317.339 157.434 319.433C156.761 320.353 155.933 322.565 155.599 324.35C154.469 330.355 152.406 332.758 145.684 335.884C137.715 339.596 130.408 335.982 122.988 324.665L121.988 323.133L122.71 318.167C123.106 315.436 123.575 313.058 123.748 312.885C124.465 312.168 126.596 315.016 127.776 318.259C131.563 328.668 134.608 331.355 138.364 327.606C140.557 325.413 140.588 323.98 138.593 316.777C134.849 303.242 138.506 299.696 152.801 302.982L158.595 304.31L160.943 303.421C164.13 302.204 164.118 301.389 160.844 294.742C158.799 290.584 157.619 287.063 156.588 282.053L155.161 275.128L150.423 270.168L145.691 265.213V263.391C145.691 261.26 147.587 259.641 150.077 259.641C152.307 259.641 153.023 260.704 153.814 265.158C154.704 270.242 155.704 269.686 156.581 263.607C156.971 260.914 158.151 254.545 159.195 249.448C160.245 244.352 161.443 236.358 161.857 231.682L162.617 223.182L161.913 219.055C158.2 197.397 130.42 185.394 117.064 199.682L114.334 202.598L113.642 205.811C112.814 209.665 113.413 212.884 116.07 218.938C118.114 223.602 118.343 225.98 116.928 228C115.347 230.261 114.352 229.606 112.054 224.763C110.85 222.224 109.318 219.858 108.644 219.5L107.421 218.845L107.007 220.482C106.729 221.588 107.057 223.157 108.008 225.282C108.786 227.024 109.453 229.279 109.491 230.298L109.552 232.151L107.063 232.337L104.573 232.516L103.085 230.934L101.596 229.353L101.046 220.772L100.496 212.198L102.152 209.696C103.122 208.226 103.801 206.354 103.795 205.156C103.776 203.259 100.138 192.115 98.7294 189.675C97.6483 187.791 99.1309 184.264 100.249 186.067C100.441 186.376 101.639 186.487 102.924 186.314C106.105 185.888 107.73 187.383 108.762 191.689L109.577 195.086L111.066 194.92C111.894 194.827 114.395 193.499 116.632 191.973C122.414 188.019 127.918 186.277 137.11 185.487C161.826 183.362 178.067 174.633 182.243 161.234L183.441 157.404L182.743 154.624C181.872 151.158 179.704 148.249 177.22 147.223L175.318 146.433L172.532 147.501C167.843 149.293 166.317 147.18 169.628 143.48C175.102 137.376 185.894 141.651 189.563 151.375L190.91 154.933L190.632 159.257L190.36 163.581L188.445 167.356C184.467 175.207 177.301 181.187 167.621 184.745C160.795 187.253 156.192 189.298 156.192 189.823C156.192 190.046 157.051 191.04 158.101 192.035C165.57 199.139 174.391 217.307 175.973 228.822L176.664 233.893L175.923 249.393C174.651 275.795 175.905 286.451 181.532 297.274C186.085 306.028 195.024 314.207 201.819 315.838L204.889 316.573L209.733 315.652C218.517 313.978 227.851 310 227.851 307.924C227.851 306.479 224.812 306.195 217.658 306.985C213.581 307.43 207.465 307.974 204.068 308.19L197.89 308.579L195.741 307.103C189.687 302.958 189.229 293.79 194.845 289.367C197.279 287.452 199.811 287.224 209.8 288.014C230.785 289.67 233.627 291.01 239.452 302.006L242.368 307.517H247.131H251.894L255.304 310.877C257.176 312.73 259.758 316.202 261.043 318.599L263.372 322.96V330.077V337.193L261.395 341.215C258.862 346.361 254.006 351.204 248.854 353.724L244.839 355.689L235.573 355.837C229.124 355.936 225.522 355.726 223.724 355.145ZM245.457 347.343C252.431 343.97 256.515 337.718 256.552 330.373L256.57 326.049L255.125 323.133C249.102 311.001 240.484 309.512 234.968 319.649L233.188 322.911L232.917 327.686C232.564 333.715 231.879 334.036 227.944 330.04C223.335 325.357 220.586 326.037 219.203 332.214C217.683 339.016 220.735 345.619 226.622 348.263L228.778 349.233L235.573 349.035L242.368 348.838L245.457 347.343ZM308.609 326.772C301.789 324.653 298.478 318.438 296.489 304.07C295.352 295.804 296.872 293.364 303.778 292.388C308.436 291.733 311.247 289.886 311.247 287.495C311.247 284.005 308.263 282.8 297.965 282.139L291.788 281.75L288.242 283.091C286.296 283.832 283.93 284.339 282.991 284.227L281.286 284.017L283.374 282.695C284.517 281.967 288.131 280.453 291.405 279.341L297.348 277.315L305.378 277.284L313.409 277.247L316.974 278.995C324.794 282.838 324.047 289.41 314.268 302.748L310.524 307.856L307.485 309.395C305.817 310.241 304.421 311.279 304.378 311.699C304.186 313.768 304.656 315.053 306.064 316.319L307.608 317.709H316.801C321.854 317.709 326.777 317.413 327.728 317.055C331.373 315.683 335.802 310.173 334.684 308.406C333.745 306.924 334.023 304.242 335.685 298.8C337.439 293.061 338.428 292.184 338.428 296.366C338.428 301.234 340.09 303.495 341.751 300.876L342.635 299.486L342.097 295.73C340.479 284.376 336.445 277.525 329.915 275.06L326.382 273.732L314.268 273.225L302.148 272.713L297.83 271.212C283.294 266.158 275.665 254.81 268.869 228.136C266.948 220.606 265.256 215.546 263.285 211.457L260.456 205.588L254.173 199.411L247.885 193.233L242.967 190.651C227.635 182.602 212.395 182.942 197.6 191.67C194.678 193.394 192.133 194.518 191.836 194.222C190.774 193.159 194.443 187.525 198.872 183.423C214.959 168.529 239.934 168.338 258.269 182.966C270.198 192.486 274.287 199.571 283.139 226.066C285.691 233.708 288.477 241.43 289.329 243.234C292.511 249.967 299.924 254.854 310.049 256.904L315.231 257.955L322.657 257.609C326.919 257.405 333.381 256.571 337.81 255.644C351.814 252.722 358.369 252.914 365.893 256.466C369.674 258.245 373.022 261.043 373.022 262.415V263.162L368.543 262.359C358.776 260.611 350.004 261.711 342.134 265.658C336.42 268.524 336.148 269.426 339.583 273.979C342.437 277.76 344.439 282.127 345.001 285.797C345.223 287.211 345.915 289.695 346.545 291.325C348.775 297.064 347.682 301.395 341.548 311.1C334.653 322.015 318.314 329.793 308.609 326.772ZM146.926 296.206L143.535 294.544L142.571 291.894L141.607 289.244L140.464 290.504C138.877 292.258 138.129 292.104 134.991 289.386C133.478 288.082 131.266 286.408 130.074 285.673C128.882 284.932 127.436 283.616 126.868 282.745C125.638 280.867 121.963 279.18 120.116 279.65C117.707 280.249 115.687 277.475 116.348 274.467C116.866 272.113 115.897 270.396 112.233 267.141C107.149 262.625 104.579 254.088 107.31 250.783C110.51 246.915 124.73 251.975 131.019 259.215C132.761 261.223 135.442 263.465 137.098 264.299C140.773 266.165 142.942 268.957 144.888 274.319C145.74 276.685 147.494 279.798 148.946 281.522C151.639 284.722 154.957 292.796 154.957 296.131V297.941L152.64 297.904C151.368 297.886 148.798 297.12 146.926 296.206ZM249.849 288.786C249.651 288.459 250.454 287.452 251.641 286.55C254.217 284.586 255.471 282.343 256.027 278.699C256.502 275.61 257.589 273.207 259.072 271.978L260.104 271.119L261.735 273.108C263.699 275.492 264.44 275.579 265.521 273.559C266.602 271.545 265.738 268.493 263.637 266.931L262.056 265.751L258.559 267.06C256.626 267.783 254.476 269.111 253.753 270.025L252.45 271.687L252.87 275.598C253.599 282.405 251.134 285.123 242.399 287.149C237.581 288.261 235.61 288.008 234.609 286.13C232.966 283.066 236.345 277.556 239.866 277.556H241.287L241.664 279.428L242.035 281.306L243.863 280.36C246.396 279.051 247.619 277.08 247.619 274.313V271.959L246.371 271.496C245.685 271.242 242.177 271.335 238.569 271.712L232.015 272.385L231.168 273.547C230.662 274.238 230.322 276.283 230.322 278.643C230.322 280.805 230.032 283.116 229.68 283.777L229.043 284.969H224.701C218.56 284.969 216.021 283.208 217.3 279.841L217.868 278.346L220.765 278.019C222.353 277.84 224.089 277.253 224.626 276.722L225.596 275.746L224.886 274.183L224.169 272.614H220.179H216.182L215.224 273.985C214.687 274.751 214.261 276.635 214.261 278.241C214.261 280.169 213.865 281.608 213.075 282.584L211.888 284.042L209.973 282.22L208.058 280.391L208.194 278.464C208.503 273.8 206.712 272.07 201.288 271.817L198.508 271.687V273.151V274.615L200.67 275.313C203.061 276.086 204.994 279.088 204.994 282.034V283.733L203.604 283.715C202.838 283.702 201.677 283.289 201.016 282.788C199.484 281.627 196.846 281.645 192.948 282.844C189.106 284.024 186.277 283.554 184.633 281.466L183.373 279.86V276.289V272.713L186.845 268.648C190.675 264.163 191.546 263.867 195.456 265.757C196.797 266.399 201.492 267.53 205.89 268.265C230.439 272.348 243.622 270.705 263.248 261.118L268.684 258.461L270.185 259.03L271.686 259.604L271.211 260.889C270.945 261.599 270.049 262.52 269.215 262.934C268.381 263.348 267.622 264.237 267.529 264.91C267.325 266.356 272.261 275.196 273.49 275.585L274.343 275.857L273.991 274.084C273.799 273.102 273.453 271.557 273.231 270.643L272.817 268.981L274.398 267.4C276.573 265.226 277.574 265.417 278.241 268.135L278.815 270.452L283.139 270.458L287.464 270.464L289.626 271.724L291.788 272.984L291.979 274.974L292.177 276.963L289.508 278.174C285.944 279.792 284.103 279.712 281.57 277.846L279.445 276.277L278.667 277.346C278.241 277.933 277.889 279.045 277.889 279.823C277.889 282.757 273.163 284.394 270.723 282.294L268.999 280.811L267.016 282.912L265.033 285.018L262.871 284.87C261.679 284.79 260.332 285.018 259.875 285.383C259.418 285.741 257.521 286.612 255.65 287.304C253.784 288.002 251.795 288.749 251.233 288.972C250.671 289.194 250.053 289.114 249.849 288.786ZM191.293 277.092C192.856 275.758 194.085 271.588 193.041 271.193C191.002 270.415 188.216 273.009 187.364 276.475L186.944 278.174H188.488C189.334 278.174 190.601 277.686 191.293 277.092ZM204.043 264.589C202.332 264.336 199.972 263.613 198.792 262.971L196.655 261.816L191.126 261.809L185.597 261.803L183.614 258.406C182.527 256.54 181.446 254.112 181.223 253.019L180.81 251.03L182.335 249.621C183.169 248.849 184.43 247.799 185.134 247.286L186.419 246.36L185.535 243.061L184.652 239.768L185.609 237.192C186.135 235.778 186.709 233.93 186.882 233.078C187.061 232.232 187.883 230.959 188.711 230.255L190.212 228.982L189.267 227.166C188.056 224.85 188.068 224.677 189.551 223.194C191.194 221.551 194.116 221.606 195.703 223.311C197.365 225.097 197.291 226.178 195.37 228.185L193.776 229.847L195.061 232.368C197.872 237.872 200.67 238.922 200.676 234.468C200.695 222.595 205.767 213.273 214.829 208.442C220.086 205.644 220.03 205.205 213.933 201.27L208.701 197.891V195.717V193.542L209.782 193.567C210.375 193.579 211.814 194.401 212.969 195.395C215.255 197.347 217.028 197.267 214.928 195.309C211.876 192.467 214.341 190.422 217.664 193.042L219.382 194.395L218.943 192.035L218.498 189.681L223.329 190.132C229.093 190.67 229.785 190.991 231.496 193.888L232.812 196.118L235.122 195.754C239.329 195.08 241.936 197.724 240.225 200.924C239.31 202.629 237.142 202.536 233.411 200.646C231.168 199.51 229.383 199.102 226.659 199.102H222.952L222.316 200.294C220.42 203.84 222.217 205.014 230.254 205.489L235.431 205.792L239.829 207.967C247.971 211.994 253.185 219.111 254.575 228.105L255.267 232.559L254.519 236.927C253.018 245.661 247.712 252.623 239.594 256.503L234.955 258.714H227.851H220.747L216.62 256.762C211.505 254.335 207.7 250.888 204.074 245.371C202.035 242.276 200.818 241.035 199.583 240.775C198.65 240.584 196.71 239.886 195.265 239.231C193.819 238.57 192.639 238.137 192.639 238.261C192.639 239.756 195.228 243.851 197.563 246.051L200.51 248.831L201.226 253.748C202.029 259.307 203.462 261.494 206.304 261.494C207.373 261.494 208.373 262.013 208.973 262.866C210.733 265.374 210.332 265.516 204.043 264.589ZM316.498 253.507C312.859 252.63 309.394 250.258 309.394 248.645C309.394 247.57 316.745 236.253 318.252 235.005C318.969 234.418 320.068 234.283 321.841 234.567L324.399 234.974L326.357 232.843C329.594 229.304 334.993 228.951 334.61 232.3L334.413 234.005L336.575 234.641L338.737 235.271L338.928 237.581L339.12 239.886L341.56 241.133L344 242.375L343.092 244.142C341.912 246.415 338.539 249.251 337.291 249.01C336.76 248.911 335.111 247.231 333.628 245.278C329.223 239.484 326.907 241.084 329.835 247.892C331.577 251.95 331.274 253.031 328.229 253.575C325.109 254.125 318.919 254.094 316.498 253.507ZM367.443 253.044C366.603 252.469 364.213 250.43 362.131 248.503C358.202 244.865 355.156 243.58 350.48 243.58C347.286 243.58 345.093 242.227 342.363 238.57C336.241 230.366 336.321 230.588 338.867 228.921L340.534 227.827L345.507 227.858L350.474 227.883L353.081 229.248C357.522 231.577 359.808 234.091 362.594 239.731C364.064 242.696 366.313 246.928 367.598 249.127C370.662 254.384 370.625 255.206 367.443 253.044ZM301.388 248.404C299.473 246.347 299.726 243.11 302.024 240.324C305.224 236.445 302.895 233.239 298.558 235.561C296.483 236.673 294.815 235.475 294.345 232.547C294.111 231.083 292.888 228.692 291.251 226.505C287.97 222.113 284.993 216.399 285.993 216.399C286.389 216.399 289.045 218.771 291.899 221.668C301.202 231.126 298.843 225.813 289.002 215.163C286.963 212.958 284.566 209.684 283.677 207.899L282.065 204.655L281.743 197.86C281.41 190.812 280.959 189.7 279.797 193.042C279.414 194.123 278.648 195.513 278.092 196.13L277.073 197.261L275.937 196.229C275.313 195.667 274.8 194.636 274.8 193.931C274.8 193.116 272.045 190.015 267.066 185.227C261.673 180.044 259.282 177.32 259.189 176.245L259.047 174.701L260.901 174.818C261.92 174.886 263.52 174.997 264.453 175.065C265.392 175.139 266.664 174.738 267.282 174.176C269.154 172.483 270.593 172.977 275.819 177.11C279.452 179.983 281.379 182.046 282.874 184.677C284.004 186.667 285.691 189.496 286.617 190.972L288.304 193.647L289.286 191.751C290.59 189.224 293.19 187.982 297.162 187.982C301.48 187.989 302.413 188.625 312.946 198.768L321.749 207.244V209.004C321.749 209.974 321.471 210.938 321.131 211.148C319.97 211.864 320.507 213.174 322.132 213.582C324.01 214.051 325.579 212.902 326.678 210.258C327.939 207.207 332.701 206.107 335.352 208.257L336.741 209.381L337.124 213.347L337.501 217.313L338.527 217.511C341.473 218.073 352.735 210.505 353.507 207.454C355.051 201.282 347.503 195.08 323.911 183.145C309.999 176.103 307.392 174.021 299.584 163.649C296.155 159.096 291.887 153.839 290.102 151.955L286.846 148.539L284.468 148.107C276.437 146.636 271.711 153.073 275.751 159.974L277.32 162.655H275.492C271.161 162.655 268.005 157.175 268.005 149.657V145.525L269.345 143.82C272.008 140.44 277.524 139.551 284.987 141.305C289.478 142.362 289.453 142.38 288.081 138.785C285.283 131.465 275.554 121.642 268.202 118.727L264.607 117.3L258.738 117.275L252.87 117.25L249.312 118.998C243.406 121.896 240.533 127.165 242.411 131.662C244.172 135.875 247.465 136.678 250.399 133.621C252.703 131.217 253.864 131.285 256.206 133.948C261.858 140.391 252.03 146.606 241.744 143.097C235.276 140.891 231.181 134.158 231.669 126.523L231.916 122.631L233.757 119.653C236.24 115.644 240.021 112.895 245.247 111.307L249.59 109.992L255.866 110.319C263.446 110.727 268.474 111.975 275.362 115.162C287.624 120.846 293.444 128.679 302.216 151.313C307.182 164.131 310.265 167.294 324.22 173.916C328.47 175.936 336.124 179.624 341.232 182.126L350.53 186.667L353.68 190.002C358.746 195.358 362.051 203.037 362.069 209.492L362.081 212.773L360.265 215.349C353.186 225.424 336.383 228.717 331.596 220.97C329.545 217.653 328.674 218.227 328.766 222.817L328.853 226.771L327.698 228.049C327.061 228.748 325.535 229.649 324.3 230.051C319.599 231.571 316.121 233.825 311.976 238.032L307.689 242.394L306.348 246.075L305.002 249.757H303.828C303.179 249.757 302.08 249.152 301.388 248.404ZM311.865 231.923C311.865 231.503 310.586 230.02 305.551 224.596C301.968 220.735 300.813 221.582 303.778 225.894C306.867 230.378 309.74 233.146 310.864 232.713C311.414 232.503 311.865 232.145 311.865 231.923ZM310.012 219.809C310.012 218.969 306.348 213.495 303.797 210.53C302.043 208.492 299.992 205.514 299.232 203.914C297.743 200.782 296.545 199.102 295.803 199.102C294.945 199.102 294.568 202.895 295.291 204.248C298.2 209.702 310.012 222.187 310.012 219.809ZM300.128 218.919C300.128 218.647 298.287 216.232 296.038 213.551C291.547 208.201 289.02 203.537 289.014 200.584C289.008 199.534 288.514 198.225 287.908 197.681L286.803 196.68L286.006 197.953C284.054 201.079 286.191 205.378 294.234 214.515C298.534 219.401 300.128 220.593 300.128 218.919ZM314.953 216.115C314.953 215.256 305.656 201.69 304.853 201.387C303.229 200.764 303.049 203.148 304.507 206.002C306.707 210.32 314.953 218.301 314.953 216.115ZM189.223 218.87C184.331 216.448 182.805 210.203 185.955 205.489C188.927 201.042 190.539 199.72 192.992 199.72H195.253L197.235 201.888C199.54 204.402 200.052 204.18 200.052 200.659C200.052 199.256 200.435 197.582 200.899 196.946L201.745 195.791L202.443 197.094C203.462 198.997 203.308 207.744 202.202 210.876C199.583 218.301 194.456 221.464 189.223 218.87Z" fill="#CECBC9"/>
</svg>
