<svg width="91" height="78" viewBox="0 0 91 78" fill="none" xmlns="http://www.w3.org/2000/svg">
<path d="M65.3799 20.8146C65.3859 22.2615 63.7347 25.6187 63.2723 26.5095C62.8917 27.242 63.1766 28.1448 63.9101 28.5244C64.1303 28.639 64.3654 28.6928 64.5976 28.6928C65.1377 28.6928 65.6579 28.3999 65.9249 27.8867C66.5328 26.7168 68.5158 22.7508 68.5009 20.8236C68.4799 18.9741 66.5139 15.2184 65.9249 14.1352C65.4626 13.2454 63.6619 9.85733 63.6988 8.29584C63.7307 6.89977 65.4556 4.00498 65.912 3.16595C66.3066 2.44051 66.0385 1.53271 65.3131 1.1391C64.5887 0.744494 63.6799 1.01255 63.2863 1.73799C62.6844 2.84508 60.7163 6.60182 60.6954 8.45527C60.6795 10.3775 62.6645 14.3455 63.2863 15.5403C63.7417 16.3793 65.3739 19.4415 65.3799 20.8146Z" fill="black"/>
<path d="M89.0879 64.2736H23.3589L64.1559 35.1803C64.8276 34.701 64.984 33.7683 64.5057 33.0957C64.0254 32.423 63.0927 32.2676 62.42 32.7469L18.2091 64.2736H2.06211C1.23602 64.2736 0.567383 64.9432 0.567383 65.7683V75.7172C0.567383 76.5423 1.23602 77.2119 2.06211 77.2119H89.0879C89.913 77.2119 90.5826 76.5423 90.5826 75.7172V65.7683C90.5826 64.9422 89.913 64.2736 89.0879 64.2736ZM87.5932 74.2225H3.55683V67.263H87.5932V74.2225Z" fill="black"/>
</svg>
