<svg xmlns="http://www.w3.org/2000/svg" xmlns:xlink="http://www.w3.org/1999/xlink" xmlns:inkscape="http://www.inkscape.org/namespaces/inkscape" version="1.1" width="113.386" height="113.386" viewBox="0 0 113.386 113.386">
<defs>
<clipPath id="clip_0">
<path transform="matrix(1,0,0,-1,0,113.386)" d="M0 0H113.386V113.386H0Z"/>
</clipPath>
</defs>
<path transform="matrix(1,0,0,-1,0,113.386)" stroke-width="3" stroke-linecap="round" stroke-miterlimit="4" stroke-linejoin="miter" fill="none" stroke="#231f20" d="M76.116 44.426H76.542V44.851999H76.116Z"/>
<path transform="matrix(1,0,0,-1,0,113.386)" stroke-width="3" stroke-linecap="round" stroke-miterlimit="4" stroke-linejoin="miter" fill="none" stroke="#231f20" d="M75.833 44.852H76.543V45.561H75.833Z"/>
<path transform="matrix(1,0,0,-1,0,113.386)" stroke-width="3" stroke-linecap="round" stroke-miterlimit="4" stroke-linejoin="miter" fill="none" stroke="#231f20" d="M74.697 44.426H75.833V45.560998H74.697Z"/>
<path transform="matrix(1,0,0,-1,0,113.386)" stroke-width="3" stroke-linecap="round" stroke-miterlimit="4" stroke-linejoin="miter" fill="none" stroke="#231f20" d="M74.697 42.581H76.542V44.426004H74.697Z"/>
<path transform="matrix(1,0,0,-1,0,113.386)" stroke-width="3" stroke-linecap="round" stroke-miterlimit="4" stroke-linejoin="miter" fill="none" stroke="#231f20" d="M76.542 42.581H79.523V45.562H76.542Z"/>
<path transform="matrix(1,0,0,-1,0,113.386)" stroke-width="3" stroke-linecap="round" stroke-miterlimit="4" stroke-linejoin="miter" fill="none" stroke="#231f20" d="M74.697 45.562H79.522998V50.388H74.697Z"/>
<path transform="matrix(1,0,0,-1,0,113.386)" stroke-width="3" stroke-linecap="round" stroke-miterlimit="4" stroke-linejoin="miter" fill="none" stroke="#231f20" d="M66.89 42.581H74.697V50.388H66.89Z"/>
<path transform="matrix(1,0,0,-1,0,113.386)" stroke-width="3" stroke-linecap="round" stroke-miterlimit="4" stroke-linejoin="miter" fill="none" stroke="#231f20" d="M66.89 29.971H79.5V42.581H66.89Z"/>
<path transform="matrix(1,0,0,-1,0,113.386)" stroke-width="3" stroke-linecap="round" stroke-miterlimit="4" stroke-linejoin="miter" fill="none" stroke="#231f20" d="M79.523 29.971H99.917V50.364999H79.523Z"/>
<path transform="matrix(1,0,0,-1,0,113.386)" stroke-width="3" stroke-linecap="round" stroke-miterlimit="4" stroke-linejoin="miter" fill="none" stroke="#231f20" d="M66.89 50.388H99.917V83.415H66.89Z"/>
<path transform="matrix(1,0,0,-1,0,113.386)" stroke-width="3" stroke-linecap="round" stroke-miterlimit="4" stroke-linejoin="miter" fill="none" stroke="#231f20" d="M13.445 29.971H66.889V83.415H13.445Z"/>
<path transform="matrix(1,0,0,-1,0,113.386)" stroke-width="3" stroke-linecap="round" stroke-miterlimit="4" stroke-linejoin="miter" fill="none" stroke="#231f20" d="M75.833 44.426H76.117V44.851999H75.833Z"/>
<path transform="matrix(1,0,0,-1,13.4454,29.970505)" stroke-width="3" stroke-linecap="round" stroke-miterlimit="4" stroke-linejoin="miter" fill="none" stroke="#231f20" d="M0 0 86.471-53.444"/>
<path transform="matrix(1,0,0,-1,66.8897,83.4148)" stroke-width="3" stroke-linecap="round" stroke-miterlimit="4" stroke-linejoin="miter" fill="none" stroke="#231f20" d="M0 0 33.027 53.444"/>
<g clip-path="url(#clip_0)">
<path transform="matrix(1,0,0,-1,66.8897,29.970505)" stroke-width="3" stroke-linecap="round" stroke-miterlimit="4" stroke-linejoin="miter" fill="none" stroke="#231f20" d="M0 0C-29.516 0-53.444-23.928-53.444-53.444"/>
<path transform="matrix(1,0,0,-1,99.9404,63.0213)" stroke-width="3" stroke-linecap="round" stroke-miterlimit="4" stroke-linejoin="miter" fill="none" stroke="#231f20" d="M0 0C0 18.253-14.797 33.051-33.051 33.051"/>
<path transform="matrix(1,0,0,-1,79.5233,83.3914)" stroke-width="3" stroke-linecap="round" stroke-miterlimit="4" stroke-linejoin="miter" fill="none" stroke="#231f20" d="M0 0C11.263 0 20.394 9.131 20.394 20.394"/>
<path transform="matrix(1,0,0,-1,66.9133,70.8049)" stroke-width="3" stroke-linecap="round" stroke-miterlimit="4" stroke-linejoin="miter" fill="none" stroke="#231f20" d="M0 0C0-6.951 5.635-12.586 12.586-12.586"/>
<path transform="matrix(1,0,0,-1,74.6969,63.0213)" stroke-width="3" stroke-linecap="round" stroke-miterlimit="4" stroke-linejoin="miter" fill="none" stroke="#231f20" d="M0 0C-4.299 0-7.784-3.485-7.784-7.784"/>
<path transform="matrix(1,0,0,-1,79.4996,67.824008)" stroke-width="3" stroke-linecap="round" stroke-miterlimit="4" stroke-linejoin="miter" fill="none" stroke="#231f20" d="M0 0C0 2.652-2.15 4.803-4.803 4.803"/>
<path transform="matrix(1,0,0,-1,76.5423,70.8049)" stroke-width="3" stroke-linecap="round" stroke-miterlimit="4" stroke-linejoin="miter" fill="none" stroke="#231f20" d="M0 0C1.646 0 2.981 1.334 2.981 2.981"/>
<path transform="matrix(1,0,0,-1,74.6969,68.9597)" stroke-width="3" stroke-linecap="round" stroke-miterlimit="4" stroke-linejoin="miter" fill="none" stroke="#231f20" d="M0 0C0-1.019 .826-1.845 1.845-1.845"/>
</g>
</svg>
