<svg width="101" height="101" viewBox="0 0 101 101" fill="none" xmlns="http://www.w3.org/2000/svg">
<path d="M88.5576 56.749H75.0594L83.8054 45.7866C83.8363 45.7467 83.8662 45.7059 83.8931 45.664C86.1202 42.2062 87.298 38.2611 87.298 34.2562C87.298 22.5354 77.7548 13 66.0234 13C57.0671 13 49.3853 18.5684 46.2603 26.4247C43.1344 18.5684 35.4506 13 26.4913 13C14.7648 13 5.22559 22.5354 5.22559 34.2562C5.22559 38.7713 6.68741 43.1319 9.4865 46.9116L45.0944 91.3811C45.3784 91.7349 45.8069 91.9411 46.2613 91.9411C46.7157 91.9411 47.1462 91.7339 47.4292 91.3791L72.6738 59.7375H88.5576C89.3827 59.7375 90.0523 59.0678 90.0523 58.2427C90.0523 57.4177 89.3827 56.749 88.5576 56.749ZM8.215 34.2562C8.215 24.1846 16.414 15.9895 26.4913 15.9895C36.5686 15.9895 44.7666 24.1836 44.7666 34.2562C44.7666 35.0823 45.4352 35.7509 46.2613 35.7509C47.0874 35.7509 47.756 35.0823 47.756 34.2562C47.756 24.1846 55.951 15.9895 66.0234 15.9895C76.1057 15.9895 84.3086 24.1836 84.3086 34.2562C84.3086 37.6612 83.3102 41.0234 81.4209 43.9819L71.2349 56.749H60.6225L55.6321 39.139C55.4448 38.4783 54.8679 38.0339 54.1424 38.0528C53.4558 38.0767 52.8729 38.566 52.7314 39.2386L46.3789 69.4772L40.3722 39.2546C40.2376 38.576 39.6547 38.0787 38.9632 38.0518C38.2606 38.0429 37.6528 38.4773 37.4665 39.144L33.1527 54.6026H19.8299C19.7173 54.6026 19.6097 54.6175 19.504 54.6404L11.8541 45.0871C9.47355 41.8714 8.215 38.1256 8.215 34.2562ZM46.2593 88.0538L21.8677 57.592H34.2877C34.9583 57.592 35.5472 57.1456 35.7276 56.4989L38.6612 45.9839L44.8712 77.2319C45.0098 77.9285 45.6186 78.4317 46.3291 78.4357C46.3321 78.4357 46.3341 78.4357 46.3371 78.4357C47.0435 78.4357 47.6544 77.9404 47.7999 77.2488L54.4095 45.7896L58.0536 58.6513C58.2369 59.295 58.8229 59.7385 59.4915 59.7385H68.8484L46.2593 88.0538Z" fill="black"/>
</svg>
