<svg width="228" height="62" viewBox="0 0 228 62" fill="none" xmlns="http://www.w3.org/2000/svg">
<path d="M0.405601 61.6607C0.593486 61.3687 1.47231 60.5168 2.35921 59.7664C3.24409 59.0159 4.15321 58.1418 4.37948 57.8233C4.60373 57.5049 6.03611 56.2616 7.56141 55.0569C9.08672 53.8541 10.4706 52.7102 10.6363 52.5175C10.804 52.3228 11.1676 52.0449 11.4444 51.8969C11.7232 51.7509 12.7232 51.1201 13.6667 50.4974C14.6122 49.8747 16.0082 49.029 16.7739 48.6193C17.5375 48.2075 18.2729 47.7613 18.4083 47.6295C19.0972 46.948 24.6307 44.6805 28.4147 43.5264C29.8046 43.1025 30.9865 42.6989 31.041 42.6279C31.2249 42.3967 35.7341 41.4292 39.0211 40.9181C50.6741 39.1049 62.5775 39.1536 83.6692 41.1027C93.8696 42.0458 98.2172 42.4981 98.3162 42.6279C98.3728 42.7009 99.7809 42.9058 101.448 43.0843C104.688 43.4311 103.5 43.4027 97.5344 42.991C95.5747 42.8551 93.9282 42.6847 93.8716 42.6097C93.019 41.4718 48.8296 41.4617 48.0114 42.6015C47.9568 42.6786 46.5467 42.9037 44.8799 43.1005C37.5423 43.9726 24.6327 46.8 23.9701 47.6822C23.9155 47.7553 23.162 48.0656 22.2973 48.3698C20.3518 49.0574 14.1334 52.0896 13.6243 52.6007C13.4202 52.8055 12.6586 53.2964 11.9333 53.6898C10.3595 54.5417 6.53916 56.9999 5.6866 57.7077C5.35325 57.9856 4.30877 58.803 3.36328 59.523C2.41981 60.245 1.29048 61.1415 0.854102 61.5147C0.136904 62.1272 0.0944782 62.1414 0.405601 61.6607ZM176.602 53.4627C176.269 53.4241 174.406 53.2862 172.46 53.1584C170.517 53.0286 168.88 52.8542 168.824 52.771C168.769 52.6859 167.995 52.554 167.107 52.4749C164.618 52.2579 157.29 51.2438 152.359 50.4345C148.247 49.7591 146.736 49.4914 140.035 48.2542C138.701 48.0088 137.566 47.7492 137.51 47.6782C137.455 47.6052 136.273 47.3354 134.883 47.0738C130.097 46.1793 125.693 45.2666 126.499 45.3396C126.943 45.3802 129.738 45.8264 132.709 46.3335C135.679 46.8405 138.635 47.3192 139.275 47.3983C139.916 47.4774 140.485 47.6112 140.54 47.6944C140.764 48.0311 155.842 49.9599 163.369 50.6151C178.634 51.9435 193.528 51.5703 201.968 49.6516C204.777 49.0128 208.706 47.8628 208.791 47.6538C208.829 47.5626 208.969 47.4875 209.104 47.4875C209.599 47.4875 215.078 45.4573 218.068 44.1653C218.985 43.7698 219.735 43.494 219.735 43.5507C219.735 43.6075 219.484 43.7637 219.179 43.8976C218.874 44.0335 217.67 44.6561 216.502 45.2849C215.337 45.9136 213.791 46.6844 213.068 47.0008C212.347 47.3151 211.71 47.6315 211.654 47.7045C210.957 48.6132 201.411 51.5115 196.603 52.2741C195.38 52.4668 194.336 52.6859 194.279 52.7609C193.954 53.1929 179.291 53.775 176.602 53.4627ZM160.137 47.1671C152.639 46.9095 145.716 46.585 141.045 46.2726L135.59 45.9096L141.146 46.0394C155.205 46.3679 168.444 46.1225 178.42 45.3478C186.744 44.7028 201.088 43.0092 201.35 42.6421C201.405 42.565 202.997 42.2486 204.886 41.9424C211.728 40.8309 225.521 37.9346 225.796 37.5533C225.915 37.389 227.668 36.9286 227.773 37.0341C227.814 37.0746 227.634 37.172 227.377 37.2531C227.119 37.3342 226.852 37.4864 226.783 37.5918C226.511 38.0178 217.747 40.8309 212.967 42.0255C211.967 42.277 211.104 42.5488 211.048 42.632C210.783 43.0295 199.548 45.0455 193.673 45.7514C184.843 46.8121 169.135 47.4754 160.137 47.1671ZM133.62 45.7189C133.982 45.6723 134.572 45.6723 134.934 45.7189C135.295 45.7635 135 45.8 134.277 45.8C133.556 45.8 133.259 45.7635 133.62 45.7189ZM105.135 43.4899C105.385 43.4433 105.793 43.4433 106.044 43.4899C106.294 43.5386 106.09 43.5791 105.589 43.5791C105.09 43.5791 104.884 43.5386 105.135 43.4899ZM101.549 40.764C99.7163 40.4374 96.4879 39.9101 94.3767 39.5896C92.2655 39.2712 90.7745 38.9994 91.0614 38.9893C91.4069 38.9751 91.6594 38.8027 91.8069 38.4802C91.9382 38.1902 92.2715 37.9387 92.6271 37.8596L93.2291 37.7277L93.3686 36.5169C93.4938 35.4257 93.1786 28.7914 92.9483 27.6637C92.6675 26.2946 81.0388 23.7573 75.0447 23.7573H74.477L74.4729 25.8362C74.4689 28.0105 74.2002 32.7444 73.9618 34.8558L73.8244 36.0869L74.4022 36.2106C74.7214 36.2796 75.6184 36.4175 76.3962 36.5169C79.7216 36.9387 82.8692 37.4417 82.9621 37.5655C83.0187 37.6385 84.4591 37.9123 86.1642 38.176C87.8694 38.4376 89.1684 38.683 89.0512 38.7236C88.9341 38.7621 87.4936 38.61 85.8491 38.3849C84.2066 38.1597 82.3156 37.9143 81.6489 37.8372C80.9822 37.7602 80.3923 37.6324 80.3358 37.5513C80.2267 37.3951 70.4708 36.3141 64.7796 35.8273C47.3527 34.3426 28.3238 34.0871 11.8686 35.1194C10.0484 35.233 8.52306 35.2939 8.48266 35.2513C8.38164 35.1499 15.6344 34.1702 18.4143 33.9106C22.2973 33.5476 26.556 33.3042 31.4855 33.1622L36.2715 33.0263L36.417 31.8905C36.4958 31.2658 36.4392 29.1118 36.2897 27.1039C36.1382 25.0959 35.9948 22.8466 35.9665 22.1043C35.9402 21.364 35.823 20.2444 35.7079 19.6177C35.3362 17.5936 35.9746 16.7072 37.9302 16.5368C39.1262 16.4334 39.2676 16.4659 39.8292 16.9689L40.4353 17.5145L42.0293 17.407C42.9061 17.3502 43.6779 17.2143 43.7466 17.1088C44.2597 16.3077 47.1871 15.6059 48.2639 16.0257C48.9306 16.2874 49.0094 17.263 48.5104 19.0924C48.1265 20.4959 47.7023 29.3288 47.9023 31.7363L48.0457 33.4685L49.0882 33.576C49.6639 33.6368 52.464 33.8741 55.3147 34.1053C58.1632 34.3365 60.8219 34.5779 61.224 34.6448L61.9513 34.7625V33.9248C61.9513 33.4644 62.03 33.0871 62.127 33.0871C62.224 33.0871 62.3513 32.6998 62.4119 32.2252C62.4725 31.7505 62.7109 30.4971 62.9412 29.4363C63.2665 27.9355 63.3594 26.7834 63.3614 24.2177L63.3654 20.9279L62.8765 20.6055C62.6058 20.429 61.7654 20.1978 61.0078 20.0923C58.8623 19.7942 58.3834 18.8936 59.533 17.3218C60.4057 16.1312 61.6543 15.5674 63.125 15.6992C63.919 15.7702 64.62 15.6891 65.3857 15.4416C73.7133 12.736 75.3073 12.9023 74.5861 16.4091C74.0547 18.991 74.079 19.0153 77.6306 19.6137C78.7296 19.7982 81.1297 20.3012 82.9621 20.7332C84.7965 21.1653 87.2512 21.6784 88.4169 21.8751C89.5846 22.0719 90.5685 22.3011 90.6048 22.3862C90.6432 22.4714 91.2978 22.5404 92.0614 22.5404H93.4494L93.5928 21.7798C93.7928 20.719 93.7989 18.4981 93.609 16.4131L93.4473 14.6486L94.3161 14.0969C95.2737 13.4884 96.5949 13.0301 98.9728 12.4784C99.8334 12.2776 100.539 12.0585 100.539 11.9916C100.539 11.7077 104.599 10.9187 105.569 11.014C106.591 11.1134 106.753 11.5393 106.304 12.9428C105.904 14.1882 105.632 17.987 105.603 22.6864L105.589 25.1669L106.205 25.4874C106.553 25.6679 107.589 25.8565 108.579 25.9194C112.345 26.1628 112.87 26.8078 110.84 28.696C109.151 30.2639 108.581 30.5397 107.003 30.5458L105.69 30.5519L105.561 33.3914C105.49 34.9531 105.339 36.9002 105.224 37.7196C105.11 38.539 105.066 39.7032 105.129 40.3056C105.191 40.91 105.161 41.3927 105.062 41.3785C104.963 41.3664 103.383 41.0885 101.549 40.764ZM182.865 40.0906C181.897 39.7255 181.226 39.7032 180.366 40.0034C179.84 40.188 179.632 40.1656 179.196 39.8797L178.665 39.5308L178.842 37.3728C179.222 32.7505 178.858 20.1187 178.339 19.9443C178.083 19.8591 178.03 17.8755 178.285 17.8755C178.378 17.8755 178.572 17.6524 178.717 17.3786C179.267 16.3503 181.374 16.119 182.299 16.9871L182.865 17.5165L184.459 17.409C185.335 17.3502 186.107 17.2143 186.176 17.1088C186.798 16.1373 190.423 15.543 191.17 16.2914C191.475 16.5957 191.483 16.762 191.259 17.8126C191.122 18.4596 190.934 19.3561 190.841 19.8023C190.368 22.1165 190.107 32.1095 190.457 34.6266C190.679 36.2349 190.396 37.531 189.758 37.8372C189.635 37.8961 189.077 38.2226 188.521 38.5613C185.643 40.3117 184.37 40.6565 182.865 40.0906ZM143.368 37.9021C142.425 37.7926 141.607 37.6466 141.55 37.5756C141.496 37.5046 140.223 37.2004 138.722 36.8982C135.695 36.2877 131.915 35.1864 129.685 34.2655C128.206 33.653 127.61 33.7179 127.61 34.4846C127.61 35.519 125.281 36.7785 122.642 37.172C121.818 37.2957 121.145 37.4762 121.145 37.5736C121.145 37.817 119.167 37.8007 118.864 37.5533C117.505 36.4499 117.307 36.1822 117.184 35.2817C117.048 34.2858 117.416 31.6471 117.717 31.4605C118.254 31.1279 118.569 27.5298 118.331 24.4591C117.965 19.7861 118.192 19.5528 123.937 18.6624C128.915 17.8917 130.176 18.701 129.041 21.938C128.826 22.5465 128.679 23.0718 128.711 23.1063C128.82 23.2158 131.75 22.4917 131.853 22.3295C132.378 21.51 140.336 20.3175 145.288 20.3154C151.009 20.3114 160.743 21.5891 160.743 22.3436C160.743 22.4228 161.539 22.7858 162.51 23.1529C172.274 26.8382 174.119 28.7386 171.101 32C169.852 33.3508 169.341 33.5942 165.591 34.6306C163.87 35.1073 161.551 35.809 160.44 36.1903C159.328 36.5716 157.829 37.0036 157.106 37.1497C156.385 37.2957 155.749 37.4803 155.692 37.5614C155.328 38.0928 147.005 38.324 143.368 37.9021ZM154.839 32.8681C155.918 32.7464 156.846 32.576 156.902 32.4868C156.959 32.3976 157.415 32.2617 157.914 32.1846C159.385 31.9554 161.955 31.1259 164.183 30.1624L166.26 29.2639L165.539 28.9617C165.141 28.7954 164.014 28.4141 163.032 28.1139C162.052 27.8138 161.201 27.4953 161.147 27.4061C160.767 26.7976 151.938 25.7044 147.308 25.6922C140.683 25.674 136.269 25.9519 134.241 26.5157C133.204 26.8017 132.069 27.0836 131.715 27.1424C128.006 27.7468 137.356 32.2394 142.393 32.2718C142.799 32.2738 143.162 32.359 143.201 32.4604C143.364 32.9107 151.815 33.2068 154.839 32.8681ZM132.62 19.1005C131.437 18.8835 131.321 18.8105 130.917 18.0276C130 16.2468 130.257 15.6302 132.317 14.6587C135.172 13.314 144.999 12.6122 151.053 13.3201C155.458 13.8353 155.985 14.2551 155.209 16.6322C154.443 18.9809 153.643 19.5102 151.938 18.7943C150.373 18.1371 148.312 17.8856 144.261 17.8572L140.237 17.8288L138.318 18.4718C136.245 19.1675 134.212 19.3906 132.62 19.1005ZM40.2333 15.1516C34.7685 14.2206 33.0512 12.9631 33.0048 9.86197C32.9684 7.38754 34.6452 5.18083 37.6271 3.77933C39.5343 2.88285 41.7909 2.05534 42.3344 2.05534C42.5485 2.05534 42.7546 1.98232 42.793 1.89511C42.9203 1.58682 47.0012 0.848546 47.5043 1.04123C48.4033 1.384 48.4053 2.62121 47.5043 3.03294C47.2315 3.15869 45.8012 3.40208 44.3264 3.57245C36.92 4.43444 33.825 7.36928 36.3564 11.1296C36.5988 11.4927 36.9019 11.7888 37.0291 11.7888C37.1564 11.7908 37.314 11.9328 37.3807 12.1052C37.5544 12.5595 39.8393 13.5756 41.4636 13.9204C45.9285 14.8696 49.0215 13.3343 49.0215 10.1662C49.0215 6.51134 42.7364 4.07139 40.5929 6.89265C38.7747 9.28595 39.5484 11.1823 42.3445 11.1823C44.4355 11.1823 45.4719 10.2412 44.6961 9.05068C44.3183 8.47264 44.1223 8.44424 43.0374 8.80729C41.9909 9.15817 41.3707 9.0304 41.0879 8.4057C40.8434 7.8662 41.4051 7.1259 42.0576 7.1259C42.2031 7.1259 42.3586 7.01231 42.4051 6.87439C42.5061 6.56813 44.1607 6.57422 44.3506 6.88251C44.4213 7.00015 45.0193 7.2983 45.6779 7.54574C48.2477 8.51117 48.4619 9.52123 46.5123 11.4785C44.6718 13.3262 42.9647 13.6547 40.6192 12.6143C38.3787 11.6204 36.72 9.56787 37.2776 8.48075C38.3342 6.41804 38.7161 6.01443 40.1 5.49521C43.1182 4.36143 48.5124 5.11796 50.4417 6.94538C50.7246 7.21311 51.3024 7.71814 51.7287 8.06902C52.7772 8.9371 53.0075 11.7908 52.0277 11.7908C51.9307 11.7908 51.8499 11.9186 51.8499 12.0748C51.8499 12.5129 50.4741 13.6223 49.2619 14.1598C46.9325 15.1942 43.0112 15.6241 40.2333 15.1516ZM183.16 15.2307C177.832 14.4904 175.517 12.8678 175.501 9.864C175.485 6.59856 178.376 3.90711 183.485 2.43665C184.366 2.18312 185.133 1.91336 185.188 1.83629C185.305 1.67403 188.901 0.986464 189.586 0.992549C190.245 1.00066 190.643 1.40834 190.643 2.07562C190.643 2.94776 189.962 3.27227 187.685 3.48726C182.849 3.94767 179.305 5.28833 178.699 6.88657C178.588 7.18066 178.388 7.48895 178.256 7.57008C177.911 7.78507 177.968 9.83763 178.329 10.2352C178.491 10.4116 178.941 10.9755 179.329 11.4886C181.453 14.2835 188.136 15.1232 190.461 12.886C193.263 10.1926 190.376 5.70614 185.843 5.70614C183.135 5.70614 180.998 9.002 182.675 10.586C183.412 11.2817 185.784 11.4014 186.754 10.7909C188.035 9.98366 187.325 8.20288 185.923 8.70994C184.849 9.10138 184.228 9.01417 183.838 8.41787L183.491 7.88445L183.986 7.50517C184.259 7.29627 184.604 7.02246 184.754 6.89468C185.109 6.59653 186.663 6.59653 186.762 6.89468C186.802 7.02043 187.332 7.26787 187.934 7.44433C190.317 8.14001 190.825 9.32449 189.507 11.1053C187.693 13.5594 184.16 13.8373 181.594 11.73C179.604 10.0952 179.285 9.39142 179.97 8.13595C180.228 7.66337 180.556 7.06505 180.697 6.80949C182.051 4.35129 190.099 4.37157 192.865 6.83789C193.033 6.98798 193.552 7.44027 194.023 7.84794C195.267 8.9229 195.453 9.97352 194.724 11.8091C193.823 14.0786 187.77 15.8696 183.16 15.2307ZM135.136 5.89476C136.73 5.05102 137.59 2.57254 136.815 1.06354C136.168 -0.187876 135.287 0.0798484 135.287 1.528C135.287 2.5056 135.742 3.27227 136.322 3.27227C136.544 3.27227 136.669 3.36354 136.6 3.47509C136.36 3.86451 135.174 3.69617 134.715 3.2094C133.121 1.50366 135.483 -0.851104 137.449 0.483466C139.283 1.72879 138.405 4.6393 135.817 5.89679C134.72 6.43022 134.13 6.42819 135.136 5.89476ZM155.086 5.83189C155.086 5.79132 155.496 4.87254 155.995 3.78947C157.203 1.17509 157.219 1.24405 155.411 1.24405H153.92L153.831 0.645724L153.744 0.0473994L155.827 0.0879632C156.973 0.110274 157.91 0.189372 157.912 0.266445C157.916 0.586904 155.415 5.90896 155.258 5.90896C155.163 5.90896 155.086 5.87448 155.086 5.83189ZM70.9799 5.56416C70.3556 5.46478 70.1657 5.16866 70.2728 4.4527L70.3435 3.98215L70.6445 4.59062C70.8869 5.08348 71.091 5.21125 71.7152 5.26196C73.3375 5.39785 73.6042 4.02677 72.0668 3.45684C69.4384 2.48735 69.7697 -0.0905216 72.5032 0.0676797L73.5678 0.128527L73.6264 0.838405L73.687 1.54828L73.2769 0.889111C72.8486 0.201543 72.3395 0.0615943 71.6344 0.440872C70.8324 0.870855 71.3678 1.84035 72.5759 2.14052C74.4164 2.60093 74.5396 5.49318 72.7193 5.50534C72.5193 5.50737 72.1738 5.54185 71.9516 5.58039C71.7294 5.62095 71.293 5.61284 70.9799 5.56416ZM90.7402 3.85234C89.9624 2.84229 89.1704 1.82006 88.9785 1.5787L88.633 1.14264L88.6249 3.00658C88.6189 4.70825 88.6593 4.89891 89.0674 5.18691L89.5179 5.50332H88.5239C87.637 5.50332 87.5724 5.47492 87.9077 5.22748C88.6169 4.70623 88.6047 0.43276 87.8956 0.43276C87.7239 0.43276 87.633 0.355689 87.6896 0.26239C87.7481 0.169092 88.2249 0.130556 88.7522 0.177206C89.7341 0.266447 89.8512 0.35366 90.7341 1.64969C90.9988 2.04114 91.4473 2.63338 91.7281 2.96804L92.2412 3.57651L92.2473 2.09996C92.2554 0.75322 92.215 0.607187 91.8008 0.438845C91.2452 0.21574 91.2978 0.195458 92.5079 0.156922C93.0352 0.140696 93.4675 0.195458 93.4675 0.280644C93.4675 0.363801 93.3322 0.43276 93.1645 0.43276C92.91 0.43276 92.8615 0.860715 92.8615 3.06945C92.8615 6.37748 92.7241 6.42819 90.7402 3.85234ZM101.112 5.50332C98.3627 5.0064 97.8818 1.56857 100.403 0.420592C101.91 -0.266976 103.585 -0.0884928 103.858 0.787699C104.042 1.37588 103.908 1.36371 103.284 0.736994C102.282 -0.269005 100.745 0.333379 100.324 1.89511C99.6435 4.43242 101.995 6.49715 103.452 4.64132L103.969 3.98215L103.971 4.5318C103.975 5.3654 102.712 5.79335 101.112 5.50332ZM145.342 5.52563C144.017 5.22951 143.603 4.20728 144.477 3.39397L144.98 2.92544L144.578 2.56037C143.609 1.68012 144.338 0.252249 145.847 0.0818788C147.514 -0.106746 148.425 1.03514 147.417 2.04723L147.019 2.44678L147.605 2.79361C149.34 3.82395 147.526 6.0124 145.342 5.52563ZM146.793 5.00843C147.203 4.51152 146.952 3.85032 146.197 3.44467L145.49 3.06539L145.237 3.41019C144.453 4.48109 145.956 6.02051 146.793 5.00843ZM146.89 1.73285C147.158 0.659922 146.239 -0.191933 145.488 0.434788C145.055 0.793783 145.114 1.15278 145.702 1.74096C146.356 2.39811 146.724 2.39608 146.89 1.73285ZM79.7802 5.22139C80.2711 4.84617 80.3176 0.43276 79.8307 0.43276C79.665 0.43276 79.5276 0.363801 79.5276 0.280644C79.5276 0.197487 80.1357 0.160978 80.8812 0.197486C81.8752 0.25022 82.1459 0.31918 81.8934 0.461155C81.3742 0.75322 81.3823 4.82386 81.9015 5.22139C82.2065 5.45261 82.0591 5.49115 80.8408 5.49115C79.6226 5.49115 79.4751 5.45261 79.7802 5.22139ZM109.579 5.25993L110.034 5.0348V2.82809V0.623414L109.579 0.438845C109.268 0.313095 109.872 0.252248 111.498 0.242107L113.872 0.229938V0.736994C113.872 1.34952 113.674 1.37994 113.212 0.838405C112.991 0.580821 112.616 0.43276 112.177 0.43276H111.486L111.418 1.47324C111.369 2.17298 111.43 2.54414 111.6 2.61107C112.07 2.79158 112.878 2.45287 113.06 1.99855C113.2 1.64969 113.244 1.79573 113.254 2.65164L113.266 3.75499L112.854 3.31081C111.951 2.33726 111.058 2.95384 111.357 4.34115C111.6 5.46275 112.442 5.62907 113.468 4.76099L114.107 4.22148L114.04 4.81169L113.973 5.40191L111.549 5.44247C109.662 5.47492 109.226 5.43436 109.579 5.25993ZM125.438 5.26804L125.994 5.06319V2.92544V0.787699L125.388 0.909394C124.461 1.09599 124.667 0.751191 125.64 0.48955C126.113 0.361772 126.659 0.19546 126.853 0.120416C127.178 -0.00533429 127.206 0.18329 127.206 2.41433C127.206 4.93542 127.273 5.14838 128.115 5.35729C128.337 5.41205 127.701 5.4587 126.701 5.46478C125.257 5.46884 124.996 5.4303 125.438 5.26804Z" fill="white"/>
</svg>
