<svg width="233" height="234" viewBox="0 0 233 234" fill="none" xmlns="http://www.w3.org/2000/svg">
<rect width="233" height="233" transform="translate(0 0.5)" fill="#FFF2EE"/>
<path opacity="0.62" d="M156.76 71.1156C156.437 71.2087 156.201 71.4198 155.946 71.5936C155.115 72.1647 154.308 72.7731 153.587 73.487C152.774 74.294 152.569 75.2624 152.756 76.3364C152.948 77.4848 153.966 78.0932 155.071 77.7269C155.295 77.6524 155.524 77.5469 155.711 77.4041C155.996 77.1868 156.275 76.9509 156.499 76.6716C157.443 75.5045 157.678 74.1698 157.349 72.7296C157.219 72.1709 157.082 71.6122 156.753 71.1094M84.8235 76.386C84.7738 76.2432 84.7676 76.1687 84.7303 76.1129C84.2399 75.3431 83.7619 74.5609 83.2405 73.816C82.9363 73.3876 82.5824 72.9841 82.1914 72.6303C81.3781 71.8791 80.3911 71.755 79.3606 72.0343C78.6467 72.2268 78.2121 72.8351 78.1625 73.5801C78.119 74.2629 78.3611 74.8589 78.7895 75.3741C79.3544 76.057 80.0559 76.5536 80.9125 76.8019C82.2534 77.1868 83.5198 76.9261 84.8235 76.386ZM156.189 159.316C156.244 159.459 156.275 159.577 156.331 159.676C156.784 160.39 157.219 161.104 157.697 161.799C157.958 162.172 158.268 162.513 158.572 162.855C159.311 163.699 160.273 163.898 161.329 163.755C162.396 163.612 163.042 162.65 162.825 161.601C162.744 161.197 162.583 160.819 162.334 160.49C161.707 159.651 160.882 159.099 159.864 158.844C158.585 158.528 157.393 158.844 156.182 159.322M83.5881 165.481C84.4758 164.891 85.2953 164.345 86.0526 163.705C86.4003 163.407 86.7293 163.091 87.0459 162.762C87.8591 161.917 87.9957 160.887 87.7536 159.794C87.5549 158.9 86.8472 158.242 85.7112 158.379C85.1897 158.447 84.7428 158.683 84.3579 159.018C83.5509 159.726 83.0294 160.62 82.868 161.675C82.6756 162.979 82.9549 164.208 83.5819 165.481M167.245 82.6373C167.139 82.5752 167.046 82.5007 166.94 82.4573C166.196 82.1158 165.42 81.8613 164.606 81.7434C163.371 81.5695 162.216 81.8054 161.155 82.4759C160.745 82.7366 160.391 83.0594 160.13 83.4753C159.783 84.0216 159.727 84.599 159.975 85.1949C160.23 85.8033 160.608 86.3309 161.124 86.7407C161.49 87.0386 161.925 87.2124 162.396 87.1255C162.725 87.0635 163.054 86.9703 163.346 86.8151C163.725 86.6103 164.085 86.362 164.414 86.0826C165.513 85.1639 166.369 84.0403 167.176 82.867C167.214 82.8173 167.214 82.7366 167.245 82.6435M168.207 149.067C167.685 150.023 167.338 150.985 167.176 152.016C166.99 153.158 167.207 154.22 167.71 155.238C167.934 155.691 168.238 156.101 168.641 156.417C169.244 156.895 169.908 156.976 170.609 156.684C171.081 156.485 171.497 156.2 171.863 155.846C172.509 155.231 172.658 154.493 172.385 153.661C172.279 153.344 172.124 153.034 171.95 152.755C171.72 152.388 171.466 152.041 171.187 151.705C170.392 150.768 169.467 149.955 168.492 149.204C168.437 149.16 168.368 149.142 168.213 149.067M72.8113 86.6351C73.3514 85.6419 73.7177 84.6548 73.8543 83.5933C74.0095 82.4138 73.786 81.2902 73.1838 80.2535C72.9417 79.8314 72.6375 79.4589 72.2278 79.1795C71.7188 78.8319 71.1663 78.7202 70.5765 78.9436C69.962 79.1795 69.4157 79.5334 68.9749 80.03C68.5031 80.5577 68.3852 81.1785 68.5652 81.8551C68.6397 82.1345 68.7452 82.4138 68.8942 82.6559C69.1363 83.0656 69.4033 83.4753 69.7012 83.8478C70.5207 84.8721 71.5077 85.7164 72.5382 86.5172C72.5879 86.5606 72.6624 86.5792 72.7989 86.6351M72.6437 153.388C74.0715 154.195 75.5304 154.48 76.7595 154.375C77.8211 154.282 78.7708 153.884 79.5654 153.177C79.7951 152.972 79.9938 152.717 80.1552 152.457C80.4718 151.96 80.5152 151.407 80.3166 150.855C80.0621 150.141 79.6213 149.539 79.0192 149.067C78.5039 148.664 77.9204 148.583 77.312 148.775C77.014 148.868 76.7161 148.986 76.4615 149.166C75.9897 149.495 75.5242 149.849 75.1082 150.24C74.1895 151.103 73.4383 152.103 72.7244 153.139C72.6872 153.195 72.6748 153.27 72.6313 153.382M120.568 117.109C120.537 117.42 120.568 117.476 120.804 117.476C121.741 117.476 122.685 117.488 123.622 117.476C124.038 117.476 124.498 117.612 124.808 117.178C125.094 117.128 125.373 117.053 125.658 117.022C127.285 116.824 128.924 116.762 130.556 116.793C130.898 116.793 131.233 116.811 131.568 116.805C132.456 116.774 133.35 116.718 134.238 116.7C134.741 116.687 135.25 116.724 135.752 116.755C136.038 116.774 136.324 116.836 136.609 116.842C138.198 116.861 139.787 116.873 141.383 116.88C141.519 116.88 141.656 116.842 141.799 116.824C141.799 116.594 141.805 116.402 141.799 116.215C141.724 114.688 141.47 113.198 141.048 111.733C139.465 106.283 136.237 102.086 131.426 99.1004C131.227 98.9763 131.041 98.8273 130.768 98.7962C130.693 98.97 130.625 99.1252 130.569 99.2804C129.371 102.639 127.943 105.91 126.434 109.138C125.621 110.883 124.777 112.615 123.933 114.353C123.709 114.806 123.467 115.253 123.182 115.669C122.939 116.023 122.648 116.358 122.337 116.656C121.878 117.097 121.344 117.333 120.692 117.091C120.655 117.078 120.605 117.109 120.562 117.122M198.265 96.0275C198.11 96.3193 198.184 96.549 198.395 96.7539C198.675 97.0208 198.96 97.2815 199.227 97.5547C200.041 98.3741 200.879 99.1811 201.661 100.032C203.058 101.559 204.113 103.309 204.895 105.228C205.522 106.748 205.975 108.319 206.304 109.933C206.478 110.784 206.67 111.634 206.726 112.497C206.9 115.067 206.602 117.606 205.845 120.077C204.994 122.864 203.647 125.378 201.549 127.433C199.978 128.972 198.228 130.301 196.291 131.362C193.889 132.678 191.281 133.337 188.575 133.634C186.073 133.908 183.565 133.839 181.063 133.61C178.996 133.423 176.947 133.132 174.893 132.821C172.124 132.405 169.374 131.909 166.655 131.257C162.812 130.344 158.97 129.413 155.146 128.426C152.116 127.644 149.093 126.8 146.095 125.9C142.24 124.745 138.502 123.243 134.765 121.753C133.772 121.355 132.853 120.846 131.997 120.213C131.475 119.828 130.929 119.468 130.407 119.083C130.06 118.829 129.694 118.73 129.259 118.767C128.396 118.841 127.527 118.872 126.664 118.922C126.627 118.922 126.596 118.972 126.521 119.027C126.621 119.127 126.701 119.245 126.813 119.313C127.335 119.623 127.85 119.934 128.384 120.207C129.216 120.642 130.066 121.045 130.904 121.473C135.163 123.634 139.489 125.633 144.015 127.191C146.02 127.88 148.038 128.532 150.043 129.208C151.024 129.537 152.004 129.885 152.991 130.195C160.565 132.585 168.244 134.504 176.091 135.745C177.972 136.043 179.865 136.248 181.765 136.397C183.571 136.534 185.378 136.589 187.184 136.571C188.419 136.558 189.642 136.459 190.853 136.242C194.869 135.522 198.426 133.833 201.431 131.071C206.59 126.328 208.998 120.418 208.676 113.416C208.514 109.908 207.509 106.637 205.745 103.601C204.045 100.671 201.779 98.2748 198.96 96.3938C198.743 96.251 198.544 96.0648 198.271 96.0338M142.581 195.862C142.556 195.824 142.531 195.781 142.506 195.744C142.382 195.787 142.227 195.806 142.14 195.886C141.656 196.321 141.184 196.774 140.712 197.215C139.837 198.041 138.974 198.891 138.068 199.686C136.733 200.853 135.219 201.734 133.586 202.429C131.916 203.143 130.178 203.634 128.409 203.988C127.533 204.161 126.652 204.354 125.77 204.404C122.722 204.584 119.755 204.149 116.893 203.088C113.746 201.92 111.101 200.052 109.096 197.327C108.984 197.171 108.86 197.022 108.736 196.873C107.19 195.005 106.116 192.894 105.452 190.573C104.546 187.425 104.44 184.203 104.639 180.963C104.757 179.063 105.005 177.176 105.278 175.289C105.62 172.924 106.017 170.577 106.514 168.243C107.55 163.333 108.842 158.497 110.294 153.698C111.169 150.812 112.125 147.956 112.951 145.063C114.199 140.674 115.701 136.385 117.508 132.194C117.893 131.307 118.259 130.419 118.631 129.531C119.115 128.37 119.538 127.191 119.873 125.986C119.985 125.571 120.202 125.297 120.63 125.217C120.667 125.217 120.705 125.161 120.736 125.13C121.071 123.429 121.201 120.871 120.984 120.145C120.941 120.164 120.885 120.164 120.86 120.195C120.723 120.393 120.58 120.592 120.463 120.797C119.643 122.138 119.022 123.578 118.457 125.043C117.793 126.775 117.141 128.513 116.477 130.245C114.056 136.565 111.424 142.81 109.264 149.229C108.146 152.562 107.004 155.89 106.079 159.291C104.508 165.058 103.093 170.863 102.311 176.804C101.907 179.914 101.709 183.042 101.808 186.184C101.833 186.879 101.883 187.58 101.982 188.269C102.534 192.031 104.012 195.396 106.458 198.314C110.331 202.932 115.322 205.49 121.282 206.16C124.138 206.483 126.968 206.241 129.737 205.453C134.945 203.975 139.111 201.033 142.159 196.538C142.308 196.321 142.438 196.091 142.575 195.868M98.8159 117.73C98.729 118.158 98.7724 118.587 98.8097 119.015C98.909 120.219 99.0518 121.411 99.356 122.585C101.113 129.376 105.191 134.255 111.529 137.241C111.672 137.31 111.84 137.347 112.026 137.403C112.15 137.105 112.268 136.844 112.374 136.583C113.87 132.722 115.372 128.861 116.862 124.993C117.731 122.74 118.662 120.524 120.146 118.587C120.357 118.307 120.363 118.022 120.233 117.693C120.127 117.674 120.034 117.643 119.941 117.643C112.976 117.643 106.011 117.643 99.0456 117.656C98.9773 117.656 98.909 117.699 98.8221 117.73M115.223 115.259C115.006 115.017 114.751 114.937 114.522 114.825C112.572 113.856 110.555 113.08 108.5 112.385C106.104 111.572 103.72 110.728 101.392 109.728C99.2504 108.809 97.1274 107.829 94.8677 107.202C94.0359 106.966 93.2226 106.662 92.4032 106.37C88.2688 104.911 84.0785 103.613 79.8324 102.521C75.4186 101.385 70.9738 100.41 66.4918 99.6032C63.8535 99.1314 61.2089 98.759 58.5396 98.5169C56.2613 98.312 53.9706 98.2065 51.6737 98.2499C49.7679 98.281 47.8745 98.4548 46.0122 98.908C35.6389 101.435 27.9413 111.541 29.6174 123.317C30.1326 126.942 31.5107 130.233 33.7021 133.169C35.6141 135.739 37.9855 137.794 40.7976 139.339C40.9342 139.414 41.0584 139.569 41.2632 139.42C41.077 139.017 40.7976 138.681 40.4935 138.377C40.1148 138.005 39.7113 137.663 39.3326 137.285C38.4759 136.44 37.6006 135.609 36.775 134.727C35.5955 133.467 34.6829 132.02 33.9442 130.469C33.162 128.805 32.6095 127.06 32.1936 125.273C31.9329 124.143 31.6846 123.013 31.6411 121.852C31.5542 119.176 31.9267 116.563 32.8082 114.03C33.9008 110.883 35.6948 108.213 38.3331 106.14C38.8236 105.755 39.314 105.364 39.8106 104.979C43.616 102.074 47.9242 100.615 52.7104 100.547C54.6411 100.516 56.5593 100.752 58.4651 101.043C59.7998 101.248 61.1282 101.472 62.4629 101.683C64.6977 102.037 66.945 102.341 69.1736 102.744C73.5128 103.527 77.8086 104.538 82.0299 105.811C88.3495 107.717 94.6442 109.691 100.964 111.597C104.837 112.77 108.599 114.266 112.448 115.526C112.697 115.607 112.963 115.706 113.212 115.7C113.888 115.681 114.534 115.514 115.211 115.266M121.611 115.259C121.803 114.992 121.959 114.812 122.077 114.614C122.356 114.105 122.623 113.589 122.877 113.074C123.219 112.379 123.529 111.677 123.871 110.988C126.043 106.599 128.024 102.124 129.6 97.4864C130.277 95.4813 130.867 93.4389 131.55 91.4338C133.046 86.9766 134.349 82.4635 135.454 77.8883C136.609 73.1083 137.652 68.3034 138.353 63.4303C138.825 60.1091 139.111 56.7755 139.16 53.4171C139.185 51.5548 139.105 49.7048 138.763 47.8735C137.894 43.2052 135.802 39.1764 132.425 35.8428C128.744 32.1988 124.299 30.1068 119.134 29.6412C116.223 29.3804 113.348 29.6908 110.573 30.6468C105.235 32.4719 101.206 35.8924 98.3813 40.7594C98.313 40.8711 98.1889 40.9828 98.2944 41.1815C98.4186 41.1132 98.5552 41.0698 98.6483 40.9828C99.1014 40.5545 99.5732 40.1386 99.9892 39.673C100.889 38.6673 101.827 37.6927 102.826 36.7864C104.03 35.6938 105.365 34.7937 106.824 34.0735C108.717 33.1362 110.716 32.534 112.771 32.087C113.64 31.8946 114.515 31.7022 115.409 31.6711C117.967 31.5656 120.463 31.8946 122.89 32.7016C126.571 33.9183 129.6 36.0476 131.804 39.2757C131.916 39.4309 132.028 39.5861 132.152 39.7413C133.462 41.436 134.43 43.3108 135.113 45.3407C135.908 47.7183 136.243 50.1704 136.355 52.6597C136.479 55.4657 136.249 58.253 135.908 61.0341C135.641 63.2068 135.312 65.3796 134.964 67.5461C134.449 70.7617 133.772 73.9463 133.002 77.1061C132.077 80.8743 130.923 84.5803 129.681 88.2616C128.433 91.9614 127.142 95.6489 125.888 99.3425C125.305 101.056 124.777 102.782 124.026 104.433C123.573 105.42 123.151 106.413 122.735 107.419C122.312 108.443 121.959 109.492 121.76 110.591C121.729 110.777 121.673 110.988 121.555 111.119C121.344 111.342 121.332 111.584 121.344 111.851C121.4 112.913 121.45 113.974 121.512 115.03C121.512 115.073 121.549 115.11 121.617 115.284M177.519 90.2357C177.519 79.9617 177.519 69.6878 177.519 59.4201C177.519 59.3518 177.475 59.2897 177.463 59.2462C177.425 59.209 177.413 59.1904 177.388 59.1842C177.32 59.1655 177.245 59.1469 177.177 59.1469H144.257C144.257 59.1469 144.207 59.1469 144.189 59.1655C144.176 59.1779 144.17 59.2028 144.152 59.2587C144.276 59.3145 144.394 59.3766 144.518 59.4201C145.555 59.8111 146.61 60.1526 147.628 60.5933C151.551 62.2943 154.792 64.8333 157.089 68.4897C157.163 68.6076 157.256 68.7132 157.362 68.8559C157.573 68.7504 157.765 68.6635 157.952 68.5642C158.957 68.0365 159.988 67.5709 161.049 67.1736C162.775 66.5342 164.557 66.1183 166.394 65.9755C167.58 65.8824 168.759 65.9755 169.889 66.3604C171.652 66.9625 172.745 68.1793 173.173 69.992C173.421 71.0411 173.397 72.1026 173.241 73.158C172.974 75.0141 172.341 76.7523 171.503 78.4222C170.951 79.521 170.336 80.5887 169.753 81.6689C169.678 81.8116 169.61 81.9544 169.529 82.1096C170.187 82.6 170.814 83.0408 171.41 83.5312C171.987 84.003 172.546 84.5058 173.08 85.0211C173.632 85.5612 174.166 86.1199 174.675 86.6972C175.166 87.2559 175.619 87.8581 176.085 88.4416C176.556 89.0375 176.923 89.708 177.525 90.2481M70.4089 153.94C70.2537 153.822 70.1606 153.748 70.0613 153.68C68.2486 152.463 66.647 151.004 65.2006 149.378C64.0894 148.13 63.0961 146.801 62.2208 145.38C62.1463 145.256 62.1215 145.044 61.8359 145.075V176.897C61.8359 177.064 61.8297 177.238 61.8359 177.4C61.8483 177.536 61.8794 177.673 61.9042 177.797C62.3946 177.865 95.9292 177.915 96.7238 177.847C96.7797 177.847 96.8356 177.797 96.9597 177.735C96.7176 177.604 96.519 177.549 96.3203 177.487C95.1471 177.114 93.9986 176.686 92.8812 176.177C90.2677 174.991 87.8901 173.458 85.885 171.384C84.9104 170.379 84.0723 169.255 83.3026 168.088C83.2032 167.933 83.1474 167.722 82.9053 167.691C82.7252 167.79 82.5328 167.889 82.3403 167.989C80.7015 168.87 78.9881 169.565 77.1816 170.043C75.5924 170.465 73.9784 170.739 72.3271 170.683C71.4518 170.652 70.5952 170.515 69.7819 170.205C68.1617 169.584 67.1064 168.436 66.6532 166.766C66.3987 165.847 66.3428 164.916 66.4297 163.966C66.5601 162.637 66.8767 161.359 67.3298 160.105C67.9941 158.261 68.9253 156.541 69.8875 154.847C70.0551 154.555 70.2227 154.269 70.4213 153.928M53.7844 185.085C53.8527 185.11 53.921 185.153 53.983 185.153C69.3226 185.153 84.6559 185.153 99.9954 185.153C100.064 185.153 100.126 185.11 100.206 185.085C100.3 183.328 100.399 181.577 100.492 179.821C100.492 179.703 100.48 179.591 100.473 179.454C100.151 179.336 99.834 179.386 99.5298 179.386C87.2073 179.386 74.8848 179.386 62.5622 179.386C62.1029 179.386 61.6497 179.423 61.1903 179.448C60.6813 179.479 60.3709 179.225 60.3212 178.703C60.3026 178.461 60.315 178.219 60.315 177.983C60.315 167.082 60.315 156.181 60.315 145.28C60.315 143.331 60.3833 141.388 60.1598 139.445C60.0543 138.557 60.0543 137.663 60.0419 136.769C60.0108 134.187 60.0108 131.611 59.9798 129.028C59.9487 126.328 59.8991 123.627 59.8432 120.927C59.8122 119.506 59.3342 118.239 58.4527 117.122C57.3601 115.731 55.9137 114.843 54.2562 114.291C54.132 114.247 53.983 114.266 53.8154 114.247C53.7782 115.483 53.7099 116.681 53.7099 117.885C53.7099 140.215 53.7099 162.544 53.7161 184.874C53.7161 184.942 53.7596 185.01 53.7844 185.085ZM74.0467 87.5787C74.1709 87.6842 74.2702 87.7774 74.3943 87.8581C75.6483 88.7085 76.9395 89.5155 78.2866 90.2232C79.2737 90.7385 80.2918 91.1606 81.3595 91.4772C82.4086 91.7876 83.4826 91.949 84.5752 91.8373C85.9657 91.6945 86.9652 91.0116 87.5177 89.708C87.7349 89.1927 87.8529 88.6589 87.9398 88.1064C88.1012 87.02 88.0329 85.9398 87.8901 84.8597C87.5797 82.5007 86.8658 80.2535 85.8291 78.118C85.7671 77.9938 85.6801 77.8821 85.5932 77.7455C85.3822 77.8138 85.2021 77.8697 85.0221 77.9318C84.3889 78.1677 83.7371 78.3353 83.0667 78.4222C80.9746 78.7015 79.2116 78.0559 77.7838 76.5164C77.2127 75.9018 76.8464 75.1755 76.6974 74.3436C76.3995 72.6613 77.2934 70.9914 79.0502 70.5569C80.6146 70.1658 82.0734 70.4203 83.2839 71.5688C83.6999 71.9661 84.0847 72.4068 84.4262 72.8724C84.929 73.5739 85.3822 74.3188 85.854 75.0451C85.9843 75.2438 86.1147 75.4424 86.2575 75.6597C86.4685 75.548 86.6361 75.4673 86.7976 75.3741C88.9144 74.1077 90.7085 72.4875 92.1611 70.4886C94.1104 67.8006 95.3892 64.796 96.2955 61.6238C96.3266 61.5183 96.3141 61.3941 96.3203 61.27C95.9913 61.1334 95.6747 61.1831 95.3643 61.1831C84.4882 61.1831 73.6122 61.1831 62.7361 61.1831C62.5436 61.1831 62.3512 61.1707 62.1587 61.1831C62.0222 61.1955 61.8856 61.2327 61.7056 61.27C61.7056 61.6052 61.6994 61.9156 61.6994 62.226V95.2888C61.6994 95.4813 61.6994 95.6737 61.6994 95.8661C61.7056 96.0027 61.6621 96.1517 61.8483 96.2883C62.1091 96.1827 62.3946 96.0648 62.674 95.9344C64.1887 95.2267 65.5854 94.3266 66.9015 93.3023C68.6769 91.918 70.2786 90.3598 71.6194 88.5347C71.7436 88.3671 71.8429 88.1809 71.9609 87.9946C71.3898 87.5104 70.8497 87.0697 70.322 86.6103C69.5026 85.8964 68.7452 85.1142 68.112 84.2265C67.7085 83.6554 67.3609 83.047 67.1622 82.3641C66.945 81.6316 66.9201 80.8991 67.1809 80.1604C67.6775 78.7698 69.4529 77.4351 70.9242 77.3296C72.0974 77.2427 73.0534 77.6959 73.8108 78.5525C74.9841 79.881 75.4683 81.464 75.3938 83.227C75.3317 84.4996 74.9468 85.6853 74.4068 86.8276C74.295 87.0635 74.1833 87.2994 74.0591 87.5601M186.998 120.989C187.147 120.679 187.085 120.356 187.085 120.052C187.085 97.5733 187.085 75.0886 187.085 52.6101C187.085 52.4176 187.085 52.2252 187.085 52.0328C187.079 51.8962 187.048 51.7534 187.035 51.5982C186.88 51.5796 186.768 51.5548 186.65 51.5548C171.41 51.5548 156.164 51.5548 140.917 51.561C140.849 51.561 140.787 51.6044 140.688 51.6355C140.576 52.2997 140.663 52.9701 140.638 53.6406C140.613 54.2924 140.588 54.9442 140.594 55.5898C140.601 56.2541 140.452 56.9183 140.539 57.6198C140.818 57.6322 141.054 57.6508 141.29 57.6508C153.277 57.6508 165.264 57.6508 177.252 57.6508C177.512 57.6508 177.779 57.6198 178.04 57.5825C178.63 57.5018 178.965 57.7502 179.015 58.3461C179.039 58.6068 179.027 58.8738 179.027 59.1407V93.0788C179.027 93.5134 179.027 93.9479 179.151 94.3701C179.257 94.7301 179.418 95.1026 179.064 95.444C179.021 95.4813 179.033 95.5806 179.033 95.6551C179.033 95.7792 179.033 95.8972 179.033 96.0213C178.984 97.536 179.151 99.057 178.909 100.572C178.897 100.64 178.909 100.714 178.909 100.789C178.878 103.222 178.841 105.662 178.828 108.096C178.816 109.927 178.835 111.764 178.859 113.596C178.89 115.874 179.871 117.674 181.653 119.065C182.752 119.921 184 120.474 185.359 120.791C185.899 120.915 186.439 121.002 187.01 120.995M155.4 157.988C155.679 157.882 155.878 157.802 156.083 157.727C157.07 157.379 158.082 157.175 159.131 157.224C160.925 157.311 162.365 158.093 163.476 159.484C163.861 159.962 164.122 160.502 164.259 161.098C164.687 162.979 163.768 164.655 161.999 165.127C160.497 165.53 159.081 165.282 157.858 164.245C157.325 163.786 156.871 163.252 156.48 162.668C155.984 161.93 155.512 161.172 155.028 160.421C154.941 160.285 154.829 160.167 154.717 160.024C154.475 160.16 154.27 160.285 154.065 160.409C151.427 162.004 149.379 164.171 147.796 166.803C145.977 169.832 144.841 173.122 144.114 176.568C144.096 176.648 144.133 176.742 144.152 176.872C144.468 176.872 144.754 176.891 145.039 176.891C156.164 176.891 167.282 176.891 178.4 176.891C178.617 176.891 178.835 176.891 179.052 176.878C179.145 176.878 179.232 176.828 179.331 176.804C179.437 176.481 179.387 176.164 179.387 175.86C179.387 164.016 179.387 152.171 179.387 140.327C179.387 140.134 179.387 139.942 179.387 139.749C179.387 139.637 179.35 139.532 179.331 139.42C179.002 139.408 178.773 139.563 178.537 139.668C176.587 140.55 174.837 141.748 173.21 143.12C171.77 144.337 170.46 145.684 169.355 147.223C169.25 147.372 169.076 147.503 169.132 147.763C169.262 147.869 169.411 147.987 169.554 148.111C170.069 148.552 170.591 148.98 171.087 149.433C171.733 150.017 172.323 150.656 172.838 151.364C173.254 151.929 173.608 152.531 173.825 153.208C174.266 154.567 174.017 155.778 173.03 156.821C172.472 157.404 171.814 157.845 171.056 158.131C169.908 158.571 168.834 158.41 167.841 157.696C167.301 157.311 166.891 156.808 166.556 156.243C165.718 154.816 165.469 153.27 165.724 151.643C165.891 150.582 166.258 149.595 166.729 148.639C166.816 148.471 166.885 148.291 166.959 148.117C166.86 148.03 166.798 147.962 166.717 147.906C165.32 146.956 163.892 146.056 162.378 145.299C161.229 144.728 160.044 144.268 158.783 144.008C157.877 143.822 156.977 143.728 156.058 143.921C154.947 144.151 154.109 144.734 153.625 145.771C153.438 146.156 153.302 146.578 153.203 146.994C152.923 148.186 152.973 149.396 153.109 150.594C153.383 152.941 154.065 155.163 155.065 157.305C155.164 157.516 155.276 157.727 155.413 157.994M142.109 175.941C141.88 175.351 141.619 174.923 141.346 174.501C137.739 168.895 132.58 165.909 125.969 165.375C125.323 165.325 124.665 165.363 124.02 165.394C123.517 165.419 123.014 165.524 122.505 165.549C122.077 165.567 121.636 165.549 121.214 165.481C120.326 165.325 119.761 164.736 119.6 163.848C119.538 163.519 119.5 163.177 119.494 162.842C119.482 162.141 119.494 161.446 119.507 160.744C119.513 160.216 119.562 159.682 119.556 159.155C119.55 158.044 119.5 156.939 119.5 155.827C119.494 150.644 119.451 145.454 119.575 140.271C119.656 136.943 119.699 133.616 120.165 130.313C120.177 130.239 120.152 130.158 120.134 129.928C119.997 130.195 119.929 130.313 119.873 130.444C119.562 131.176 119.246 131.903 118.935 132.641C117.725 135.559 116.496 138.464 115.583 141.494C114.962 143.542 114.373 145.609 113.746 147.658C112.889 150.47 111.97 153.264 111.145 156.088C109.406 162.041 107.892 168.044 106.954 174.178C106.563 176.754 106.209 179.33 106.085 181.938C105.98 184.017 106.067 186.084 106.42 188.133C106.929 191.088 108.059 193.77 110.015 196.073C110.151 196.234 110.282 196.414 110.412 196.588C111.778 198.382 113.473 199.785 115.478 200.822C117.315 201.771 119.264 202.367 121.307 202.684C123.002 202.945 124.715 203.081 126.422 202.821C128.235 202.541 130.016 202.138 131.755 201.523C133.468 200.915 135.082 200.114 136.522 198.99C137.72 198.053 138.838 197.022 139.862 195.899C139.918 195.837 140.017 195.775 139.924 195.601C139.819 195.601 139.682 195.601 139.545 195.601C139.136 195.62 138.726 195.644 138.316 195.644C136.243 195.657 134.169 195.688 132.096 195.651C129.712 195.613 127.322 195.508 124.938 195.427C124.653 195.415 124.367 195.365 124.075 195.328C120.667 194.893 118.215 193.099 116.75 190.014C114.981 186.295 115.745 181.813 118.445 178.796C119.668 177.424 121.17 176.499 122.983 176.146C123.691 176.009 124.423 175.953 125.137 175.947C127.645 175.928 130.153 175.941 132.661 175.947C135.361 175.953 138.068 175.972 140.762 175.978C141.172 175.978 141.582 175.953 142.103 175.935M132.108 118.307C132.785 118.996 133.94 119.772 134.765 120.114C135.858 120.561 136.957 121.002 138.049 121.43C141.501 122.789 144.983 124.068 148.559 125.08C153.01 126.34 157.486 127.507 161.974 128.612C166.791 129.798 171.64 130.872 176.563 131.549C179.027 131.89 181.485 132.2 183.975 132.275C186.222 132.343 188.457 132.244 190.667 131.785C193.429 131.213 195.943 130.127 198.141 128.333C198.309 128.196 198.482 128.072 198.662 127.942C200.754 126.415 202.337 124.478 203.442 122.138C204.622 119.636 205.187 116.991 205.274 114.235C205.292 113.658 205.286 113.074 205.218 112.503C204.963 110.368 204.448 108.282 203.691 106.27C203.014 104.476 202.077 102.825 200.823 101.366C199.941 100.342 198.998 99.3736 197.992 98.4734C197.911 98.3989 197.818 98.3368 197.694 98.2499C197.657 98.3741 197.626 98.4362 197.626 98.4983C197.638 99.9943 197.663 101.484 197.669 102.98C197.682 104.911 197.75 106.835 197.644 108.766C197.582 109.896 197.551 111.032 197.502 112.162C197.464 112.838 197.446 113.515 197.365 114.179C196.974 117.445 195.267 119.828 192.38 121.343C188.506 123.385 183.733 122.727 180.492 120.058C178.444 118.363 177.357 116.197 177.37 113.503C177.388 110.56 177.376 107.618 177.376 104.675C177.376 102.117 177.376 99.5598 177.376 97.0084C177.376 96.7725 177.357 96.5366 177.345 96.3131C177.258 96.3007 177.202 96.2696 177.165 96.2883C176.966 96.3752 176.767 96.4559 176.575 96.5614C171.05 99.6343 167.673 104.259 166.556 110.498C166.276 112.044 166.214 113.608 166.462 115.179C166.525 115.557 166.525 115.948 166.506 116.333C166.475 117.19 166.084 117.86 165.357 118.314C165.053 118.5 164.718 118.667 164.37 118.742C163.737 118.879 163.085 119.003 162.44 119.021C160.391 119.077 158.343 119.096 156.294 119.102C153.569 119.102 150.85 118.903 148.131 118.705C145.604 118.518 143.071 118.432 140.545 118.376C138.087 118.326 135.628 118.332 133.164 118.32C132.853 118.32 132.543 118.32 132.102 118.32M107.637 115.588C107.637 115.539 107.637 115.495 107.637 115.446C107.488 115.384 107.339 115.309 107.184 115.259C105.495 114.688 103.819 114.08 102.118 113.546C98.2075 112.317 94.2904 111.131 90.3795 109.921C86.2637 108.642 82.1479 107.338 77.9825 106.239C74.3447 105.277 70.6696 104.507 66.9636 103.868C65.4923 103.613 64.0087 103.427 62.5312 103.21C60.2219 102.862 57.925 102.415 55.5971 102.192C53.6416 102.006 51.6924 101.981 49.7555 102.297C46.2791 102.856 43.1566 104.228 40.4065 106.438C40.1086 106.68 39.8044 106.916 39.494 107.152C37.5944 108.586 36.1232 110.38 35.074 112.516C33.6897 115.346 33.0937 118.345 33.162 121.48C33.1744 121.964 33.1807 122.448 33.2614 122.92C33.5097 124.447 33.8697 125.943 34.3539 127.414C35.0306 129.469 35.9618 131.393 37.3399 133.076C38.3952 134.367 39.5871 135.528 40.8473 136.614C40.9156 136.67 41.0025 136.701 41.1329 136.769C41.1329 136.614 41.1329 136.527 41.1329 136.434C41.0956 135.714 41.0335 134.994 41.0149 134.268C40.9901 133.206 40.9963 132.145 40.9839 131.083C40.9653 129.829 40.9094 128.575 40.9218 127.321C40.9342 125.9 40.9901 124.478 41.0397 123.056C41.0646 122.336 41.077 121.61 41.1453 120.89C41.4246 117.848 42.9083 115.52 45.4783 113.906C47.5455 112.609 49.8238 112.112 52.2573 112.36C54.6287 112.602 56.7393 113.459 58.5334 115.042C59.9301 116.277 60.8613 117.805 61.1965 119.648C61.3083 120.263 61.3517 120.896 61.3641 121.523C61.4076 124.633 61.42 127.743 61.4572 130.853C61.4883 133.243 61.5317 135.627 61.5752 138.011C61.5752 138.148 61.538 138.303 61.7242 138.439C61.8918 138.365 62.0904 138.29 62.2705 138.191C67.0132 135.578 70.2475 131.716 71.7808 126.508C72.4761 124.155 72.7617 121.747 72.3271 119.288C72.2402 118.798 72.2464 118.276 72.2775 117.774C72.3582 116.557 73.0783 115.824 74.3012 115.725C75.1144 115.657 75.9339 115.644 76.7533 115.632C77.43 115.619 78.1066 115.663 78.7771 115.657C80.8008 115.632 82.8246 115.576 84.8545 115.564C87.5549 115.545 90.2553 115.626 92.9557 115.675C97.1274 115.756 101.299 115.731 105.471 115.75C105.731 115.75 105.998 115.75 106.265 115.731C106.718 115.694 107.172 115.644 107.625 115.595M121.406 106.513C121.474 106.395 121.549 106.283 121.605 106.159C121.847 105.606 122.083 105.048 122.331 104.501C123.026 102.962 123.653 101.397 124.144 99.7771C124.38 98.9949 124.665 98.2251 124.926 97.4491C126.323 93.3396 127.744 89.2424 129.11 85.1266C130.432 81.1226 131.543 77.0503 132.406 72.9221C133.17 69.2905 133.809 65.6341 134.275 61.9466C134.567 59.6746 134.809 57.3963 134.858 55.1056C134.908 52.6411 134.79 50.189 134.244 47.7742C133.648 45.1297 132.586 42.6962 130.904 40.5483C130.774 40.3745 130.643 40.2007 130.519 40.0268C128.8 37.5685 126.546 35.7869 123.79 34.6198C121.4 33.6142 118.904 33.1486 116.322 33.1362C115.745 33.1362 115.155 33.1548 114.59 33.2479C112.995 33.5086 111.424 33.8811 109.891 34.4026C107.842 35.104 105.942 36.0725 104.291 37.4878C103.074 38.5245 101.963 39.6606 100.933 40.8773C100.877 40.9394 100.852 41.0263 100.79 41.1505C101.088 41.1505 101.324 41.1505 101.554 41.1505C102.249 41.1318 102.95 41.0946 103.652 41.0884C104.999 41.0822 106.352 41.0884 107.699 41.0884C108.252 41.0884 108.81 41.0698 109.363 41.0884C111.536 41.1629 113.702 41.2436 115.869 41.3429C116.788 41.3864 117.694 41.5353 118.563 41.8271C120.717 42.5472 122.337 43.9253 123.504 45.8498C126.124 50.1766 125.404 55.745 122.368 59.2959C121.766 59.9974 121.071 60.5933 120.283 61.0713C119.171 61.7418 117.967 62.1453 116.657 62.1763C115.118 62.2074 113.572 62.2508 112.032 62.2446C108.537 62.2322 105.036 62.1887 101.541 62.1639C100.771 62.1639 99.9954 62.1763 99.2256 62.1887C99.0952 62.1887 98.9649 62.2384 98.7911 62.2757C98.8904 62.5053 98.9587 62.6792 99.0394 62.8468C101.64 68.1482 106.979 72.9903 114.503 73.6918C115.459 73.7787 116.421 73.7911 117.39 73.6422C118.104 73.5304 118.824 73.4373 119.55 73.5739C120.58 73.7663 121.232 74.4119 121.35 75.4548C121.406 75.9577 121.437 76.4667 121.437 76.9695C121.437 77.6648 121.387 78.3663 121.387 79.0678C121.387 80.7563 121.406 82.4386 121.431 84.1272C121.487 88.0319 121.518 91.9366 121.356 95.8475C121.257 98.3058 121.226 100.764 121.183 103.222C121.17 104.185 121.214 105.153 121.239 106.115C121.239 106.246 121.189 106.413 121.406 106.506M119.891 94.4694C119.904 94.0162 119.929 93.6562 119.929 93.2961C119.929 91.0054 119.941 88.7147 119.941 86.4241C119.941 83.4133 119.941 80.3963 119.935 77.3793C119.935 76.8516 119.935 76.3177 119.891 75.7901C119.848 75.2562 119.637 75.0575 119.109 75.0389C118.675 75.0265 118.24 75.07 117.812 75.101C117.21 75.1507 116.614 75.2624 116.012 75.2562C114.609 75.2562 113.224 75.1072 111.852 74.803C107.525 73.8284 103.912 71.6432 100.958 68.3531C99.7098 66.9626 98.6793 65.4292 97.8164 63.7717C97.7233 63.5917 97.6799 63.362 97.4191 63.2317C97.3384 63.4489 97.2577 63.6414 97.1894 63.8338C96.7735 65.0692 96.2831 66.2735 95.7182 67.4468C93.8186 71.3887 91.143 74.6292 87.3066 76.833C87.2073 76.8888 87.1266 76.9758 87.0148 77.0627C87.1079 77.2675 87.1824 77.4413 87.2631 77.6152C87.8467 78.8629 88.3433 80.1417 88.7096 81.4702C89.2683 83.4505 89.6035 85.468 89.498 87.5352C89.4483 88.4788 89.2869 89.4038 88.9082 90.2791C88.1757 91.9863 86.8845 92.9795 85.0469 93.2961C84.0537 93.4637 83.0791 93.383 82.0982 93.1968C80.6704 92.9298 79.3171 92.4146 78.0135 91.769C76.5857 91.0613 75.2324 90.2232 73.9039 89.3479C73.6866 89.2052 73.4942 89.0189 73.1962 88.9444C70.5641 92.5884 67.2057 95.3881 63.1085 97.4305C63.3072 97.505 63.4065 97.5671 63.5182 97.5857C65.4861 97.9333 67.4602 98.2437 69.4281 98.6162C73.5687 99.4046 77.6721 100.367 81.7506 101.459C85.6429 102.502 89.4669 103.731 93.2661 105.06C94.1724 105.377 95.0912 105.674 96.0162 105.935C96.9411 106.196 97.8226 106.606 98.7228 106.947C99.0083 107.053 99.3001 107.164 99.6229 107.282C99.7719 107.022 99.9085 106.798 100.033 106.568C101.56 103.756 103.577 101.348 106.11 99.3798C109.872 96.4559 114.124 94.8294 118.892 94.5377C119.202 94.519 119.513 94.488 119.891 94.4508M187.768 138.086V177.226C187.768 179.827 187.768 182.428 187.768 184.973C187.544 185.215 187.321 185.29 187.066 185.284C186.824 185.284 186.582 185.284 186.34 185.284H118.538C118.271 185.284 118.004 185.277 117.737 185.284C117.601 185.29 117.47 185.339 117.321 185.377C117.253 186.463 117.408 187.481 117.756 188.468C118.687 191.131 120.469 192.925 123.231 193.658C124.218 193.919 125.236 193.95 126.248 193.987C127.235 194.024 128.222 194.037 129.209 194.074C129.836 194.092 130.463 194.154 131.09 194.161C133.524 194.173 135.963 194.167 138.397 194.161C138.807 194.161 139.216 194.111 139.626 194.092C140.179 194.074 140.731 194.061 141.284 194.043C141.644 194.03 142.004 194.043 142.364 194.005C142.612 193.981 142.848 193.956 143.065 194.086C143.295 194.223 143.518 194.186 143.76 194.111C143.916 194.068 144.108 194.024 144.245 194.08C144.623 194.229 145.008 194.186 145.387 194.186C162.005 194.186 178.624 194.186 195.242 194.186C195.434 194.186 195.627 194.186 195.819 194.186C195.956 194.186 196.092 194.148 196.272 194.123C196.279 193.776 196.291 193.465 196.291 193.161C196.291 174.513 196.291 155.871 196.291 137.223C196.291 137.005 196.297 136.788 196.285 136.571C196.279 136.465 196.223 136.36 196.179 136.229C195.478 136.484 194.826 136.738 194.162 136.949C193.473 137.167 192.777 137.365 192.07 137.514C191.387 137.663 190.698 137.769 190.002 137.862C189.289 137.955 188.575 138.005 187.761 138.086M53.0891 52.8398C53.2133 52.8087 53.2381 52.8025 53.2629 52.7963C53.2878 52.7963 53.3126 52.7839 53.3312 52.7777C53.3561 52.7777 53.3809 52.7777 53.4057 52.7777C53.4554 52.7777 53.4988 52.7777 53.5485 52.7777H123.151C123.151 52.7777 123.2 52.7777 123.219 52.7777C123.244 52.7777 123.268 52.7777 123.293 52.7777C123.318 52.7777 123.343 52.7777 123.362 52.7715C123.386 52.7715 123.405 52.7529 123.43 52.7467C123.455 52.7404 123.473 52.728 123.517 52.697C123.535 52.5728 123.566 52.4363 123.585 52.2935C123.604 52.101 123.629 51.9086 123.622 51.7162C123.573 50.1828 123.287 48.6992 122.592 47.321C121.897 45.9305 120.922 44.782 119.593 43.9688C118.613 43.3729 117.563 43.0376 116.378 43.0438C92.8129 43.0625 69.2481 43.0563 45.6894 43.0563C45.4473 43.0563 45.2052 43.0563 44.9631 43.0563C44.87 43.0563 44.7831 43.0873 44.6589 43.1059C44.5844 43.4287 44.6092 43.7453 44.6092 44.0495V96.7228C44.6092 96.8966 44.603 97.0642 44.6092 97.2319C44.6154 97.3684 44.6465 97.4988 44.6775 97.6726C45.3976 97.5112 46.0743 97.3374 46.7571 97.2132C47.4462 97.0891 48.1353 96.9898 48.8306 96.9153C49.5258 96.8408 50.2273 96.8097 50.9226 96.7787C51.6117 96.7414 52.3131 96.8159 53.027 96.729C53.1574 96.0772 53.0767 95.4502 53.0891 94.8294C53.1015 94.1776 53.0891 93.5258 53.0891 92.874V64.2932C53.0891 63.6662 53.0891 63.0392 53.0891 62.4122C53.0829 61.7604 53.0581 61.1086 53.0519 60.463C53.0519 59.836 53.0519 59.209 53.0519 58.582V56.701C53.0519 56.0492 53.0519 55.3974 53.0519 54.7456C53.0519 54.1248 53.027 53.504 53.0767 52.8584M143.047 174.358C143.14 174.078 143.189 173.948 143.227 173.811C143.798 171.813 144.499 169.87 145.418 168.001C147.311 164.171 149.956 161.023 153.699 158.869C153.799 158.813 153.885 158.733 153.966 158.671C153.954 158.584 153.954 158.534 153.935 158.497C153.867 158.342 153.799 158.186 153.724 158.037C152.948 156.392 152.358 154.691 151.967 152.916C151.657 151.525 151.464 150.116 151.489 148.688C151.508 147.503 151.675 146.329 152.184 145.237C152.867 143.759 154.003 142.841 155.593 142.481C156.822 142.207 158.038 142.307 159.249 142.574C160.745 142.903 162.142 143.48 163.495 144.188C164.755 144.846 165.966 145.597 167.145 146.385C167.344 146.516 167.543 146.634 167.772 146.77C168.225 146.193 168.641 145.634 169.095 145.1C169.548 144.566 170.02 144.051 170.516 143.555C171.007 143.058 171.522 142.58 172.049 142.127C172.559 141.686 173.092 141.264 173.632 140.86C174.191 140.444 174.769 140.047 175.364 139.675C175.954 139.308 176.575 138.979 177.183 138.632C177.779 138.297 178.444 138.104 179.145 137.707C178.872 137.645 178.717 137.595 178.555 137.57C176.767 137.31 174.973 137.098 173.192 136.782C168.995 136.031 164.842 135.056 160.708 133.995C156.53 132.914 152.42 131.605 148.329 130.239C146.045 129.475 143.779 128.662 141.501 127.874C141.346 127.818 141.19 127.787 140.998 127.731C139.738 130.233 138.118 132.443 136.094 134.342C134.051 136.26 131.736 137.763 129.153 138.843C126.596 139.917 123.92 140.457 121.127 140.606C121.102 140.811 121.077 140.972 121.071 141.14C121.052 142.152 121.034 143.163 121.027 144.182C121.015 147.484 121.009 150.787 121.003 154.095C121.003 156.746 121.102 159.403 120.99 162.054C120.978 162.346 120.99 162.631 121.009 162.923C121.058 163.947 121.201 164.09 122.219 164.059C122.722 164.04 123.225 163.96 123.728 163.916C125.348 163.773 126.962 163.879 128.551 164.177C134.579 165.319 139.26 168.467 142.581 173.631C142.711 173.83 142.842 174.035 143.04 174.352M156.033 69.694C155.878 69.4333 155.76 69.2222 155.636 69.0298C154.016 66.528 151.88 64.585 149.298 63.1137C146.66 61.6052 143.81 60.6492 140.855 60.016C140.7 59.9788 140.532 59.985 140.328 59.9725C140.278 60.2705 140.228 60.525 140.191 60.7796C139.93 62.6667 139.719 64.5601 139.396 66.4349C138.651 70.8114 137.683 75.132 136.621 79.4403C135.541 83.8168 134.207 88.125 132.847 92.4208C132.388 93.8672 131.916 95.3074 131.45 96.7539C131.401 96.9091 131.363 97.0704 131.32 97.2443C138.813 101.67 142.848 108.207 143.407 116.917C143.729 116.942 144.04 116.979 144.35 116.991C145.797 117.072 147.237 117.147 148.683 117.227C150.633 117.339 152.576 117.519 154.531 117.569C156.915 117.625 159.305 117.581 161.689 117.569C162.216 117.569 162.75 117.507 163.278 117.451C163.563 117.42 163.849 117.358 164.122 117.264C164.78 117.047 165.047 116.65 165.028 115.961C165.028 115.793 164.997 115.626 164.973 115.458C164.73 113.993 164.78 112.522 164.96 111.063C165.345 107.953 166.363 105.066 168.064 102.428C170.249 99.0383 173.173 96.4869 176.817 94.7611C177.053 94.6494 177.283 94.5315 177.537 94.4011C177.5 94.2024 177.488 94.0348 177.432 93.8796C177.252 93.4327 177.084 92.9795 176.861 92.5512C175.023 88.9941 172.447 86.0702 169.194 83.7423C169.039 83.6305 168.877 83.5436 168.691 83.4257C168.561 83.5809 168.455 83.7112 168.362 83.8416C167.971 84.3631 167.592 84.8907 167.183 85.3998C166.624 86.095 166.009 86.7407 165.32 87.318C164.762 87.7836 164.159 88.1809 163.47 88.4292C162.204 88.8823 161.049 88.6775 160.031 87.7898C159.404 87.2435 158.926 86.573 158.61 85.8095C158.138 84.6797 158.262 83.5933 158.939 82.5752C159.206 82.1717 159.541 81.8241 159.932 81.5261C161.167 80.5825 162.564 80.1542 164.122 80.2162C165.295 80.2597 166.4 80.5825 167.468 81.0481C167.685 81.1412 167.903 81.2343 168.145 81.3399C168.263 81.1847 168.368 81.0605 168.455 80.9177C169.206 79.6513 169.914 78.3601 170.516 77.0254C171.019 75.9018 171.429 74.7409 171.665 73.5304C171.857 72.531 171.963 71.5315 171.752 70.5196C171.472 69.1477 170.696 68.2227 169.355 67.7882C169.219 67.7447 169.082 67.7013 168.939 67.6702C167.847 67.4095 166.729 67.4468 165.631 67.5895C163.141 67.9186 160.82 68.7628 158.61 69.9485C158.442 70.0354 158.293 70.1472 158.107 70.2589C158.181 70.4638 158.237 70.6438 158.312 70.8176C158.591 71.488 158.802 72.1771 158.914 72.8972C159.206 74.772 158.752 76.4419 157.505 77.8759C156.971 78.4905 156.325 78.9436 155.549 79.1982C153.712 79.7941 151.887 78.8753 151.377 77.0316C150.949 75.4797 151.166 74.0084 152.271 72.7607C152.65 72.3261 153.078 71.9288 153.525 71.5625C154.103 71.0907 154.723 70.6686 155.326 70.2279C155.537 70.0727 155.754 69.9237 156.04 69.7188M71.7498 154.704C71.6257 154.89 71.5325 155.002 71.4642 155.132C70.7876 156.386 70.0985 157.628 69.4529 158.894C68.9501 159.887 68.5838 160.93 68.2921 162.004C67.9817 163.153 67.8265 164.32 67.9258 165.512C68.081 167.343 69.1053 168.553 70.8807 168.988C72.0974 169.286 73.3266 169.236 74.5495 169.062C77.0885 168.709 79.4475 167.833 81.7009 166.635C81.8872 166.536 82.061 166.412 82.2534 166.288C82.1541 166.027 82.0672 165.803 81.9803 165.586C81.6575 164.804 81.434 163.991 81.3471 163.14C81.1484 161.11 81.7878 159.391 83.2529 157.982C83.7123 157.541 84.2523 157.224 84.8545 157.026C86.7169 156.417 88.573 157.311 89.1317 159.161C89.6159 160.781 89.4173 162.327 88.2626 163.637C87.8218 164.14 87.319 164.605 86.7976 165.027C86.1209 165.567 85.3946 166.052 84.6931 166.561C84.5627 166.654 84.451 166.772 84.3455 166.871C84.3951 166.977 84.42 167.045 84.4572 167.107C84.5441 167.25 84.6372 167.393 84.7303 167.535C86.3444 170.031 88.4488 172.011 91.0065 173.52C93.9241 175.239 97.0715 176.326 100.386 176.984C100.492 177.002 100.61 176.996 100.753 177.002C100.784 176.847 100.802 176.729 100.821 176.617C100.927 175.879 101.02 175.14 101.131 174.395C101.634 171.229 102.323 168.1 103.05 164.978C104.533 158.609 106.507 152.382 108.699 146.23C109.493 144.008 110.356 141.81 111.182 139.594C111.269 139.358 111.461 139.128 111.343 138.818C111.157 138.731 110.965 138.638 110.772 138.545C102.534 134.777 97.4998 126.731 97.2888 118.326C97.2826 117.997 97.2888 117.656 97.177 117.283C96.966 117.264 96.7549 117.24 96.5438 117.233C95.6064 117.209 94.6629 117.19 93.7255 117.171C91.0251 117.122 88.3247 117.035 85.6243 117.029C83.4329 117.022 81.2354 117.109 79.044 117.134C77.8148 117.153 76.5857 117.134 75.3565 117.134C75.0462 117.134 74.7296 117.165 74.4192 117.196C74.0653 117.233 73.8232 117.432 73.7984 117.786C73.7736 118.146 73.7798 118.506 73.817 118.866C73.8729 119.493 74.0095 120.108 74.0281 120.735C74.1336 124 73.4756 127.11 72.0602 130.053C69.9868 134.348 66.7898 137.552 62.5498 139.731C62.3201 139.849 62.0967 139.973 61.8918 140.084C61.7987 140.606 61.8483 141.059 62.0284 141.487C62.2891 142.108 62.5312 142.741 62.8354 143.344C63.5803 144.84 64.5363 146.199 65.5979 147.49C67.0567 149.266 68.6894 150.861 70.5827 152.183C70.7938 152.332 70.9987 152.5 71.2656 152.581C71.3898 152.426 71.4891 152.295 71.5884 152.159C72.0726 151.525 72.5382 150.88 73.041 150.265C73.668 149.502 74.3695 148.8 75.1703 148.217C75.6421 147.869 76.1387 147.583 76.685 147.385C77.9825 146.925 79.1557 147.143 80.1924 148.043C80.8567 148.62 81.3595 149.328 81.6885 150.147C81.9803 150.861 82.0548 151.594 81.8437 152.345C81.6264 153.108 81.2043 153.754 80.6146 154.269C79.1744 155.523 77.4858 156.032 75.5924 155.858C74.4999 155.759 73.4694 155.436 72.4699 154.996C72.2526 154.896 72.0354 154.803 71.7684 154.685M115.999 28.0023H118.606C118.793 28.0458 118.973 28.1203 119.159 28.1265C121.027 28.2382 122.84 28.6293 124.597 29.2377C130.407 31.2614 134.753 35.0358 137.726 40.4055C137.888 40.7035 138.049 40.9953 138.229 41.3243H196.98C197.222 41.3243 197.464 41.3243 197.706 41.3243C197.843 41.3243 197.98 41.3491 198.135 41.3677C198.215 41.7154 198.184 42.0258 198.184 42.3361V88.572C198.184 90.186 198.184 91.8062 198.184 93.4203C198.184 93.6562 198.203 93.8921 198.209 94.1342C198.42 94.2645 198.6 94.3763 198.787 94.488C201.617 96.1827 204.02 98.3617 205.907 101.075C208.483 104.781 210.029 108.847 210.11 113.416C210.11 113.701 210.184 113.981 210.221 114.266V115.135C210.178 115.489 210.103 115.849 210.103 116.203C210.11 117.811 209.836 119.375 209.396 120.908C207.626 127.147 203.939 131.896 198.327 135.143C198.141 135.249 197.967 135.366 197.775 135.491V194.552C197.775 194.794 197.781 195.036 197.775 195.278C197.775 195.415 197.725 195.545 197.694 195.725H145.35C145.039 195.725 144.729 195.731 144.425 195.737C144.288 195.961 144.176 196.147 144.065 196.333C142.258 199.4 139.856 201.902 136.888 203.857C133.22 206.278 129.153 207.501 124.789 207.787C122.728 207.923 120.686 207.719 118.681 207.272C111.772 205.744 106.458 201.989 102.932 195.8C102.851 195.657 102.745 195.52 102.64 195.365H43.5912C43.3304 195.365 43.0635 195.365 42.7966 195.365C42.66 195.365 42.5234 195.328 42.3496 195.303C42.3434 194.955 42.331 194.645 42.331 194.335V142.959C42.331 142.717 42.331 142.474 42.331 142.232C42.331 142.071 42.2999 141.91 42.2813 141.742C41.9895 141.605 41.7288 141.487 41.4743 141.363C35.1299 138.303 30.9024 133.43 28.8352 126.694C28.3882 125.235 28.1151 123.745 27.9909 122.225C27.9661 121.92 27.9909 121.591 27.7178 121.362V118.903C27.9661 118.661 27.9661 118.338 27.9909 118.028C28.1089 116.532 28.3696 115.061 28.8103 113.627C31.0017 106.519 35.521 101.49 42.3434 98.5231C42.5855 98.4175 42.8276 98.3182 43.1007 98.2065C43.1007 97.8651 43.1132 97.5547 43.1132 97.2443V42.6776C43.1132 42.4355 43.1007 42.1934 43.1132 41.9513C43.1194 41.8147 43.1752 41.6843 43.2187 41.5105H91.2175C92.0618 41.5105 92.906 41.5105 93.7503 41.5105C94.5884 41.5105 95.4326 41.5291 96.2707 41.4919C96.401 41.2374 96.5066 41.0201 96.6245 40.8152C97.0342 40.1013 97.4067 39.3688 97.8661 38.6922C102.112 32.4409 107.935 28.7969 115.527 28.1202C115.689 28.1078 115.85 28.0395 116.012 27.9961" fill="#E6E7E8"/>
<path fill-rule="evenodd" clip-rule="evenodd" d="M25.3158 148.698C25.3158 148.698 33.1562 139.219 44.3117 134.439C80.7392 118.826 132.618 147.879 210.222 127.281C158.995 149.033 90.6592 120.502 44.8456 136.345C39.4572 138.207 29.742 144.229 25.3096 148.698H25.3158Z" fill="#010101" stroke="#231F20" stroke-width="0.75" stroke-miterlimit="10"/>
<path fill-rule="evenodd" clip-rule="evenodd" d="M203.909 131.906C203.909 131.906 195.981 137.58 185.329 139.653C150.559 146.42 104.776 120.695 31.623 126.381C80.5034 117.007 141.52 144.179 184.968 138.281C190.078 137.586 199.489 134.501 203.902 131.906H203.909Z" fill="#010101" stroke="#231F20" stroke-miterlimit="10"/>
<path fill-rule="evenodd" clip-rule="evenodd" d="M111.045 104.882C111.107 104.969 111.163 105.062 111.194 105.149C111.412 105.745 110.716 107.036 110.66 107.7C110.542 108.718 110.567 109.798 110.505 110.848C110.443 112.443 110.3 113.939 110.362 115.534C110.362 116.224 110.002 116.919 110.747 117.366C112.101 118.204 113.988 117.484 115.409 118.235C115.918 118.142 116.341 118.75 116.005 119.284C115.136 120.19 114.205 121.09 113.1 121.693C112.529 121.984 112.225 122.022 111.623 121.96C111.325 121.929 110.753 121.624 110.487 121.897C110.071 122.295 110.449 124.753 110.393 125.411C110.244 126.702 110.009 127.963 109.884 129.26C109.847 129.8 109.996 130.706 109.953 131.451C106.005 130.731 102.038 130.017 98.0709 129.334L98.0585 129.26C97.9964 128.72 98.7476 127.963 99.3187 128.174C99.7098 125.107 99.1697 122.133 99.0455 119.16C98.3254 118.322 97.0032 118.198 96.0161 117.931C93.3406 117.242 90.6712 116.608 87.9708 116.31C87.6107 116.279 82.868 115.832 82.868 115.832C82.8369 117.906 82.7749 119.979 82.6569 122.046C82.5948 123.102 82.539 124.182 82.3962 125.231C82.3341 125.753 82.2534 126.293 82.1665 126.82C78.6901 126.33 75.2262 125.889 71.7684 125.51C71.7249 122.922 72.9231 120.693 72.8672 118.086V113.579C71.6629 111.866 69.0183 113.728 68.9004 110.997C69.8316 109.674 71.4208 108.358 73.072 108.805C74.0343 109.078 74.8537 108.501 75.7476 108.265C77.61 107.781 79.7082 106.881 81.6326 106.794C82.7749 106.732 83.1722 107.427 83.1349 108.476C83.1039 108.836 82.39 111.326 82.7438 111.475C83.8799 111.959 85.0904 112.17 86.3133 112.344C88.3867 112.673 90.3422 113.337 92.3846 113.759C93.0115 113.877 99.3808 115.348 99.5608 114.51C100.039 112.468 99.7719 110.003 99.4428 108.141C99.3746 107.75 101.088 106.912 101.392 106.757C102.112 106.428 102.863 106.248 103.615 106.099C105.148 105.739 106.712 105.198 108.239 104.925C108.966 104.807 110.518 104.267 111.064 104.869L111.045 104.882Z" fill="#010101"/>
<path fill-rule="evenodd" clip-rule="evenodd" d="M152.203 106.827C153.284 107.007 154.327 107.367 154.637 108.422C154.24 109.471 154.029 111.004 152.924 111.725C152.377 112.06 151.204 111.482 150.664 111.302C148.317 110.495 145.741 110.725 143.277 110.613C141.538 110.551 140.123 110.787 138.534 111.513C137.212 112.14 134.66 112.054 133.307 111.6C132.581 110.855 132.369 110.253 132.103 109.347C133.487 107.547 135.678 107 137.808 106.851C140.328 106.702 142.823 106.522 145.344 106.311C146.964 106.193 148.566 106.404 150.18 106.609C150.72 106.702 151.471 106.733 152.197 106.82L152.203 106.827Z" fill="#010101"/>
<path fill-rule="evenodd" clip-rule="evenodd" d="M160.882 115.121C161 115.177 161.149 115.208 161.273 115.27L160.882 115.121Z" fill="#010101"/>
<path d="M160.882 115.121C161 115.177 161.149 115.208 161.273 115.27" stroke="white" stroke-miterlimit="22.93"/>
<path fill-rule="evenodd" clip-rule="evenodd" d="M158.356 114.369C159.926 114.996 168.419 118.249 169.201 119.776C169.952 121.185 169.201 122.57 168.083 123.501C165.861 125.363 163.099 125.301 160.547 126.356C154.687 128.759 148.74 129.088 142.464 128.157C138.137 127.499 134.052 126.356 130.061 124.525C129.763 127.405 126.46 127.641 124.144 128.094C121.891 128.548 120.482 127.859 120.544 125.338C120.6 123.774 121.208 122.309 121.438 120.775C121.717 118.944 121.562 117.138 121.388 115.282C121.264 114.077 121.14 113.053 122.319 112.426C123.704 111.737 125.529 111.526 127.037 111.284C128.235 111.104 130.334 110.657 131.184 111.886C131.842 112.91 131.091 114.319 130.669 115.282C132.413 115.07 134.003 114.53 135.691 114.046C142.836 112.004 151.186 112.73 158.362 114.375L140.912 117.889C138.571 117.802 136.076 117.976 133.922 119.031C133.431 119.093 132.835 119.031 132.593 119.422C134.996 121.856 138.305 122.874 141.607 123.327C143.32 123.594 145.059 123.718 146.772 123.836C149.417 124.078 152.148 124.109 154.792 123.749C156.897 123.451 158.908 122.874 160.895 122.16C161.373 121.98 163.682 120.658 164.073 120.838C160.74 119.366 157.648 118.59 153.868 118.168C150.919 117.864 147.703 117.417 144.761 117.684C143.469 117.771 142.203 117.92 140.912 117.895L158.362 114.381L158.356 114.369Z" fill="#010101"/>
<path fill-rule="evenodd" clip-rule="evenodd" d="M176.737 106.132C178.991 107.33 182.628 108.174 184.913 106.647C186.322 105.685 186.831 103.915 185.962 102.382C185.447 101.42 184.367 100.942 183.411 100.495C182.324 100.017 180.282 99.7437 179.326 100.644C177.942 101.873 177.284 104.369 179.568 104.847C180.617 105.051 183.082 104.933 182.746 103.282C182.144 102.171 181.759 102.506 180.648 102.953C180.586 102.953 179.717 103.226 179.326 102.295L179.177 102.022C178.966 101.6 180.648 100.911 180.884 100.88C181.548 100.762 182.119 101.06 182.722 101.271C183.771 101.662 185.304 102.053 185.273 103.462C185.242 104.337 183.833 105.685 183.144 106.076C182.275 106.585 181.182 106.703 180.17 106.492C178.668 106.163 176.148 104.871 175.694 103.22C175.514 102.562 176.712 100.936 177.197 100.513C177.861 99.9486 178.73 99.6754 179.574 99.4892C182.281 98.9181 185.31 99.5513 187.62 101.054C189.004 101.923 190.022 103.003 189.426 104.747C188.47 107.628 183.988 108.503 181.468 108.59C179.692 108.652 177.923 108.354 176.216 107.87C174.614 107.448 172.609 106.547 172.181 104.747C171.101 100.035 176.955 97.5399 180.505 96.6398C181.672 96.3108 182.995 96.2487 184.168 95.8576C184.832 95.6465 185.819 96.2797 185.583 96.9998C185.583 97.0557 185.546 97.1178 185.515 97.1737C185.074 97.9558 183.628 98.0179 182.815 98.08C181.499 98.1669 180.17 98.3221 178.91 98.7442C176.899 99.4023 174.285 100.396 174.465 102.947C174.589 104.387 175.521 105.467 176.75 106.132H176.737Z" fill="#010101"/>
<path fill-rule="evenodd" clip-rule="evenodd" d="M185.993 109.26C186.626 109.527 185.906 111.632 185.813 112.048C185.453 113.761 185.49 115.623 185.397 117.392C185.366 118.504 185.242 119.584 185.211 120.695C185.18 121.508 185.273 124.463 185.335 125.245C185.397 125.965 185.726 126.81 185.397 127.505C185.068 128.25 184.162 128.585 183.498 129.032C181.853 130.174 180.201 131.255 178.19 130.087C176.986 129.603 175.93 131.143 174.999 129.814C174.496 129.094 175.061 127.021 175.154 126.214C175.452 123.445 175.216 118.777 174.881 116.045C174.8 115.356 174.881 114.661 174.856 113.978C174.825 113.314 174.639 112.687 174.521 112.054C174.347 110.825 174.589 109.924 175.936 109.651C176.414 109.564 177.079 109.322 177.532 109.502C177.979 109.689 178.215 110.073 178.73 110.198C179.754 110.434 180.928 110.16 181.915 109.924C183.032 109.111 184.621 108.664 185.999 109.266L185.993 109.26Z" fill="#010101"/>
<path fill-rule="evenodd" clip-rule="evenodd" d="M50.6435 106.132C52.897 107.33 56.5347 108.174 58.8192 106.647C60.2284 105.685 60.7374 103.915 59.8683 102.382C59.3531 101.42 58.2729 100.942 57.3169 100.495C56.2306 100.017 54.1882 99.7437 53.2322 100.644C51.8478 101.873 51.1898 104.369 53.4743 104.847C54.5234 105.051 56.9879 104.933 56.6527 103.282C56.0505 102.171 55.6657 102.506 54.5545 102.953C54.4924 102.953 53.6233 103.226 53.2322 102.295L53.0832 102.022C52.8721 101.6 54.5545 100.911 54.7903 100.88C55.4546 100.762 56.0257 101.06 56.6279 101.271C57.677 101.662 59.2103 102.053 59.1793 103.462C59.1482 104.337 57.7391 105.685 57.05 106.076C56.1809 106.585 55.0883 106.703 54.0765 106.492C52.5742 106.163 50.0538 104.871 49.6006 103.22C49.4206 102.562 50.6187 100.936 51.1029 100.513C51.7671 99.9486 52.6362 99.6754 53.4805 99.4892C56.1871 98.9181 59.2165 99.5513 61.5258 101.054C62.9102 101.923 63.9283 103.003 63.3323 104.747C62.3763 107.628 57.8943 108.503 55.3739 108.59C53.5985 108.652 51.8292 108.354 50.1221 107.87C48.5205 107.448 46.5153 106.547 46.087 104.747C45.0068 100.035 50.8608 97.5399 54.4117 96.6398C55.5787 96.3108 56.901 96.2487 58.0743 95.8576C58.7385 95.6465 59.7256 96.2797 59.4897 96.9998C59.4897 97.0557 59.4524 97.1178 59.4214 97.1737C58.9744 97.9558 57.5342 98.0179 56.721 98.08C55.4049 98.1669 54.0765 98.3221 52.8163 98.7442C50.8049 99.4023 48.1914 100.396 48.3715 102.947C48.4956 104.387 49.4268 105.467 50.6559 106.132H50.6435Z" fill="#010101"/>
<path fill-rule="evenodd" clip-rule="evenodd" d="M59.8935 109.259C60.5267 109.526 59.8066 111.63 59.7135 112.046C59.3535 113.759 59.3907 115.622 59.2976 117.391C59.2665 118.502 59.1486 119.582 59.1114 120.693C59.0803 121.507 59.1734 122.32 59.2355 123.096C59.2728 123.524 59.4031 123.996 59.4342 124.449C55.9516 124.238 52.4876 124.108 49.0547 124.083V124.058C49.3527 121.289 49.1168 118.763 48.7815 116.038C48.7008 115.348 48.7815 114.653 48.7567 113.97C48.7257 113.306 48.5394 112.679 48.4215 112.046C48.2477 110.817 48.4898 109.917 49.8369 109.644C50.3149 109.557 50.9791 109.315 51.4323 109.495C51.873 109.681 52.1151 110.066 52.6304 110.19C53.6547 110.426 54.828 110.153 55.815 109.917C56.9324 109.103 58.5216 108.656 59.8997 109.259H59.8935Z" fill="#010101"/>
<path fill-rule="evenodd" clip-rule="evenodd" d="M60.7184 144.858V145.721C60.7184 145.907 60.7184 146.013 60.706 146.038C60.6749 146.15 60.5942 146.205 60.4639 146.205C60.3646 146.205 60.2901 146.174 60.2404 146.119C60.1969 146.063 60.1535 145.976 60.1224 145.864C59.9797 145.442 59.8121 145.125 59.6258 144.914C59.3713 144.629 59.0485 144.48 58.6636 144.48C58.2974 144.48 57.9683 144.585 57.6704 144.79C57.3724 144.995 57.2234 145.274 57.2234 145.622C57.2234 145.92 57.3476 146.162 57.6021 146.361C57.7821 146.497 58.0428 146.621 58.3905 146.727L59.0361 146.944C59.7562 147.174 60.2963 147.459 60.6501 147.807C61.0909 148.229 61.3081 148.788 61.3081 149.471C61.3081 149.868 61.2212 150.241 61.0412 150.582C60.8612 150.923 60.6129 151.228 60.2963 151.494C59.9797 151.761 59.6196 151.954 59.2223 152.078C58.825 152.202 58.4029 152.264 57.9497 152.264C57.5959 152.264 57.2172 152.227 56.8137 152.159C56.4102 152.084 56.075 151.985 55.8018 151.848C55.6466 151.774 55.5473 151.687 55.5038 151.6C55.4604 151.513 55.4355 151.389 55.4355 151.24V150.172C55.4355 150.017 55.4542 149.899 55.4852 149.812C55.5162 149.725 55.5845 149.682 55.6901 149.682C55.8142 149.682 55.9198 149.756 55.9943 149.899C56.0191 149.949 56.0687 150.092 56.137 150.334C56.2053 150.57 56.2612 150.737 56.3046 150.843C56.3791 151.029 56.4971 151.197 56.6523 151.352C56.8075 151.507 56.9999 151.619 57.2234 151.687C57.4469 151.761 57.689 151.792 57.9559 151.792C58.4029 151.792 58.794 151.681 59.123 151.463C59.4955 151.215 59.6817 150.88 59.6817 150.445C59.6817 150.011 59.4644 149.632 59.0361 149.353C58.8871 149.253 58.4712 149.067 57.7945 148.794C57.093 148.496 56.5902 148.229 56.2984 147.993C55.808 147.596 55.5597 147.106 55.5597 146.534C55.5597 145.758 55.926 145.119 56.6647 144.629C57.3165 144.188 58.049 143.971 58.8623 143.971C59.0982 143.971 59.3899 144.002 59.7314 144.064C60.0728 144.126 60.3335 144.207 60.5135 144.3C60.588 144.343 60.6439 144.393 60.6749 144.455C60.706 144.511 60.7184 144.591 60.7184 144.697V144.877V144.858ZM72.2215 145.901V150.408C72.2215 150.868 72.2401 151.141 72.2836 151.234C72.3705 151.414 72.594 151.532 72.9726 151.588C73.1092 151.606 73.2085 151.631 73.2768 151.662C73.3451 151.693 73.3761 151.768 73.3761 151.879C73.3761 152.041 73.2768 152.121 73.072 152.121C72.8423 152.121 72.4698 152.115 71.9483 152.097C71.4269 152.078 71.1475 152.072 71.1165 152.072C70.9054 152.072 70.5516 152.078 70.0612 152.097C69.5707 152.115 69.31 152.121 69.2852 152.121C69.0803 152.121 68.981 152.041 68.981 151.879C68.981 151.786 69.012 151.718 69.0741 151.675C69.1362 151.631 69.2231 151.6 69.3224 151.588C69.7135 151.519 69.9494 151.408 70.0363 151.259C70.0922 151.147 70.1232 150.868 70.1232 150.408V145.585C70.1232 145.28 70.0922 145.069 70.0239 144.964C69.9308 144.809 69.7632 144.716 69.5273 144.678C69.2914 144.641 69.161 144.616 69.1362 144.61C69.0369 144.567 68.981 144.498 68.981 144.405C68.981 144.244 69.0803 144.163 69.2852 144.163C69.5149 144.163 69.8873 144.169 70.4088 144.188C70.9303 144.207 71.2096 144.213 71.2406 144.213C71.4517 144.213 71.8056 144.207 72.296 144.188C72.7864 144.169 73.0409 144.163 73.0595 144.163C73.2706 144.163 73.3761 144.244 73.3761 144.405C73.3761 144.492 73.3451 144.548 73.2892 144.585C73.2334 144.616 73.1402 144.647 73.0223 144.66C72.6684 144.722 72.445 144.809 72.3581 144.933C72.2711 145.057 72.2277 145.28 72.2277 145.609V145.901H72.2215ZM87.8838 149.073V145.988C87.8838 145.796 87.8776 145.622 87.8652 145.467C87.8528 145.312 87.8217 145.187 87.7845 145.088C87.7162 144.945 87.6293 144.84 87.5237 144.784C87.4182 144.728 87.2754 144.685 87.0954 144.66C86.9837 144.66 86.8781 144.66 86.7788 144.647C86.6671 144.622 86.6112 144.548 86.6112 144.43C86.6112 144.318 86.6547 144.25 86.7416 144.213C86.8285 144.182 86.9402 144.163 87.0768 144.163H89.324C89.442 144.163 89.5289 144.175 89.5909 144.207C89.653 144.238 89.6779 144.306 89.6779 144.418C89.6779 144.56 89.5972 144.635 89.4295 144.647C89.2619 144.653 89.1316 144.66 89.0322 144.66C88.815 144.685 88.6722 144.771 88.6039 144.92C88.5356 145.069 88.5108 145.28 88.5108 145.547V152.103C88.5108 152.227 88.4922 152.32 88.4487 152.37C88.4053 152.419 88.3059 152.444 88.1445 152.444C88.0017 152.444 87.8714 152.395 87.7659 152.295C87.741 152.27 87.6479 152.153 87.4865 151.954L82.4706 145.69V149.88C82.4706 150.092 82.4706 150.315 82.4768 150.545C82.4768 150.774 82.5078 150.973 82.5637 151.134C82.6196 151.296 82.7065 151.414 82.8244 151.482C82.9424 151.557 83.0976 151.588 83.2962 151.588C83.4576 151.588 83.588 151.6 83.6811 151.631C83.7804 151.662 83.8239 151.737 83.8239 151.855C83.8239 151.954 83.7929 152.028 83.7246 152.066C83.6563 152.103 83.5632 152.121 83.4452 152.121C83.3086 152.121 83.0852 152.115 82.7686 152.097C82.452 152.078 82.2781 152.072 82.2533 152.072C82.1105 152.072 81.8746 152.078 81.5456 152.097C81.2166 152.115 81.0552 152.121 81.0428 152.121C80.9559 152.121 80.8814 152.109 80.8069 152.084C80.7324 152.059 80.7014 151.985 80.7014 151.855C80.7014 151.724 80.7448 151.65 80.8317 151.625C80.9186 151.6 81.049 151.588 81.2166 151.588C81.4773 151.588 81.6574 151.463 81.7505 151.209C81.7939 151.097 81.825 150.93 81.8374 150.706C81.856 150.483 81.8622 150.265 81.8622 150.067V145.572C81.8622 145.2 81.8188 144.951 81.7194 144.834C81.6263 144.716 81.4773 144.653 81.2725 144.653C81.1111 144.653 80.9869 144.641 80.9062 144.616C80.8193 144.591 80.7821 144.517 80.7821 144.387C80.7821 144.287 80.8193 144.219 80.8876 144.194C80.9621 144.169 81.0676 144.157 81.2104 144.157H83.4452C83.6935 144.157 83.8363 144.169 83.8922 144.2C83.9418 144.231 84.0598 144.356 84.2336 144.573L87.8652 149.067L87.8838 149.073ZM105.011 150.334L104.974 150.868C104.974 151.079 104.974 151.209 104.961 151.246C104.93 151.395 104.794 151.544 104.57 151.681C104.229 151.886 103.857 152.035 103.447 152.128C103.037 152.221 102.596 152.27 102.131 152.27C101.504 152.27 100.926 152.202 100.393 152.066C99.7656 151.904 99.2317 151.662 98.7909 151.327C98.3005 150.961 97.9094 150.501 97.6176 149.936C97.3259 149.371 97.1769 148.788 97.1769 148.18C97.1769 147.571 97.3259 146.975 97.6176 146.429C97.9094 145.876 98.3067 145.411 98.8158 145.032C99.2876 144.685 99.8463 144.418 100.486 144.238C101.125 144.058 101.758 143.964 102.385 143.964C103.012 143.964 103.664 144.051 104.291 144.231C104.452 144.281 104.552 144.331 104.589 144.38C104.626 144.424 104.664 144.548 104.695 144.74L104.794 145.386C104.813 145.485 104.825 145.566 104.831 145.616C104.837 145.665 104.844 145.715 104.844 145.758C104.844 145.901 104.763 145.976 104.601 145.976C104.502 145.976 104.254 145.721 103.857 145.218C103.465 144.716 102.932 144.461 102.261 144.461C101.858 144.461 101.466 144.567 101.1 144.771C100.734 144.976 100.424 145.249 100.181 145.591C99.9332 145.932 99.7531 146.317 99.6414 146.752C99.5297 147.186 99.4676 147.627 99.4676 148.068C99.4676 148.509 99.5172 148.956 99.6166 149.365C99.7159 149.769 99.8835 150.16 100.126 150.532C100.368 150.905 100.672 151.203 101.038 151.432C101.404 151.662 101.814 151.774 102.261 151.774C102.745 151.774 103.186 151.612 103.596 151.29C103.763 151.147 103.925 150.967 104.068 150.756C104.167 150.601 104.291 150.39 104.434 150.123C104.477 150.029 104.521 149.961 104.558 149.918C104.601 149.874 104.664 149.856 104.75 149.856C104.868 149.856 104.943 149.899 104.968 149.98C104.993 150.067 105.005 150.185 105.005 150.334H105.011ZM115.844 145.467V147.031C115.844 147.279 115.862 147.435 115.9 147.515C115.937 147.59 116.061 147.627 116.26 147.627H116.502C116.645 147.627 116.787 147.627 116.924 147.621C117.061 147.621 117.203 147.602 117.352 147.577C117.501 147.553 117.619 147.478 117.712 147.36C117.805 147.242 117.88 147.087 117.942 146.901C117.973 146.783 118.023 146.683 118.079 146.603C118.134 146.522 118.209 146.479 118.315 146.479C118.408 146.479 118.476 146.503 118.513 146.559C118.55 146.615 118.569 146.696 118.569 146.808L118.519 147.9C118.519 148.018 118.526 148.198 118.544 148.446C118.563 148.695 118.569 148.875 118.569 148.993C118.569 149.092 118.55 149.179 118.513 149.247C118.476 149.316 118.408 149.347 118.302 149.347C118.159 149.347 117.998 149.142 117.818 148.738C117.638 148.335 117.296 148.13 116.787 148.13H116.241C116.055 148.13 115.943 148.167 115.906 148.235C115.869 148.31 115.85 148.453 115.85 148.676V150.172C115.85 150.421 115.862 150.625 115.887 150.793C115.912 150.961 115.974 151.11 116.073 151.24C116.173 151.37 116.303 151.463 116.471 151.519C116.638 151.575 116.831 151.6 117.042 151.6C117.514 151.6 117.923 151.507 118.265 151.321C118.606 151.134 118.879 150.843 119.084 150.445C119.134 150.321 119.184 150.228 119.239 150.166C119.326 150.054 119.419 149.998 119.519 149.998C119.705 149.998 119.798 150.098 119.798 150.29C119.798 150.34 119.786 150.439 119.755 150.582C119.724 150.725 119.705 150.818 119.699 150.861L119.556 151.879C119.556 152.028 119.488 152.109 119.351 152.109C119.028 152.109 118.495 152.103 117.737 152.084C116.986 152.066 116.583 152.059 116.533 152.059C116.111 152.059 115.409 152.066 114.428 152.084C113.448 152.103 112.932 152.109 112.87 152.109C112.665 152.109 112.566 152.035 112.566 151.879C112.566 151.792 112.597 151.724 112.665 151.675C112.734 151.625 112.814 151.588 112.908 151.575C113.305 151.507 113.553 151.395 113.646 151.234C113.715 151.116 113.746 150.843 113.746 150.421V145.914C113.746 145.454 113.721 145.169 113.671 145.051C113.578 144.84 113.348 144.703 112.976 144.647C112.864 144.629 112.771 144.61 112.69 144.579C112.61 144.548 112.572 144.511 112.572 144.461C112.572 144.256 112.672 144.157 112.876 144.157C113.137 144.157 113.572 144.163 114.174 144.182C114.776 144.2 115.099 144.207 115.142 144.207C115.608 144.207 116.365 144.2 117.421 144.182C118.476 144.163 119.041 144.157 119.115 144.157C119.202 144.157 119.258 144.182 119.289 144.225C119.32 144.269 119.333 144.331 119.333 144.411V145.771C119.333 145.858 119.314 145.92 119.283 145.963C119.252 146.007 119.184 146.025 119.078 146.025C118.991 146.025 118.923 145.994 118.867 145.939C118.811 145.876 118.755 145.796 118.687 145.69C118.625 145.585 118.538 145.473 118.426 145.349C118.315 145.225 118.203 145.119 118.091 145.02C117.979 144.92 117.837 144.858 117.681 144.821C117.52 144.79 117.327 144.771 117.098 144.771C116.868 144.771 116.657 144.771 116.446 144.79C116.229 144.802 116.086 144.827 116.005 144.871C115.931 144.914 115.887 144.983 115.869 145.088C115.856 145.187 115.85 145.318 115.85 145.467H115.844ZM139.198 144.449V150.309C139.198 150.489 139.198 150.681 139.198 150.886C139.198 151.091 139.235 151.246 139.303 151.339C139.371 151.439 139.465 151.501 139.582 151.526C139.7 151.55 139.856 151.563 140.054 151.563C140.253 151.563 140.402 151.575 140.52 151.606C140.632 151.637 140.694 151.724 140.694 151.861C140.694 151.973 140.644 152.047 140.545 152.084C140.445 152.121 140.34 152.146 140.222 152.146C140.054 152.146 139.887 152.14 139.731 152.121C139.576 152.103 139.384 152.09 139.167 152.072L137.819 152.035L136.882 152.072L135.994 152.109C135.87 152.109 135.771 152.097 135.696 152.066C135.622 152.035 135.591 151.96 135.591 151.842C135.591 151.706 135.647 151.625 135.752 151.6C135.858 151.575 136.007 151.563 136.193 151.563C136.379 151.563 136.541 151.557 136.652 151.544C136.764 151.532 136.863 151.495 136.963 151.439C137.062 151.377 137.13 151.302 137.18 151.209C137.224 151.116 137.248 150.961 137.248 150.75V145.721C137.248 145.566 137.242 145.467 137.224 145.417C137.217 145.28 137.137 145.212 136.981 145.212C136.913 145.212 136.801 145.237 136.652 145.287L136.119 145.454C136.001 145.485 135.895 145.516 135.796 145.541C135.696 145.566 135.609 145.578 135.535 145.578C135.349 145.578 135.256 145.504 135.256 145.361C135.256 145.218 135.361 145.1 135.572 145.007C135.597 145.001 135.765 144.951 136.081 144.865C136.597 144.74 137.05 144.616 137.441 144.498C137.956 144.337 138.397 144.163 138.763 143.977C138.85 143.927 138.924 143.902 138.993 143.902C139.092 143.902 139.154 143.958 139.179 144.07C139.198 144.182 139.21 144.306 139.21 144.449H139.198ZM149.54 153.493C149.378 153.493 149.298 153.407 149.298 153.239C149.298 153.146 149.354 153.071 149.465 153.009C149.496 152.991 149.596 152.96 149.757 152.91C150.85 152.544 151.744 151.861 152.439 150.861C153.134 149.856 153.482 148.769 153.482 147.59C153.482 146.888 153.345 146.255 153.078 145.684C152.923 145.343 152.762 145.076 152.582 144.883C152.327 144.604 152.054 144.461 151.756 144.461C151.601 144.461 151.464 144.498 151.334 144.567C151.21 144.641 151.092 144.747 150.986 144.883C150.881 145.02 150.806 145.194 150.757 145.398C150.707 145.603 150.688 145.814 150.688 146.044C150.688 146.342 150.726 146.646 150.806 146.963C150.887 147.279 150.999 147.565 151.141 147.813C151.284 148.062 151.439 148.254 151.601 148.391C151.812 148.577 152.035 148.67 152.271 148.67C152.333 148.67 152.414 148.658 152.526 148.626C152.638 148.595 152.712 148.583 152.755 148.583C152.855 148.583 152.911 148.645 152.911 148.763C152.911 148.968 152.693 149.123 152.265 149.235C151.967 149.309 151.682 149.347 151.402 149.347C150.757 149.347 150.21 149.098 149.751 148.595C149.292 148.099 149.068 147.521 149.068 146.87C149.068 146.056 149.366 145.367 149.956 144.802C150.545 144.238 151.253 143.952 152.066 143.952C153.016 143.952 153.805 144.306 154.432 145.007C155.034 145.684 155.332 146.503 155.332 147.459C155.332 148.229 155.158 148.962 154.816 149.651C154.475 150.34 153.997 150.961 153.389 151.513C152.811 152.041 152.166 152.475 151.446 152.823C151.228 152.935 150.912 153.065 150.508 153.214C150.024 153.4 149.707 153.493 149.558 153.493H149.54ZM166.45 152.264C165.674 152.264 164.991 152.115 164.42 151.817C163.681 151.439 163.315 150.892 163.315 150.191C163.315 149.918 163.358 149.682 163.439 149.471C163.526 149.266 163.669 149.073 163.874 148.906C164.159 148.658 164.494 148.49 164.867 148.384C164.917 148.366 164.96 148.353 165.003 148.335C165.041 148.316 165.059 148.291 165.059 148.26C165.059 148.242 165.035 148.223 164.991 148.198C164.948 148.173 164.904 148.148 164.873 148.124C164.476 147.937 164.165 147.683 163.948 147.36C163.731 147.037 163.619 146.665 163.619 146.243C163.619 145.56 163.917 144.995 164.519 144.554C164.799 144.349 165.121 144.2 165.5 144.107C165.873 144.014 166.257 143.964 166.655 143.964C166.996 143.964 167.3 143.989 167.574 144.033C167.847 144.076 168.126 144.175 168.405 144.318C168.685 144.461 168.927 144.666 169.125 144.92C169.324 145.181 169.423 145.467 169.423 145.79C169.423 146.137 169.312 146.429 169.088 146.671C168.865 146.913 168.573 147.081 168.219 147.186C168.151 147.211 168.089 147.236 168.033 147.255C167.977 147.273 167.952 147.298 167.952 147.323C167.952 147.354 167.989 147.391 168.058 147.428C168.132 147.466 168.194 147.497 168.256 147.522C168.722 147.726 169.094 148.018 169.38 148.403C169.666 148.788 169.808 149.229 169.808 149.719C169.808 150.092 169.703 150.445 169.492 150.787C169.281 151.128 169.001 151.408 168.666 151.637C168.381 151.83 168.033 151.985 167.636 152.09C167.238 152.196 166.847 152.252 166.469 152.252L166.45 152.264ZM166.586 151.78C166.934 151.78 167.263 151.65 167.574 151.395C167.884 151.134 168.039 150.836 168.039 150.489C168.039 150.123 167.909 149.806 167.648 149.539C167.443 149.328 167.145 149.129 166.748 148.943C166.611 148.875 166.444 148.8 166.239 148.713C165.953 148.595 165.773 148.533 165.705 148.533C165.655 148.533 165.581 148.577 165.488 148.658C165.438 148.707 165.376 148.769 165.308 148.85C165.19 149.005 165.103 149.179 165.047 149.378C164.991 149.576 164.966 149.787 164.966 150.017C164.966 150.514 165.115 150.936 165.413 151.277C165.711 151.619 166.102 151.786 166.593 151.786L166.586 151.78ZM167.325 147.093C167.369 147.093 167.418 147.062 167.474 147.006C167.53 146.95 167.567 146.907 167.58 146.895C167.797 146.609 167.909 146.305 167.909 145.994C167.909 145.554 167.791 145.187 167.555 144.889C167.294 144.567 166.947 144.405 166.512 144.405C166.171 144.405 165.873 144.511 165.618 144.716C165.357 144.92 165.233 145.194 165.233 145.535C165.233 145.907 165.469 146.23 165.935 146.516C166.071 146.59 166.469 146.764 167.127 147.037L167.331 147.099L167.325 147.093ZM179.71 152.277L181.945 147.373C182.013 147.248 182.106 147.025 182.224 146.714C182.342 146.398 182.404 146.199 182.404 146.119C182.404 146.025 182.336 145.976 182.199 145.976H182.063L178.102 146.013H177.897C177.798 146.013 177.73 145.988 177.692 145.939C177.661 145.889 177.643 145.783 177.643 145.622L177.618 144.405V144.138C177.643 144.045 177.711 143.995 177.823 143.995L178.189 144.033L179.952 144.157H184.055C184.142 144.163 184.179 144.207 184.179 144.281C184.179 144.343 184.148 144.442 184.08 144.579C184.012 144.722 183.968 144.809 183.956 144.84L181.616 149.645L180.449 152.246C180.399 152.37 180.368 152.451 180.362 152.475C180.331 152.55 180.287 152.624 180.237 152.693C180.219 152.717 180.182 152.73 180.12 152.736C180.057 152.736 180.014 152.742 179.989 152.742H179.79C179.654 152.742 179.586 152.711 179.586 152.655C179.586 152.612 179.598 152.556 179.629 152.475C179.66 152.401 179.691 152.333 179.722 152.27L179.71 152.277Z" fill="#010101"/>
</svg>
