<?xml version="1.0" encoding="UTF-8"?>
<svg id="Layer_1" data-name="Layer 1" xmlns="http://www.w3.org/2000/svg" viewBox="0 0 74.91 73.58">
  <defs>
    <style>
      .cls-1 {
        stroke-width: 3px;
      }

      .cls-1, .cls-2 {
        stroke-linecap: round;
      }

      .cls-1, .cls-2, .cls-3 {
        fill: none;
        stroke: #231f20;
        stroke-linejoin: round;
      }

      .cls-2 {
        stroke-width: 3px;
      }

      .cls-4 {
        fill: #fff;
      }

      .cls-3 {
        stroke-width: 3px;
      }
    </style>
  </defs>
  <path class="cls-3" d="M38.8,2.33c-1.11-1.11-2.9-1.11-4.01,0L2.33,34.79c-1.11,1.11-1.11,2.9,0,4.01l32.46,32.46c1.11,1.11,2.9,1.11,4.01,0l32.46-32.46c1.11-1.11,1.11-2.9,0-4.01L38.8,2.33h0ZM16.42,21.21l13.58,13.58c1.11,1.11,1.11,2.9,0,4.01l-13.58,13.58M52.38,16.42l-13.58,13.58c-1.11,1.11-2.9,1.11-4.01,0l-13.58-13.58M57.16,52.38l-13.58-13.58c-1.11-1.11-1.11-2.9,0-4.01l13.58-13.58M21.21,57.16l13.58-13.58c1.11-1.11,2.9-1.11,4.01,0l13.58,13.58"/>
  <polygon class="cls-4" points="53.45 2.89 72.44 13.24 53.45 23.58 53.45 2.89 53.45 2.89"/>
  <line class="cls-2" x1="53.42" y1="1.56" x2="53.42" y2="40.61"/>
  <line class="cls-1" x1="53.42" y1="1.6" x2="73.41" y2="13.14"/>
  <line class="cls-1" x1="53.42" y1="24.63" x2="73.41" y2="13.1"/>
</svg>