<svg width="101" height="101" viewBox="0 0 101 101" fill="none" xmlns="http://www.w3.org/2000/svg">
<path fill-rule="evenodd" clip-rule="evenodd" d="M69.8001 59.3998H69.7841C69.527 59.397 69.2749 59.3282 69.052 59.2C68.8291 59.0718 68.6429 58.8886 68.5111 58.6678L54.2531 34.7228C54.2134 34.6563 54.179 34.5867 54.1501 34.5148C52.3714 31.5947 51.4317 28.241 51.4341 24.8218C51.4521 14.5108 59.8481 6.13284 70.1541 6.13284H70.1771C72.636 6.12898 75.0712 6.61323 77.3415 7.55752C79.6119 8.50181 81.6722 9.88735 83.4031 11.6338C85.1417 13.3706 86.5187 15.4348 87.4547 17.707C88.3907 19.9792 88.867 22.4144 88.8561 24.8718C88.8561 28.2498 87.9221 31.5768 86.1521 34.5138C86.1174 34.6107 86.0725 34.7035 86.0181 34.7908L71.0731 58.6958C70.9375 58.911 70.7497 59.0884 70.5271 59.2115C70.3045 59.3346 70.0544 59.3994 69.8001 59.3998ZM56.9691 33.4198L69.8311 55.0208L83.3071 33.4658C83.3411 33.3738 83.3841 33.2838 83.4371 33.1988C85.0191 30.6718 85.8551 27.7918 85.8551 24.8708V24.8688C85.8648 22.8049 85.4652 20.7595 84.6794 18.851C83.8936 16.9424 82.7372 15.2086 81.2771 13.7498C79.8236 12.284 78.0938 11.1211 76.1877 10.3284C74.2817 9.53568 72.2374 9.12898 70.1731 9.13184H70.1531C61.4981 9.13184 54.4481 16.1668 54.4341 24.8238C54.4341 27.7778 55.2651 30.6598 56.8361 33.1558C56.8901 33.2388 56.9341 33.3278 56.9691 33.4198Z" fill="black"/>
<path fill-rule="evenodd" clip-rule="evenodd" d="M70.1589 31.8547H70.1429C69.1028 31.8571 68.0726 31.653 67.112 31.2543C66.1514 30.8555 65.2795 30.27 64.5469 29.5317C63.8087 28.7963 63.224 27.9216 62.8266 26.9584C62.4292 25.9952 62.227 24.9626 62.2319 23.9207C62.2304 22.8809 62.4352 21.8511 62.8345 20.8911C63.2338 19.931 63.8195 19.0597 64.5579 18.3277C65.2918 17.5922 66.1641 17.0092 67.1243 16.6124C68.0846 16.2156 69.1139 16.0128 70.1529 16.0157H70.1609C74.5259 16.0207 78.0749 19.5787 78.0709 23.9477C78.0727 24.9881 77.8681 26.0185 77.4688 26.9792C77.0695 27.94 76.4836 28.812 75.7449 29.5447C75.0123 30.2792 74.1415 30.8615 73.1828 31.258C72.2241 31.6544 71.1964 31.8572 70.1589 31.8547ZM70.1519 19.0157C69.5064 19.0139 68.8668 19.1399 68.2702 19.3866C67.6736 19.6332 67.1318 19.9955 66.6759 20.4527C66.2174 20.9072 65.8536 21.4482 65.6057 22.0444C65.3579 22.6406 65.2308 23.28 65.2319 23.9257C65.2291 24.5732 65.3549 25.2148 65.6019 25.8134C65.8489 26.412 66.2123 26.9556 66.6709 27.4127C67.1258 27.8711 67.6673 28.2346 68.2638 28.4822C68.8603 28.7297 69.5001 28.8563 70.1459 28.8547H70.1559C70.8005 28.8566 71.4391 28.7309 72.0348 28.4848C72.6306 28.2386 73.1717 27.877 73.6269 27.4207C74.0856 26.9658 74.4495 26.4245 74.6973 25.8279C74.9452 25.2314 75.0722 24.5916 75.0709 23.9457C75.0709 22.641 74.5537 21.3896 73.6326 20.4656C72.7114 19.5417 71.4616 19.0206 70.1569 19.0167L70.1519 19.0157ZM94.6489 80.6837H4.79092C4.54279 80.6836 4.29853 80.6221 4.08004 80.5045C3.86155 80.3868 3.67565 80.2169 3.53899 80.0098C3.40234 79.8026 3.3192 79.5649 3.29702 79.3177C3.27484 79.0706 3.31432 78.8218 3.41192 78.5937L19.7569 40.3517C19.8724 40.0815 20.0646 39.8512 20.3097 39.6893C20.5549 39.5273 20.8421 39.4409 21.1359 39.4407H59.7039C60.1017 39.4407 60.4833 39.5987 60.7646 39.88C61.0459 40.1613 61.2039 40.5428 61.2039 40.9407C61.2039 41.3385 61.0459 41.72 60.7646 42.0013C60.4833 42.2826 60.1017 42.4407 59.7039 42.4407H22.1259L7.06292 77.6827H92.3759L77.7779 43.5327C77.7005 43.3515 77.6595 43.1569 77.6573 42.9599C77.6551 42.7629 77.6918 42.5674 77.7651 42.3845C77.8385 42.2017 77.9471 42.0351 78.0849 41.8943C78.2226 41.7534 78.3868 41.6411 78.5679 41.5637C78.7491 41.4862 78.9437 41.4453 79.1407 41.4431C79.3377 41.4409 79.5332 41.4775 79.716 41.5509C79.8989 41.6242 80.0655 41.7329 80.2063 41.8706C80.3472 42.0084 80.4595 42.1725 80.5369 42.3537L96.0279 78.5927C96.1252 78.8209 96.1644 79.0696 96.1421 79.3167C96.1198 79.5638 96.0367 79.8015 95.9001 80.0086C95.7635 80.2157 95.5778 80.3857 95.3594 80.5035C95.1411 80.6213 94.897 80.6832 94.6489 80.6837Z" fill="black"/>
<path fill-rule="evenodd" clip-rule="evenodd" d="M69.9769 80.4081C69.6089 80.4076 69.254 80.2717 68.9796 80.0265C68.7053 79.7813 68.5306 79.4437 68.4889 79.0781C68.4799 79.0041 67.5219 71.6241 57.1889 69.8711C56.2279 69.7081 54.6949 69.5591 52.9189 69.3881C43.1399 68.4421 34.2199 67.2141 32.4999 62.6411C31.3899 59.6911 33.0119 57.4421 34.3139 55.6351C35.7399 53.6571 36.2099 52.7931 35.4819 51.5521C35.0209 50.7661 33.5529 50.1261 32.1329 49.5071C29.3529 48.2951 25.5449 46.6351 25.5249 42.0851C25.524 41.8881 25.5619 41.6929 25.6364 41.5106C25.7109 41.3282 25.8207 41.1623 25.9593 41.0224C26.0979 40.8825 26.2628 40.7712 26.4444 40.695C26.6261 40.6188 26.8209 40.579 27.0179 40.5781H27.0249C27.4215 40.5781 27.802 40.7352 28.0831 41.015C28.3642 41.2948 28.5231 41.6745 28.5249 42.0711C28.5359 44.4911 30.3489 45.4561 33.3329 46.7571C35.1929 47.5681 37.1159 48.4061 38.0709 50.0351C39.8559 53.0791 38.0599 55.5711 36.7489 57.3901C35.5189 59.0961 34.7909 60.2111 35.3089 61.5851C36.5139 64.7881 47.7899 65.8781 53.2089 66.4031C55.0419 66.5801 56.6249 66.7331 57.6909 66.9141C70.2229 69.0411 71.4249 78.3441 71.4699 78.7391C71.4937 78.9492 71.4729 79.162 71.4087 79.3635C71.3445 79.565 71.2384 79.7506 71.0974 79.9082C70.9565 80.0658 70.7837 80.1918 70.5906 80.278C70.3975 80.3641 70.1884 80.4085 69.9769 80.4081Z" fill="black"/>
</svg>
