<svg width="204" height="56" viewBox="0 0 204 56" fill="none" xmlns="http://www.w3.org/2000/svg">
<path d="M0.362803 55.6936C0.530911 55.4298 1.31722 54.6604 2.11077 53.9825C2.9025 53.3047 3.71593 52.5152 3.91838 52.2275C4.11903 51.9399 5.40062 50.8169 6.76537 49.7288C8.13012 48.6424 9.36834 47.6092 9.51656 47.4352C9.66659 47.2593 9.99197 47.0083 10.2396 46.8746C10.4891 46.7427 11.3838 46.173 12.228 45.6106C13.0739 45.0482 14.323 44.2842 15.0081 43.9142C15.6914 43.5423 16.3493 43.1393 16.4705 43.0202C17.0869 42.4047 22.0379 40.3566 25.4236 39.3142C26.6672 38.9313 27.7247 38.5667 27.7735 38.5026C27.938 38.2938 31.9726 37.4199 34.9135 36.9583C45.3399 35.3205 55.9903 35.3645 74.8618 37.125C83.9885 37.9769 87.8785 38.3854 87.967 38.5026C88.0176 38.5686 89.2776 38.7536 90.7688 38.9148C93.6683 39.2281 92.6054 39.2024 87.2675 38.8305C85.5141 38.7078 84.0409 38.5539 83.9903 38.4861C83.2275 37.4584 43.6895 37.4493 42.9574 38.4788C42.9086 38.5484 41.6469 38.7518 40.1556 38.9295C33.5904 39.7172 22.0397 42.2709 21.4468 43.0678C21.398 43.1338 20.7238 43.4141 19.9501 43.6889C18.2094 44.3099 12.6455 47.0486 12.19 47.5103C12.0075 47.6953 11.326 48.1386 10.6771 48.494C9.26892 49.2635 5.85072 51.4838 5.08791 52.1231C4.78965 52.3741 3.85511 53.1124 3.00915 53.7627C2.16499 54.4149 1.15454 55.2246 0.764094 55.5617C0.122391 56.1149 0.0844304 56.1278 0.362803 55.6936ZM158.012 48.2889C157.714 48.2541 156.047 48.1295 154.306 48.0141C152.568 47.8968 151.103 47.7393 151.053 47.6642C151.004 47.5872 150.312 47.4682 149.516 47.3967C147.289 47.2007 140.733 46.2847 136.321 45.5538C132.642 44.9437 131.29 44.7019 125.294 43.5844C124.101 43.3628 123.085 43.1283 123.035 43.0642C122.986 42.9982 121.928 42.7546 120.685 42.5182C116.403 41.7104 112.462 40.886 113.183 40.9519C113.581 40.9886 116.081 41.3916 118.74 41.8496C121.397 42.3076 124.042 42.7399 124.615 42.8114C125.188 42.8828 125.697 43.0037 125.746 43.0788C125.947 43.3829 139.437 45.1251 146.172 45.7168C159.831 46.9167 173.156 46.5797 180.709 44.8466C183.221 44.2696 186.737 43.2309 186.813 43.0422C186.847 42.9597 186.972 42.892 187.093 42.892C187.536 42.892 192.438 41.0582 195.113 39.8912C195.934 39.534 196.605 39.2849 196.605 39.3362C196.605 39.3875 196.381 39.5285 196.108 39.6494C195.835 39.7722 194.757 40.3346 193.712 40.9025C192.669 41.4704 191.287 42.1665 190.64 42.4523C189.994 42.7362 189.425 43.022 189.374 43.088C188.751 43.9087 180.21 46.5265 175.907 47.2153C174.814 47.3894 173.879 47.5872 173.829 47.655C173.538 48.0452 160.418 48.571 158.012 48.2889ZM143.28 42.6025C136.572 42.3699 130.377 42.0767 126.198 41.7946L121.318 41.4667L126.288 41.584C138.868 41.8807 150.713 41.6591 159.639 40.9593C167.086 40.3767 179.92 38.847 180.155 38.5154C180.204 38.4458 181.629 38.1601 183.319 37.8834C189.441 36.8795 201.782 34.2635 202.028 33.9191C202.134 33.7707 203.703 33.3549 203.797 33.4501C203.833 33.4868 203.672 33.5747 203.443 33.648C203.212 33.7213 202.973 33.8586 202.911 33.9539C202.667 34.3386 194.826 36.8795 190.549 37.9585C189.654 38.1857 188.883 38.4312 188.832 38.5063C188.595 38.8653 178.543 40.6863 173.286 41.3238C165.385 42.2819 151.331 42.881 143.28 42.6025ZM119.555 41.2945C119.879 41.2524 120.406 41.2524 120.73 41.2945C121.054 41.3348 120.79 41.3678 120.143 41.3678C119.497 41.3678 119.232 41.3348 119.555 41.2945ZM94.0677 39.2812C94.2919 39.2391 94.657 39.2391 94.8812 39.2812C95.1053 39.3252 94.9227 39.3618 94.4744 39.3618C94.028 39.3618 93.8436 39.3252 94.0677 39.2812ZM90.8592 36.8191C89.2197 36.5241 86.3311 36.0478 84.4422 35.7584C82.5532 35.4708 81.2192 35.2253 81.4759 35.2161C81.785 35.2033 82.011 35.0476 82.1429 34.7563C82.2604 34.4943 82.5587 34.2672 82.8768 34.1957L83.4155 34.0767L83.5402 32.983C83.6523 31.9974 83.3703 26.0051 83.1642 24.9866C82.9129 23.75 72.5083 21.4582 67.1451 21.4582H66.6372L66.6336 23.336C66.63 25.2998 66.3895 29.5756 66.1762 31.4826L66.0533 32.5946L66.5703 32.7064C66.8559 32.7686 67.6585 32.8932 68.3544 32.983C71.3298 33.364 74.146 33.8183 74.2292 33.9301C74.2798 33.996 75.5686 34.2434 77.0942 34.4815C78.6199 34.7178 79.7822 34.9395 79.6773 34.9761C79.5725 35.0109 78.2836 34.8735 76.8122 34.6702C75.3427 34.4669 73.6507 34.2452 73.0542 34.1756C72.4577 34.106 71.9299 33.9906 71.8793 33.9173C71.7817 33.7762 63.0527 32.7998 57.9606 32.3601C42.3682 31.0191 25.3422 30.7883 10.6192 31.7208C8.99055 31.8234 7.6258 31.8783 7.58964 31.8399C7.49926 31.7483 13.9886 30.8634 16.4759 30.6289C19.9501 30.301 23.7606 30.0812 28.1711 29.9529L32.4534 29.8302L32.5835 28.8043C32.654 28.2401 32.6034 26.2946 32.4697 24.4809C32.3341 22.6673 32.2057 20.6357 32.1804 19.9652C32.1569 19.2965 32.0521 18.2853 31.9491 17.7192C31.6165 15.891 32.1877 15.0904 33.9374 14.9365C35.0075 14.8431 35.1341 14.8724 35.6366 15.3267L36.1789 15.8195L37.6051 15.7224C38.3896 15.6711 39.0801 15.5484 39.1416 15.4531C39.6007 14.7295 42.2199 14.0956 43.1834 14.4749C43.7799 14.7112 43.8504 15.5923 43.4039 17.2448C43.0605 18.5125 42.6809 26.4906 42.8598 28.6651L42.9882 30.2296L43.9209 30.3267C44.4361 30.3816 46.9414 30.596 49.492 30.8048C52.0407 31.0136 54.4195 31.2316 54.7792 31.2921L55.43 31.3984V30.6418C55.43 30.2259 55.5005 29.8852 55.5872 29.8852C55.674 29.8852 55.7879 29.5353 55.8421 29.1066C55.8963 28.6779 56.1096 27.5458 56.3157 26.5877C56.6067 25.232 56.6899 24.1915 56.6917 21.8741L56.6953 18.9027L56.2579 18.6114C56.0156 18.452 55.2637 18.2432 54.5858 18.1479C52.6661 17.8786 52.2377 17.0652 53.2663 15.6455C54.0471 14.5701 55.1643 14.0608 56.4802 14.1799C57.1906 14.244 57.8178 14.1708 58.5029 13.9473C65.9539 11.5034 67.3801 11.6537 66.7348 14.8211C66.2594 17.1532 66.2811 17.1751 69.4589 17.7156C70.4422 17.8823 72.5897 18.3366 74.2292 18.7268C75.8705 19.117 78.0667 19.5805 79.1097 19.7582C80.1545 19.9359 81.0348 20.1429 81.0674 20.2198C81.1017 20.2968 81.6874 20.3591 82.3707 20.3591H83.6125L83.7408 19.6721C83.9198 18.714 83.9252 16.708 83.7553 14.8248L83.6107 13.231L84.388 12.7327C85.2448 12.1831 86.4269 11.7691 88.5545 11.2708C89.3246 11.0894 89.9554 10.8916 89.9554 10.8311C89.9554 10.5747 93.5887 9.86203 94.4564 9.94813C95.371 10.0379 95.5156 10.4226 95.1143 11.6903C94.7564 12.8151 94.5124 16.2463 94.4871 20.491L94.4744 22.7314L95.0258 23.0209C95.3367 23.1839 96.264 23.3543 97.1497 23.4111C100.519 23.6309 100.989 24.2135 99.1724 25.919C97.6613 27.3351 97.1515 27.5842 95.7398 27.5897L94.5648 27.5952L94.4491 30.16C94.3859 31.5706 94.2503 33.3292 94.1473 34.0693C94.046 34.8094 94.0063 35.861 94.0623 36.405C94.1183 36.951 94.0912 37.387 94.0027 37.3741C93.9141 37.3632 92.5005 37.1122 90.8592 36.8191ZM163.616 36.2109C162.75 35.8811 162.15 35.861 161.38 36.1321C160.91 36.2988 160.724 36.2786 160.333 36.0203L159.858 35.7052L160.017 33.7561C160.357 29.5811 160.031 18.1717 159.567 18.0142C159.337 17.9372 159.29 16.1456 159.518 16.1456C159.601 16.1456 159.775 15.9441 159.905 15.6968C160.396 14.768 162.282 14.5591 163.11 15.3432L163.616 15.8213L165.042 15.7242C165.826 15.6711 166.517 15.5484 166.578 15.4531C167.135 14.5756 170.378 14.0389 171.047 14.7148C171.32 14.9896 171.327 15.1399 171.126 16.0888C171.003 16.6732 170.835 17.4829 170.752 17.8859C170.329 19.9762 170.096 29.0022 170.409 31.2756C170.608 32.7283 170.354 33.899 169.783 34.1756C169.673 34.2287 169.174 34.5236 168.677 34.8296C166.101 36.4105 164.962 36.722 163.616 36.2109ZM128.277 34.2342C127.433 34.1353 126.701 34.0034 126.65 33.9393C126.601 33.8751 125.462 33.6003 124.119 33.3274C121.412 32.776 118.029 31.7812 116.034 30.9495C114.711 30.3963 114.177 30.4549 114.177 31.1474C114.177 32.0817 112.093 33.2193 109.733 33.5747C108.995 33.6865 108.393 33.8495 108.393 33.9374C108.393 34.1573 106.623 34.1426 106.352 33.9191C105.136 32.9225 104.959 32.6807 104.848 31.8673C104.727 30.9678 105.056 28.5845 105.326 28.4159C105.806 28.1155 106.088 24.8656 105.875 22.0921C105.548 17.8713 105.75 17.6606 110.891 16.8564C115.345 16.1602 116.473 16.8912 115.457 19.815C115.266 20.3646 115.134 20.839 115.163 20.8702C115.26 20.9691 117.881 20.3151 117.973 20.1685C118.443 19.4284 125.564 18.3512 129.994 18.3494C135.113 18.3458 143.822 19.4999 143.822 20.1814C143.822 20.2528 144.535 20.5807 145.404 20.9123C154.14 24.2409 155.791 25.9575 153.09 28.9032C151.973 30.1233 151.516 30.3431 148.161 31.2793C146.621 31.7098 144.545 32.3436 143.551 32.688C142.557 33.0324 141.216 33.4226 140.569 33.5545C139.923 33.6864 139.354 33.8532 139.303 33.9264C138.978 34.4064 131.531 34.6152 128.277 34.2342ZM138.54 29.6873C139.506 29.5774 140.335 29.4235 140.386 29.3429C140.437 29.2623 140.845 29.1396 141.292 29.0699C142.608 28.8629 144.907 28.1137 146.901 27.2435L148.759 26.432L148.114 26.159C147.757 26.0088 146.749 25.6644 145.87 25.3932C144.994 25.1221 144.233 24.8345 144.184 24.7539C143.844 24.2043 135.945 23.2169 131.802 23.2059C125.875 23.1894 121.925 23.4404 120.11 23.9497C119.183 24.208 118.167 24.4626 117.851 24.5157C114.532 25.0617 122.897 29.1194 127.404 29.1487C127.767 29.1506 128.092 29.2275 128.127 29.3191C128.273 29.7258 135.834 29.9933 138.54 29.6873ZM118.66 17.2521C117.601 17.0561 117.498 16.9901 117.137 16.283C116.316 14.6745 116.545 14.1176 118.389 13.2401C120.943 12.0255 129.736 11.3917 135.153 12.031C139.094 12.4964 139.565 12.8756 138.871 15.0226C138.186 17.144 137.47 17.6221 135.945 16.9755C134.544 16.3819 132.7 16.1548 129.076 16.1291L125.475 16.1035L123.758 16.6842C121.903 17.3125 120.085 17.5141 118.66 17.2521ZM35.9981 13.6853C31.1085 12.8444 29.572 11.7086 29.5305 8.90759C29.4979 6.67261 30.9983 4.67946 33.6663 3.41359C35.3727 2.60387 37.3918 1.85643 37.878 1.85643C38.0696 1.85643 38.254 1.79049 38.2884 1.71171C38.4022 1.43326 42.0536 0.766429 42.5037 0.940463C43.3081 1.25006 43.3099 2.36755 42.5037 2.73943C42.2597 2.85301 40.9799 3.07284 39.6603 3.22673C33.0336 4.0053 30.2644 6.65613 32.5293 10.0525C32.7462 10.3805 33.0174 10.6479 33.1312 10.6479C33.2451 10.6498 33.3861 10.778 33.4458 10.9337C33.6012 11.3441 35.6456 12.2619 37.099 12.5733C41.0938 13.4307 43.8612 12.0439 43.8612 9.18238C43.8612 5.88122 38.2378 3.67739 36.3199 6.22562C34.693 8.38731 35.3853 10.1002 37.8871 10.1002C39.758 10.1002 40.6853 9.25016 39.9911 8.17481C39.6531 7.6527 39.4778 7.62705 38.5071 7.95497C37.5707 8.2719 37.0158 8.15649 36.7627 7.59225C36.544 7.10495 37.0465 6.43629 37.6304 6.43629C37.7605 6.43629 37.8997 6.3337 37.9413 6.20913C38.0317 5.93251 39.5121 5.938 39.682 6.21646C39.7453 6.32271 40.2804 6.59201 40.8696 6.81551C43.1689 7.68751 43.3605 8.59982 41.6162 10.3676C39.9694 12.0365 38.442 12.3333 36.3434 11.3935C34.3387 10.4959 32.8547 8.64195 33.3536 7.66003C34.299 5.79694 34.6406 5.43239 35.8788 4.96341C38.5794 3.93936 43.4057 4.62267 45.132 6.27325C45.3851 6.51507 45.902 6.97122 46.2834 7.28815C47.2216 8.07222 47.4277 10.6498 46.551 10.6498C46.4642 10.6498 46.3919 10.7652 46.3919 10.9062C46.3919 11.3019 45.1609 12.304 44.0763 12.7895C41.9922 13.7238 38.4836 14.1121 35.9981 13.6853ZM163.88 13.7567C159.113 13.0881 157.041 11.6225 157.027 8.90942C157.012 5.95999 159.599 3.529 164.171 2.20084C164.959 1.97185 165.646 1.7282 165.694 1.65858C165.799 1.51203 169.017 0.891 169.63 0.896496C170.219 0.903823 170.575 1.27205 170.575 1.87476C170.575 2.66249 169.966 2.9556 167.929 3.14979C163.601 3.56564 160.431 4.77655 159.888 6.22012C159.789 6.48576 159.61 6.76421 159.493 6.83749C159.183 7.03167 159.234 8.8856 159.558 9.24466C159.702 9.40404 160.105 9.91332 160.452 10.3768C162.352 12.9012 168.332 13.6596 170.412 11.639C172.919 9.20619 170.336 5.15393 166.28 5.15393C163.858 5.15393 161.945 8.13084 163.446 9.56159C164.106 10.1899 166.228 10.298 167.095 9.74662C168.241 9.0175 167.607 7.40905 166.352 7.86704C165.391 8.2206 164.836 8.14183 164.487 7.60324L164.176 7.12144L164.619 6.77887C164.863 6.59018 165.172 6.34286 165.306 6.22745C165.624 5.95816 167.014 5.95816 167.103 6.22745C167.139 6.34103 167.612 6.56453 168.151 6.72391C170.284 7.35227 170.738 8.42212 169.559 10.0306C167.936 12.2472 164.774 12.4982 162.479 10.5948C160.698 9.11826 160.413 8.48257 161.025 7.3486C161.257 6.92176 161.55 6.38133 161.676 6.15051C162.887 3.9302 170.089 3.94851 172.563 6.17616C172.713 6.31172 173.178 6.72024 173.599 7.08846C174.713 8.05939 174.879 9.00834 174.226 10.6662C173.42 12.7162 168.005 14.3338 163.88 13.7567ZM120.911 5.3243C122.337 4.56221 123.107 2.32358 122.413 0.960615C121.834 -0.169694 121.046 0.0721212 121.046 1.38013C121.046 2.26313 121.453 2.9556 121.972 2.9556C122.171 2.9556 122.283 3.03804 122.221 3.1388C122.006 3.49053 120.945 3.33848 120.535 2.89881C119.109 1.35815 121.222 -0.76874 122.981 0.436679C124.622 1.56149 123.836 4.19033 121.52 5.32614C120.538 5.80794 120.011 5.8061 120.911 5.3243ZM138.761 5.26751C138.761 5.23087 139.128 4.401 139.574 3.42275C140.655 1.06137 140.67 1.12366 139.052 1.12366H137.718L137.638 0.583235L137.561 0.0428123L139.424 0.0794506C140.449 0.099602 141.288 0.171046 141.29 0.24066C141.293 0.530107 139.056 5.33713 138.915 5.33713C138.83 5.33713 138.761 5.30598 138.761 5.26751ZM63.5082 5.0257C62.9497 4.93593 62.7797 4.66847 62.8755 4.02179L62.9388 3.59678L63.2081 4.14636C63.4251 4.59153 63.6076 4.70694 64.1662 4.75274C65.6177 4.87548 65.8563 3.63708 64.4807 3.12231C62.129 2.24664 62.4254 -0.0817615 64.8711 0.0611301L65.8238 0.116089L65.8762 0.757269L65.9304 1.39845L65.5635 0.803068C65.1802 0.182039 64.7247 0.0556336 64.0939 0.398207C63.3762 0.786579 63.8553 1.66225 64.9362 1.93338C66.583 2.34923 66.6932 4.96158 65.0646 4.97257C64.8856 4.9744 64.5765 5.00555 64.3777 5.04035C64.1788 5.07699 63.7884 5.06966 63.5082 5.0257ZM81.1885 3.47954C80.4926 2.56723 79.784 1.64393 79.6123 1.42593L79.3031 1.03206L79.2959 2.71562C79.2905 4.25262 79.3266 4.42482 79.6918 4.68496L80.0949 4.97074H79.2055C78.412 4.97074 78.3541 4.94509 78.6542 4.72159C79.2887 4.25078 79.2778 0.39088 78.6434 0.39088C78.4897 0.39088 78.4084 0.321267 78.459 0.236998C78.5114 0.152728 78.938 0.117922 79.4098 0.160057C80.2883 0.240662 80.3931 0.319435 81.1831 1.49005C81.4199 1.84361 81.8212 2.37854 82.0724 2.68081L82.5315 3.23039L82.537 1.89674C82.5442 0.680328 82.508 0.548427 82.1375 0.396376C81.6404 0.194862 81.6874 0.176543 82.7701 0.141736C83.2419 0.127081 83.6288 0.176543 83.6288 0.253485C83.6288 0.328594 83.5077 0.39088 83.3576 0.39088C83.1299 0.39088 83.0865 0.77742 83.0865 2.77241C83.0865 5.76031 82.9636 5.8061 81.1885 3.47954ZM90.4688 4.97074C88.0086 4.52191 87.5784 1.41677 89.8343 0.379889C91.1828 -0.24114 92.6813 -0.079929 92.9253 0.71147C93.0898 1.24273 92.9705 1.23174 92.412 0.665672C91.5154 -0.242972 90.1398 0.301116 89.7638 1.71171C89.1546 4.00347 91.2587 5.86839 92.562 4.19216L93.0247 3.59678L93.0265 4.09324C93.0302 4.84617 91.9004 5.23271 90.4688 4.97074ZM130.043 4.99089C128.857 4.72343 128.487 3.80013 129.269 3.06552L129.719 2.64234L129.36 2.31259C128.492 1.51753 129.145 0.227838 130.495 0.073955C131.986 -0.0964157 132.801 0.934969 131.899 1.84911L131.543 2.21L132.067 2.52326C133.62 3.45389 131.997 5.43056 130.043 4.99089ZM131.341 4.52374C131.708 4.07492 131.484 3.47771 130.807 3.11132L130.175 2.76874L129.949 3.08017C129.248 4.04744 130.592 5.43788 131.341 4.52374ZM131.428 1.56516C131.668 0.596059 130.845 -0.173359 130.173 0.392711C129.786 0.716965 129.839 1.04122 130.365 1.57248C130.95 2.16603 131.279 2.1642 131.428 1.56516ZM71.3822 4.7161C71.8214 4.37719 71.863 0.39088 71.4274 0.39088C71.2791 0.39088 71.1562 0.328594 71.1562 0.253485C71.1562 0.178375 71.7003 0.145399 72.3673 0.178374C73.2567 0.226005 73.4989 0.288291 73.2729 0.416528C72.8084 0.680327 72.8156 4.35704 73.2802 4.7161C73.5531 4.92494 73.4212 4.95975 72.3312 4.95975C71.2412 4.95975 71.1092 4.92494 71.3822 4.7161ZM98.0445 4.75091L98.4512 4.54756V2.5544V0.563084L98.0445 0.396376C97.7661 0.282796 98.3066 0.227837 99.7617 0.218677L101.886 0.207686V0.665672C101.886 1.21892 101.709 1.2464 101.295 0.757269C101.098 0.524612 100.761 0.39088 100.369 0.39088H99.7509L99.6894 1.33067C99.646 1.96269 99.7003 2.29793 99.8521 2.35839C100.273 2.52143 100.996 2.2155 101.159 1.80514C101.284 1.49005 101.323 1.62195 101.333 2.39503L101.343 3.3916L100.975 2.99041C100.167 2.11108 99.3677 2.66799 99.6352 3.92104C99.8521 4.9341 100.606 5.08432 101.524 4.30025L102.095 3.81295L102.036 4.34605L101.976 4.87914L99.8069 4.91578C98.1186 4.94509 97.7281 4.90845 98.0445 4.75091ZM112.234 4.75823L112.731 4.57321V2.64234V0.71147L112.189 0.821388C111.359 0.989927 111.544 0.678495 112.415 0.442175C112.838 0.326762 113.326 0.176544 113.5 0.108762C113.791 -0.00481807 113.816 0.165552 113.816 2.18069C113.816 4.45779 113.876 4.65015 114.629 4.83884C114.828 4.8883 114.259 4.93044 113.364 4.93593C112.072 4.93959 111.838 4.90479 112.234 4.75823Z" fill="black"/>
</svg>
