<svg width="76" height="89" viewBox="0 0 76 89" fill="none" xmlns="http://www.w3.org/2000/svg">
<path d="M41.44 0.21875C22.7879 0.21875 7.61344 15.3942 7.61344 34.0483C7.61344 35.3089 7.6822 36.5714 7.81871 37.812C5.36238 40.5125 -1.77941 49.0444 1.94644 53.1439C2.6958 53.97 5.92938 56.1154 8.27112 56.9983L8.25517 61.1746C8.25517 70.0144 14.3347 79.4102 25.5521 79.4092L31.7861 79.6155V87.4319C31.7861 88.257 32.4547 88.9266 33.2808 88.9266C34.1069 88.9266 34.7756 88.257 34.7756 87.4319V78.1696C34.7756 77.3624 34.1358 76.7018 33.3307 76.6759L25.6019 76.4208C16.1762 76.4208 11.2446 68.7508 11.2446 61.1806L11.2645 55.948C11.2645 55.8484 11.2556 55.7487 11.2357 55.6481C11.1071 55.0054 10.58 54.535 9.95318 54.4583C9.04937 54.1454 5.33349 52.4285 4.15963 51.134C3.17311 50.0489 4.8183 45.3475 10.4733 39.3436C10.7813 39.0168 10.9257 38.5694 10.8679 38.1239C10.6926 36.7887 10.6039 35.4175 10.6039 34.0473C10.6039 17.0424 24.4371 3.2072 41.441 3.2072C58.448 3.2072 72.2851 17.0424 72.2851 34.0473C72.2851 42.8772 68.4866 51.2974 61.8639 57.1478C61.5431 57.4308 61.3587 57.8384 61.3587 58.2668L61.3378 87.2575C61.3368 88.0826 62.0064 88.7522 62.8315 88.7532C63.6566 88.7532 64.3262 88.0846 64.3272 87.2595L64.3482 58.9335C71.3006 52.5381 75.2746 43.5079 75.2746 34.0473C75.2736 15.3942 60.0962 0.21875 41.44 0.21875Z" fill="black"/>
<path d="M41.5345 14.918C30.5623 14.918 21.6348 23.8375 21.6348 34.8008C21.6348 35.6269 22.3034 36.2955 23.1295 36.2955C23.9556 36.2955 24.6242 35.6269 24.6242 34.8008C24.6242 25.4857 32.2104 17.9074 41.5345 17.9074C50.8556 17.9074 58.4378 25.4857 58.4378 34.8008C58.4378 39.9088 56.2755 44.6929 52.6533 47.5986C50.5098 49.3195 46.9016 51.1331 41.8923 50.0211C34.1904 48.3061 33.5926 40.5525 33.5926 38.2157C33.5926 33.3609 37.4151 29.4038 42.1394 29.3361C42.2171 29.349 42.2968 29.355 42.3765 29.355C45.0352 29.355 47.1975 31.5174 47.1975 34.175C47.1975 36.8376 45.0352 39.003 42.3765 39.003C41.5515 39.003 40.8818 39.6716 40.8818 40.4977C40.8818 41.3238 41.5515 41.9924 42.3765 41.9924C46.6833 41.9924 50.187 38.4848 50.187 34.175C50.187 29.915 46.7571 26.4403 42.5131 26.3666C42.4304 26.3526 42.3467 26.3456 42.2629 26.3456C35.8336 26.3456 30.6031 31.6708 30.6031 38.2157C30.6031 44.1886 33.3982 51.1919 41.2435 52.9378C42.4622 53.2088 43.673 53.3423 44.8658 53.3423C48.3823 53.3423 51.7226 52.1774 54.5237 49.9304C58.8464 46.4626 61.4273 40.8066 61.4273 34.7998C61.4273 23.8375 52.5028 14.918 41.5345 14.918Z" fill="black"/>
</svg>
