<svg xmlns="http://www.w3.org/2000/svg" xmlns:xlink="http://www.w3.org/1999/xlink" xmlns:inkscape="http://www.inkscape.org/namespaces/inkscape" version="1.1" width="113.386" height="113.386" viewBox="0 0 113.386 113.386">
<defs>
<clipPath id="clip_0">
<path transform="matrix(1,0,0,-1,0,113.386)" d="M0 113.386H113.386V0H0Z"/>
</clipPath>
</defs>
<g inkscape:groupmode="layer" inkscape:label="Layer 1">
<g clip-path="url(#clip_0)">
<path transform="matrix(1,0,0,-1,25.7215,35.219507)" stroke-width="3" stroke-linecap="round" stroke-linejoin="round" fill="none" stroke="#231f20" d="M0 0C0 0 7.77-1.2 21.402 5.669 39.402 14.74 52.724 3.299 52.724 3.299"/>
<path transform="matrix(1,0,0,-1,41.879,45.991006)" stroke-width="3" stroke-linecap="round" stroke-linejoin="round" fill="none" stroke="#231f20" d="M0 0H-15.1V1.5C-15.1 1.5-6.154 1.734 1.5 3.074 9.153 4.413 15.307 11.905 24.661 8.787 33.254 5.923 35.433-2.835 35.433-2.835 35.433-2.835 31.192-2.61 26.651-3.218 22.11-3.827 17.335-3.406 14.456-3.118 5.953-2.268 0 0 0 0"/>
<path transform="matrix(1,0,0,-1,63.2806,48.071504)" d="M0 0C2.83 0 5.123 2.293 5.123 5.123 5.123 7.953 2.83 10.247 0 10.247-2.83 10.247-5.123 7.953-5.123 5.123-5.123 2.293-2.83 0 0 0" fill="#231f20"/>
<path transform="matrix(1,0,0,-1,63.2806,48.071504)" stroke-width="3" stroke-linecap="round" stroke-linejoin="round" fill="none" stroke="#231f20" d="M0 0C2.83 0 5.123 2.293 5.123 5.123 5.123 7.953 2.83 10.247 0 10.247-2.83 10.247-5.123 7.953-5.123 5.123-5.123 2.293-2.83 0 0 0Z"/>
<path transform="matrix(1,0,0,-1,32.5247,63.2825)" stroke-width="3" stroke-linecap="round" stroke-linejoin="round" fill="none" stroke="#231f20" d="M0 0C.85-.142 2.24 .982 1.804 2.268 1.276 3.827 .022 4.468-1.611 3.969-4.394 3.118-4.961-1.842-1.417-3.239 2.951-4.961 7.37-3.239 16.441 3.118 25.512 9.476 30.756 16.792 30.756 16.792V-3.118L32.882 6.462 30.756 12.262"/>
<path transform="matrix(1,0,0,-1,39.5882,95.501209)" stroke-width="3" stroke-linecap="round" stroke-linejoin="round" fill="none" stroke="#231f20" d="M0 0C0 0 0 6.006-.201 11.764-.398 17.43-7.045 23.987-10.173 27.282-23.18 40.497-23.115 61.7-9.997 74.818 3.121 87.936 24.325 88.001 37.539 74.544 53.023 58.484 44.704 52.244 48.189 46.347 51.874 40.11 54.982 36.538 53.858 33.449 53.291 31.89 48.756 31.449 48.756 29.338 48.756 27.228 49.259 26.549 48.472 25.37 47.339 23.669 44.361 24.261 45.354 23.103 46.205 22.11 47.055 21.118 47.055 19.984 47.055 18.851 44.377 17.573 45.354 14.315 46.205 11.48 43.816 8.362 40.333 7.795 36.85 7.229 27.496 9.212 27.496 9.212V0"/>
</g>
</g>
</svg>
