<svg width="233" height="234" viewBox="0 0 233 234" fill="none" xmlns="http://www.w3.org/2000/svg">
<rect width="233" height="233" transform="translate(0 0.5)" fill="#FFF2EE"/>
<path d="M120.37 44.1484C156.599 44.1484 185.993 73.797 185.993 110.367C185.993 146.937 156.599 176.549 120.37 176.549C84.1411 176.549 54.7471 146.9 54.7471 110.367C54.7471 73.8342 84.11 44.1484 120.37 44.1484Z" stroke="black" stroke-width="4" stroke-miterlimit="10"/>
<path fill-rule="evenodd" clip-rule="evenodd" d="M120.519 46.9922C155.344 46.9922 183.522 75.4116 183.522 110.492C183.522 145.572 155.344 174.029 120.519 174.029C85.6928 174.029 57.5527 145.61 57.5527 110.492C57.5527 75.3743 85.73 46.9922 120.519 46.9922Z" fill="black"/>
<path d="M160.844 82.2267C160.882 82.4502 160.919 82.6737 160.956 82.8972C161.031 83.2324 161.105 83.5676 161.142 83.6049C161.18 83.6794 161.509 83.9028 161.844 84.0891C162.142 84.2753 162.396 84.4616 162.732 84.685C162.955 84.8713 162.992 84.9085 163.03 84.9458C163.731 85.4672 164.432 86.0259 164.985 86.8081C165.208 87.1061 165.388 87.4041 165.575 87.7393C165.686 87.9628 165.835 88.298 165.978 88.596C166.164 88.9312 166.276 89.2664 166.382 89.4899C166.531 89.8251 166.642 90.1231 166.748 90.4211C167.046 91.315 167.226 92.2089 167.375 93.1773C167.487 94.0713 167.561 94.9652 167.598 95.9708C167.598 96.0081 167.598 96.0453 167.636 96.1943V96.6785C167.673 96.7903 167.71 96.6785 167.859 96.8275C168.12 97.1255 168.374 97.4607 168.598 97.8704C168.933 98.5036 169.15 99.0996 169.337 99.7328C169.374 99.8445 169.448 99.9935 169.486 100.142C169.746 100.887 170.001 101.632 170.187 102.452C170.411 103.308 170.553 104.165 170.591 105.134C170.591 105.767 170.591 106.474 170.516 107.182C170.479 107.592 170.404 108.002 170.293 108.411C171.069 109.976 171.292 111.689 171.106 113.365C170.882 115.712 169.926 118.021 168.741 119.623C168.592 119.809 168.443 119.958 168.337 120.07C168.374 120.144 168.449 120.219 168.486 120.293C168.747 120.777 169.001 121.187 169.15 121.708C169.337 122.267 169.448 123.049 169.448 123.794C169.448 124.465 169.374 125.21 169.188 125.806C169.039 126.178 168.852 126.625 168.635 126.998C168.412 127.407 168.12 127.854 167.896 128.189C167.822 128.264 167.747 128.376 167.673 128.45C167.747 129.381 167.636 130.275 167.375 131.132C167.009 132.585 166.301 133.851 165.531 134.782C165.09 135.378 164.606 135.9 164.091 136.346C163.576 136.793 162.986 137.203 162.247 137.613C161.987 137.762 161.658 137.911 161.36 138.06C161.173 138.134 161.62 137.948 161.099 138.172C160.838 138.283 160.621 138.358 160.397 138.432L160.36 138.507C160.286 138.73 160.174 138.954 160.137 139.066C160.099 139.177 160.062 139.401 160.025 139.661C159.988 140.034 159.913 140.406 159.764 140.928C158.876 143.759 156.996 145.546 155.22 147.26L154.922 147.558C154.81 147.67 154.736 147.707 154.661 147.781C154.438 148.005 154.221 148.191 153.96 148.414C153.848 148.526 153.736 148.638 153.625 148.712L153.587 148.675L153.327 149.197L152.737 149.495C152.333 149.718 151.849 150.091 151.371 150.426C151.111 150.612 150.893 150.761 150.484 151.022L150.409 151.096C149.67 151.58 148.932 152.102 148.156 152.661L147.969 152.81L147.709 152.884C147.342 153.033 146.858 153.294 146.38 153.517C144.94 154.262 143.388 155.007 141.321 155.231C140.247 155.342 139.179 155.268 138.074 155.193C137.708 155.193 137.335 155.156 137.149 155.156C136.41 155.119 135.709 155.119 135.045 155.119H134.194C134.12 155.268 134.082 155.417 134.008 155.566C133.747 156.199 133.455 156.87 133.12 157.577C132.971 157.912 132.822 158.173 132.679 158.434C132.201 159.328 131.792 160.147 131.606 161.302C131.581 161.327 131.568 161.364 131.568 161.414C131.531 161.637 131.531 161.823 131.457 162.121C131.053 163.611 130.277 164.691 128.061 164.095L126.881 163.797L126.546 162.606C126.248 161.6 126.434 160.892 126.621 160.222C126.658 160.11 126.695 159.998 126.695 159.924C126.807 159.328 126.844 159.216 126.844 159.104C126.993 158.099 127.142 157.093 127.508 156.125C127.657 155.715 127.769 155.491 127.875 155.268C127.986 155.044 128.098 154.821 128.135 154.746V154.597C128.173 154.337 128.21 154.113 128.359 153.741C128.545 153.145 128.694 152.81 128.8 152.437C128.949 152.027 129.098 151.618 129.203 151.357C129.389 150.202 129.464 149.085 129.389 148.042C129.352 146.999 129.203 146.031 128.911 145.137C128.837 144.951 128.725 144.727 128.613 144.504C128.39 143.982 128.173 143.498 128.024 142.827L127.061 137.836L131.308 140.593C133.083 141.747 134.039 143.684 134.486 145.919C134.747 147.111 134.852 148.414 134.852 149.681C135.889 149.718 136.882 149.755 137.77 149.755C138.285 149.755 138.807 149.755 139.359 149.718C139.912 149.681 140.433 149.644 140.986 149.532C141.023 149.532 141.135 149.457 141.284 149.42C141.358 149.383 141.433 149.346 141.724 149.271C141.799 149.234 142.022 149.159 142.202 149.122V149.085C142.277 149.085 142.314 149.048 142.606 148.973L142.718 148.936C143.233 148.75 143.823 148.563 144.158 148.414C144.493 148.265 144.896 148.005 145.3 147.781L145.412 147.707H145.263C143.233 147.632 141.308 147.148 140.092 145.807C139.614 145.323 139.353 144.839 139.092 144.355C138.943 144.057 138.757 143.759 138.726 143.721C138.689 143.721 138.614 143.684 138.577 143.647C138.353 143.61 138.136 143.647 137.913 143.647C137.546 143.647 137.211 143.684 136.733 143.61C134.927 143.461 133.667 142.641 132.779 141.487C132.003 140.444 131.599 139.214 131.339 137.874C131.301 137.687 131.264 137.389 131.19 137.129C131.115 136.868 131.041 136.57 130.966 136.272C130.929 136.049 130.854 135.825 130.743 135.602C130.668 135.49 130.631 135.378 130.594 135.378C130.37 135.117 130.078 134.931 129.669 134.819C129.228 134.633 128.669 134.596 128.117 134.633L125.236 134.819L125.863 131.989C125.975 131.467 126.199 131.057 126.49 130.759C126.012 130.35 125.565 129.866 125.199 129.27C124.386 128.003 123.796 126.513 123.424 124.986C123.02 123.273 122.871 121.485 122.871 119.846C122.871 113.626 122.759 107.331 122.685 101.483C122.499 91.2405 122.35 82.3012 122.908 76.7514C123.244 73.2502 124.349 71.2762 125.162 69.7863C125.274 69.6 125.348 69.4511 125.497 69.1903L125.721 68.7806L126.056 68.5199L126.316 67.9612L127.13 67.6632C127.757 67.4025 127.279 67.626 127.428 67.5515C128.39 67.179 129.271 66.8065 130.569 66.9555C131.233 67.03 131.786 67.2162 132.344 67.4025C132.568 67.477 132.785 67.5515 132.971 67.5887C133.338 67.7004 133.636 67.8122 133.971 67.9239C134.306 68.0729 133.195 67.6632 134.157 67.9984C134.306 68.0729 134.418 68.1102 134.56 68.1847C134.635 68.2219 134.486 68.2219 134.635 68.2219C134.709 68.2219 134.709 68.1474 134.858 68.0729C135.045 67.9984 135.225 67.9239 135.411 67.8494C136.41 67.5142 137.478 67.328 138.552 67.328C139.589 67.3652 140.619 67.5887 141.582 68.0357C141.768 68.1474 141.948 68.2592 142.171 68.4081C142.209 68.4454 142.171 68.4454 142.134 68.4454V68.4826H142.171C142.432 68.5199 142.649 68.5199 142.873 68.5199C143.313 68.4826 143.798 68.4826 144.387 68.5571C146.088 68.8179 147.454 69.4511 148.671 70.3077C149.813 71.1644 150.701 72.1701 151.477 73.2875C151.551 73.3992 151.663 73.5482 151.812 73.7717C151.886 73.8462 151.998 73.9952 152.178 74.2559C152.215 74.2931 152.253 74.3304 152.364 74.4794C152.476 74.6284 152.588 74.7774 152.588 74.7774C152.737 74.9263 153.252 75.0008 153.767 75.1126C154.283 75.1871 154.841 75.2988 155.394 75.4851C156.393 75.8203 157.312 76.4535 158.088 77.1612C158.864 77.9433 159.528 78.9118 159.969 79.8429C160.118 80.1782 160.304 80.5879 160.447 81.0721C160.596 81.4446 160.745 81.8543 160.813 82.2267H160.844ZM156.747 83.6794C156.71 83.5304 156.71 83.3441 156.673 83.1952C156.598 82.9717 156.524 82.7482 156.449 82.5247C156.375 82.264 156.226 81.966 156.083 81.668C155.859 81.1838 155.53 80.6996 155.121 80.2899C154.786 79.9547 154.419 79.6939 154.047 79.5822C153.749 79.5077 153.383 79.4332 153.01 79.3587C152.011 79.1725 151.017 78.9863 150.018 78.2413C149.577 77.9061 149.242 77.4591 148.944 77.0494L148.832 76.9004C148.72 76.7887 148.572 76.5652 148.391 76.3045C148.28 76.1927 148.131 76.0065 148.025 75.783C147.473 75.0008 146.846 74.3304 146.181 73.8089C145.517 73.3247 144.741 72.9895 143.816 72.8405C143.518 72.8033 143.264 72.8033 143.003 72.8033C142.562 72.8405 142.153 72.8405 141.6 72.766C140.824 72.6543 140.346 72.3191 139.899 72.0583C139.825 71.9838 139.75 71.9466 139.713 71.9466C139.347 71.7604 138.9 71.6486 138.459 71.6486C137.944 71.6486 137.422 71.7604 136.833 71.9466C136.758 71.9838 136.646 72.0211 136.572 72.0583C135.908 72.3563 135.243 72.6543 134.281 72.5425C133.766 72.5053 133.319 72.3191 132.915 72.1701C132.841 72.1328 132.766 72.0956 132.692 72.0583C131.879 71.7604 132.953 72.1701 132.468 71.9838C132.245 71.9093 132.065 71.8349 131.841 71.7604C131.581 71.6859 131.326 71.6114 131.065 71.5369C130.699 71.3879 130.289 71.2761 130.066 71.2389C129.917 71.2389 129.588 71.3134 129.253 71.4624L129.216 71.4996C129.178 71.5369 129.141 71.5741 129.104 71.6114L128.955 71.8721C128.291 73.064 127.44 74.5911 127.179 77.1612C126.664 82.4875 126.813 91.315 126.993 101.446C127.068 107.294 127.179 113.551 127.179 119.846C127.179 121.187 127.291 122.602 127.62 123.981C127.881 125.061 128.284 126.104 128.837 126.96C128.986 127.221 129.203 127.444 129.464 127.593C129.799 127.817 130.128 127.966 130.352 128.04C130.755 128.115 131.239 128.115 131.68 128.152C132.344 128.189 132.971 128.189 133.636 128.338L136.851 129.009L134.933 131.728C134.933 131.728 134.933 132.063 134.896 132.436C134.858 132.696 134.858 132.957 134.784 133.292L134.709 133.888C134.896 134.335 135.045 134.782 135.15 135.155C135.225 135.453 135.299 135.788 135.374 136.16C135.448 136.458 135.523 136.793 135.56 137.129C135.709 137.836 135.895 138.47 136.187 138.842C136.373 139.103 136.665 139.289 137.149 139.326H137.739C138.18 139.326 138.589 139.289 139.216 139.363C139.694 139.438 140.067 139.587 140.433 139.736C140.731 139.885 140.986 140.034 141.209 140.183C142.06 140.779 142.426 141.524 142.835 142.231C142.984 142.492 143.133 142.753 143.202 142.865C143.537 143.2 144.418 143.349 145.455 143.386C146.709 143.423 148.149 143.274 149.335 143.125C149.633 143.014 149.85 142.865 150.074 142.716C150.297 142.492 150.515 142.269 150.701 142.008C150.775 141.896 150.887 141.598 151.036 141.338C151.402 140.63 151.737 139.997 152.476 139.289C153.178 138.656 153.916 138.395 154.655 138.172C154.916 138.06 155.208 137.985 155.282 137.948L156.17 137.389C156.282 137.129 156.393 136.831 156.536 136.57C156.76 136.086 157.051 135.639 157.312 135.341C157.902 134.67 158.492 134.521 159.05 134.335C159.162 134.298 159.274 134.261 159.274 134.261C159.64 134.074 159.199 134.298 159.535 134.149C159.758 134.037 159.975 133.925 160.161 133.814H160.199C160.602 133.59 160.975 133.329 161.273 133.069C161.608 132.808 161.862 132.473 162.198 132.1C162.601 131.579 163.011 130.834 163.234 130.015C163.421 129.419 163.458 128.748 163.309 128.078L163.085 126.923L163.936 126.104C164.085 125.917 164.159 125.843 164.271 125.768C164.346 125.694 164.457 125.619 164.457 125.582C164.569 125.47 164.718 125.21 164.861 124.912C164.973 124.688 165.084 124.465 165.122 124.39C165.159 124.316 165.159 124.092 165.159 123.832C165.159 123.496 165.122 123.161 165.047 122.938C165.047 122.9 164.898 122.714 164.786 122.491C164.308 121.671 163.787 120.777 163.861 119.585C163.899 118.356 164.563 117.723 165.153 117.164C165.227 117.09 165.264 117.053 165.302 117.015C166.078 115.972 166.705 114.483 166.854 112.955C166.965 111.838 166.779 110.758 166.189 109.864L165.451 108.821L166.003 107.704C166.115 107.443 166.189 107.07 166.227 106.698C166.301 106.214 166.301 105.692 166.301 105.283C166.264 104.649 166.152 104.091 166.003 103.495C165.854 102.862 165.668 102.228 165.413 101.595C165.376 101.446 165.339 101.297 165.264 101.111C165.115 100.664 164.966 100.217 164.824 99.919C164.786 99.8818 164.675 99.77 164.563 99.621C164.159 99.1368 163.787 98.6899 163.526 97.9449C163.377 97.349 163.34 96.8275 163.34 96.3806L163.303 96.2316C163.265 95.3004 163.191 94.481 163.116 93.736C163.005 93.0656 162.893 92.4696 162.676 91.8737C162.601 91.6502 162.527 91.3895 162.415 91.166C162.303 90.868 162.191 90.6445 162.117 90.4583C162.005 90.2721 161.893 90.0858 161.751 89.7506C161.639 89.5644 161.564 89.4154 161.49 89.3409C161.304 89.0802 160.863 88.7077 160.416 88.4097L160.081 88.1117C159.932 88.0373 159.715 87.8883 159.491 87.7393C158.864 87.3296 158.2 86.8826 157.685 86.1749C157.058 85.3182 156.909 84.536 156.722 83.6794H156.747ZM168.157 119.803C168.157 119.579 168.157 119.654 168.157 119.803V119.803ZM160.515 138.277C160.59 138.165 160.627 138.128 160.515 138.24V138.277ZM153.643 148.706C153.643 148.669 153.755 148.371 153.681 148.557L153.606 148.669L153.643 148.706ZM142.159 68.4454C142.159 68.4454 142.122 68.4454 142.159 68.4826V68.4454Z" fill="white"/>
<path d="M91.0873 144.424C91.1618 144.461 91.2735 144.573 91.3853 144.684C91.5343 144.833 91.6832 145.02 91.8633 145.131C91.8633 145.169 91.9378 145.206 91.975 145.243C92.2357 145.429 92.5275 145.653 92.7882 145.951C93.3035 146.249 93.7505 146.584 94.1912 146.919C94.4892 147.143 94.7809 147.329 94.9299 147.441L94.9672 147.478C95.7059 147.962 96.4446 148.484 97.1834 149.005C97.6614 149.191 98.0711 149.415 98.5491 149.638C99.6541 150.197 100.877 150.793 102.131 150.905C102.832 150.979 103.72 150.942 104.608 150.867C100.691 147.701 100.474 144.014 102.063 140.364C103.838 136.267 108.122 132.505 111.256 129.748C112.734 128.482 113.876 127.439 114.211 126.955C114.764 126.098 115.136 125.055 115.391 123.975C115.726 122.597 115.869 121.182 115.869 119.841C115.832 113.546 115.943 107.289 116.055 101.441C116.204 91.3097 116.353 82.4822 115.832 77.1558C115.608 74.5858 114.727 73.0587 114.093 71.8668L113.944 71.6061C106.632 69.8927 98.8781 72.0158 92.155 76.6344C86.8349 80.3218 82.1853 85.5736 78.9324 91.7939C75.6857 97.9769 73.873 105.091 74.2082 112.54C74.7235 123.081 79.6028 134.293 91.0128 144.349L91.0873 144.424ZM88.3559 147.776C88.3186 147.701 88.2441 147.664 88.1324 147.552C75.7974 136.639 70.4773 124.348 69.9249 112.727C69.5586 104.495 71.5513 96.5987 75.1332 89.7825C78.7151 82.9664 83.849 77.1558 89.7588 73.0959C97.6614 67.6206 106.93 65.2368 115.683 67.5834L116.645 67.8441L116.98 68.5146L117.315 68.7753L117.539 69.185C117.651 69.4457 117.762 69.5947 117.837 69.781C118.687 71.2708 119.792 73.2449 120.127 76.7461C120.68 82.2959 120.531 91.2352 120.351 101.478C120.239 107.326 120.127 113.621 120.165 119.841C120.165 121.48 119.978 123.268 119.575 124.981C119.209 126.508 118.65 127.998 117.837 129.264C117.173 130.27 115.807 131.499 114.069 132.989C111.225 135.484 107.346 138.874 105.98 142.077C105.129 144.089 105.427 146.174 108.233 148.148C108.308 147.403 108.382 146.621 108.531 145.914C109.009 143.679 109.934 141.742 111.747 140.587L115.956 137.831L114.994 142.822C114.882 143.493 114.658 143.977 114.404 144.498C114.292 144.722 114.18 144.945 114.143 145.131C113.845 146.025 113.702 146.994 113.628 148.037C113.591 149.08 113.665 150.197 113.851 151.352C113.926 151.612 114.075 152.022 114.255 152.432C114.367 152.804 114.478 153.14 114.696 153.735C114.807 154.108 114.845 154.331 114.882 154.592C114.919 154.667 114.919 154.704 114.919 154.741C114.956 154.816 115.068 155.039 115.143 155.263C115.254 155.486 115.366 155.71 115.509 156.119C115.875 157.088 116.024 158.093 116.21 159.099C116.21 159.211 116.21 159.322 116.322 159.918C116.359 159.993 116.397 160.105 116.397 160.216C116.62 160.887 116.8 161.595 116.508 162.6L116.173 163.792L114.994 164.09C112.777 164.686 112.001 163.606 111.598 162.116C111.523 161.818 111.486 161.632 111.449 161.408V161.297C111.263 160.142 110.822 159.322 110.375 158.429C110.226 158.168 110.077 157.907 109.897 157.572C109.562 156.864 109.27 156.194 109.047 155.561C108.972 155.412 108.898 155.263 108.86 155.114H108.01C107.346 155.114 106.644 155.114 105.905 155.151C105.719 155.151 105.316 155.188 104.943 155.188C103.869 155.263 102.801 155.337 101.696 155.225C99.6665 155.002 98.1145 154.257 96.6371 153.512C96.1591 153.288 95.7121 153.028 95.3086 152.879L95.0851 152.804L94.8989 152.655C94.0857 152.097 93.3469 151.575 92.571 151.054L92.5337 151.016C92.1302 150.756 91.9067 150.607 91.6832 150.42C91.2052 150.085 90.7583 149.75 90.3175 149.489L89.6905 149.154L89.4298 148.67V148.707C89.3181 148.633 89.1691 148.521 89.0635 148.409C88.8028 148.186 88.5855 147.999 88.3621 147.776H88.3559ZM89.3864 148.558C89.2746 148.372 89.4236 148.67 89.4236 148.707V148.67L89.3864 148.558Z" fill="#A7CF44"/>
<path fill-rule="evenodd" clip-rule="evenodd" d="M127.428 70.2315C127.614 70.0825 127.794 69.8962 127.906 69.6728C128.719 69.3748 129.495 69.0023 130.345 69.114C131.009 69.1885 131.748 69.4865 132.412 69.6728C132.779 69.7845 133.114 69.8962 133.449 70.0452C133.784 70.157 134.188 70.3804 134.486 70.3804C135.038 70.4549 135.628 70.0825 136.15 69.8962C137.664 69.3748 139.291 69.3003 140.656 70.008C141.023 70.1942 141.432 70.5667 141.91 70.6039C142.724 70.7529 143.239 70.5667 144.127 70.7157C146.746 71.0881 148.447 72.6525 149.776 74.5521C149.999 74.8501 150.254 75.2225 150.514 75.5578C150.775 75.893 151.03 76.3027 151.328 76.4889C152.253 77.1966 153.618 77.1594 154.723 77.5318C156.201 78.0161 157.417 79.3942 158.044 80.7351C158.305 81.331 158.597 82.076 158.746 82.7092C158.932 83.4913 159.007 84.3108 159.41 84.9067C159.851 85.4654 160.776 85.9124 161.403 86.3966C162.03 86.9181 162.806 87.4395 163.247 88.0727C163.545 88.4452 163.799 89.0411 164.06 89.5253C164.321 90.0468 164.538 90.6427 164.724 91.127C165.239 92.6168 165.351 94.1812 165.463 96.0808C165.5 96.4533 165.5 96.9375 165.612 97.3099C165.761 97.8686 166.425 98.3529 166.717 98.9116C167.015 99.4703 167.232 100.215 167.456 100.886C167.971 102.264 168.38 103.642 168.455 105.206C168.492 106.249 168.418 107.627 167.94 108.633C170.007 111.65 168.79 115.896 167.015 118.317C166.717 118.727 166.015 119.137 166.015 119.695C165.978 120.589 166.903 121.595 167.12 122.34C167.307 123.085 167.418 124.351 167.158 125.096C166.971 125.58 166.493 126.474 166.195 126.884C165.972 127.182 165.755 127.331 165.419 127.629C165.897 129.901 164.941 132.136 163.867 133.439C163.091 134.445 162.39 135.078 161.21 135.711C160.912 135.898 160.546 136.047 160.211 136.196C159.77 136.419 159.212 136.456 158.92 136.792C158.659 137.09 158.218 137.984 158.069 138.468C157.92 139.101 157.92 139.697 157.734 140.256C156.958 142.714 155.114 144.39 153.413 145.992C153.153 146.252 152.898 146.513 152.6 146.774C152.302 147.035 151.936 147.221 151.75 147.593C150.862 148.04 150.123 148.673 149.31 149.232C148.497 149.791 147.721 150.312 146.908 150.871C145.207 151.616 143.437 152.845 141.11 153.069C139.93 153.18 138.564 153.031 137.23 152.994C135.678 152.92 134.051 152.994 132.686 152.882C132.282 154.186 131.798 155.415 131.208 156.607C130.507 158.022 129.805 159.103 129.47 160.928C129.395 161.524 129.395 162.194 128.582 162.008C128.433 161.412 128.731 160.853 128.806 160.294C129.029 159.103 129.141 157.911 129.544 156.868C129.693 156.384 129.985 155.937 130.134 155.452C130.246 155.117 130.246 154.782 130.358 154.447C130.656 153.664 130.985 152.771 131.32 151.877C131.723 149.232 131.655 146.662 130.954 144.465C130.73 143.72 130.289 143.124 130.14 142.416C132.617 144.018 132.835 148.226 132.723 151.728C134.498 151.802 136.118 151.914 137.745 151.914C138.924 151.914 140.073 151.877 141.401 151.653C141.699 151.579 142.028 151.43 142.364 151.318C142.662 151.243 142.991 151.132 143.289 151.02C143.915 150.834 144.58 150.61 145.095 150.35C146.132 149.865 147.013 149.195 147.975 148.785C148.64 148.189 149.378 147.668 150.043 147.109C150.744 146.513 151.371 145.88 152.035 145.321C152.737 144.725 153.401 144.167 154.028 143.533C155.027 142.49 155.872 141.373 156.393 139.771C155.654 140.218 154.512 140.33 153.916 140.889C153.252 141.522 152.991 142.379 152.476 143.161C151.886 144.129 151.036 144.8 149.894 145.209C147.274 145.582 143.208 145.992 141.656 144.316C141.029 143.645 140.731 142.528 139.955 141.969C139.694 141.783 139.365 141.559 138.955 141.522C138.105 141.41 137.701 141.559 136.963 141.485C134.672 141.261 133.822 139.511 133.455 137.499C133.381 136.941 133.232 136.307 133.052 135.711C132.903 135.116 132.648 134.371 132.164 133.886C131.276 132.918 129.724 132.359 127.992 132.471C128.067 132.024 128.582 131.875 128.955 131.838C130.432 131.652 131.835 132.397 132.686 132.992C132.797 132.061 132.723 131.093 133.201 130.46C132.201 130.236 130.985 130.385 129.917 130.124C129.066 129.938 127.775 129.268 127.036 128.113C125.559 125.804 125.044 122.601 125.044 119.844C125.081 102.636 124.231 85.5027 125.044 76.9421C125.41 73.4409 126.67 71.653 127.409 70.2377L127.428 70.2315ZM127.645 126.17C127.794 126.431 128.086 126.766 128.309 127.064C128.533 127.362 128.75 127.734 128.973 127.958C130.265 129.187 132.257 129.224 134.548 128.852C135.914 127.436 139.235 128.144 141.861 127.958C144.04 127.772 146.659 127.585 148.472 126.841C148.584 126.654 148.733 126.543 148.913 126.468C150.167 124.755 151.607 123.19 153.749 122.408C154.227 122.222 154.785 122.11 155.189 121.924C155.487 121.402 156.002 121.067 156.368 120.509C156.629 120.062 156.704 119.503 157.033 119.168C157.368 118.758 158.175 118.46 158.696 118.274C158.845 118.199 159.063 118.236 159.1 118.088C159.361 118.125 159.578 117.864 159.839 117.715C160.137 117.603 160.466 117.529 160.652 117.268C161.242 117.045 161.651 116.635 162.129 116.3C162.241 116.113 162.39 115.778 162.57 115.853C162.421 116.374 162.017 116.709 161.571 117.119C160.869 117.752 160.205 118.236 159.392 118.721C158.951 118.981 158.429 119.168 158.1 119.466C157.734 119.838 157.473 120.546 157.175 121.067C156.877 121.626 156.586 122.296 156.213 122.669C155.698 123.228 155.034 123.228 154.22 123.414C151.744 123.861 150.825 126.207 149.161 127.734C148.534 128.219 147.646 128.591 146.684 128.926C145.542 129.187 144.245 129.448 142.767 129.373C141.954 129.336 141.103 129.224 140.29 129.224C138.409 129.262 136.156 128.815 134.933 129.858C133.716 130.9 133.791 133.47 134.008 135.445C134.082 136.525 134.523 137.977 135.15 138.834C135.448 139.281 136.255 139.989 136.628 140.212C137.59 140.771 139.173 140.622 140.396 140.808C141.432 141.814 142.134 143.117 143.239 144.011C143.978 144.086 144.089 144.347 144.828 144.235C145.163 144.421 145.604 144.384 146.082 144.421C146.97 144.496 147.888 144.458 148.813 144.272C150.843 143.862 151.545 142.186 152.433 140.696C152.731 140.51 153.022 140.287 153.246 139.989C152.768 139.542 152.284 139.132 151.806 138.648C150.843 138.983 150.03 139.691 149.149 139.877C149.372 139.504 149.85 139.244 150.185 139.132C151.588 138.015 152.991 136.86 153.916 135.258C154.214 134.737 154.32 133.992 154.878 133.657C154.581 135.556 153.774 136.934 152.849 138.164C153.327 138.536 153.625 139.132 154.14 139.504C154.841 139.355 155.356 138.946 155.803 138.573C155.99 138.424 156.207 138.35 156.393 138.201C157.169 137.568 157.206 136.264 157.982 135.631C158.318 135.333 158.796 135.147 159.162 134.923C160.714 133.955 162.117 133.061 163.116 131.608C163.632 130.863 164.296 130.007 164.19 128.74C163.712 128.368 163.302 127.921 162.564 127.921C162.415 127.883 162.198 127.958 162.011 127.958C161.496 127.921 161.086 127.585 160.646 127.511C160.056 126.543 158.318 126.468 157.287 126.878C156.772 127.064 156.213 127.399 155.698 127.623C155.108 127.883 154.556 128.256 154.034 128.293C155.288 127.176 156.877 125.947 158.907 125.798C159.205 125.798 159.683 125.76 160.012 125.835C160.9 126.058 161.415 127.176 162.489 127.325C163.079 127.399 163.594 126.99 164.265 127.176C165.227 126.282 166.003 125.127 165.966 123.488C165.891 122.036 165.078 121.067 164.786 119.913C163.898 119.056 162.309 118.907 160.764 118.683C160.987 118.385 161.428 118.385 161.8 118.348C163.017 118.274 164.054 118.236 165.121 118.46C166.195 117.305 167.3 115.629 167.778 113.767C167.927 113.134 168.039 112.761 168.002 112.165C167.89 110.564 167.487 109.446 166.897 108.478C167.263 107.658 167.083 106.727 167.338 105.908C167.226 103.896 166.599 101.997 166.121 100.321C166.046 100.023 165.68 99.613 165.531 99.3523C165.196 98.8309 164.718 98.5329 164.457 98.0114C164.196 97.49 164.234 96.4471 164.196 95.8139C163.898 91.9029 162.204 88.6625 159.361 86.7629C158.771 87.4706 158.032 88.2527 156.921 88.29C157.033 88.29 156.921 88.141 156.921 88.1038C157.958 87.8058 158.1 86.8374 158.473 85.9434C157.771 85.0495 157.622 83.7086 157.182 82.554C156.958 81.9953 156.629 81.5111 156.406 80.9524C155.332 79.4252 153.084 79.09 151.272 78.3451C151.383 78.8665 151.235 79.4252 151.458 79.9094C151.57 80.1329 151.824 80.3936 152.01 80.6171C152.675 81.4366 153.339 82.703 153.19 84.0066C152.855 83.2989 152.675 82.8519 152.228 82.2187C151.75 81.5483 151.228 80.9151 150.49 80.5054C149.565 79.9839 148.609 79.5742 147.311 79.5742C147.348 79.1273 147.901 79.1273 148.199 79.09C148.975 79.0528 149.751 79.4252 150.341 79.4625C150.154 78.7548 150.303 78.3451 150.415 77.7119C148.975 76.4455 148.087 74.6576 146.355 73.6147C145.952 73.354 145.393 73.056 144.878 72.8325C144.325 72.609 143.624 72.2366 142.885 72.1993C142.295 72.1993 141.557 72.3856 140.967 72.1993C140.743 72.1621 140.563 71.8641 140.34 71.7151C139.049 70.9329 137.534 70.8957 136.094 71.5661C136.497 72.3483 136.534 73.8754 136.205 74.7321C135.945 75.4398 135.169 76.1103 134.542 76.669C133.84 77.3022 133.25 78.0471 132.586 78.3451C132.735 77.8236 133.139 77.5629 133.474 77.2649C134.25 75.8868 136.317 74.0617 135.28 71.8641C134.616 71.9386 133.915 71.6406 133.213 71.2682C132.698 71.0447 132.214 70.8957 131.699 70.7467C131.512 70.6722 131.363 70.5605 131.183 70.5232C130.631 70.4487 129.706 70.6722 129.191 70.9329C128.564 71.2309 128.154 71.8641 127.713 72.5718C127.415 73.0933 127.198 73.652 126.974 74.1734C126.788 74.6204 126.496 74.9556 126.347 75.2908C126.087 75.9985 126.422 77.1532 126.422 77.7119C126.863 78.2333 127.899 78.4941 128.675 78.1216C129.302 77.5629 130.004 77.0787 130.519 76.4082C130.854 75.9613 130.854 75.3653 131.332 75.0301C131.407 75.3653 131.221 75.775 131.221 76.1847C130.631 76.7435 130.482 77.8236 129.855 78.5686C129.042 79.4625 127.527 80.1329 126.422 79.1645C126.496 80.1329 126.124 80.9151 126.236 81.809C126.347 82.9637 126.751 84.1556 126.496 85.1985C127.459 85.124 128.415 85.3102 129.414 85.4592C130.004 85.571 130.594 85.571 131.115 85.72C131.556 85.8689 131.965 86.2414 132.369 86.4649C132.81 86.6884 133.294 86.9119 133.623 87.2098C133.809 86.8001 134.213 86.5394 134.473 86.1669C135.616 85.4965 136.801 84.4163 138.608 84.7515C137.869 85.1613 136.944 85.3847 136.317 86.0179C135.69 86.1669 135.026 86.7256 134.728 87.2471C134.175 88.1038 134.765 88.3272 135.355 88.737C135.69 88.9977 135.945 89.2584 136.168 89.4446C136.832 89.9289 137.571 90.2268 138.049 90.6365C137.826 91.009 137.161 90.8228 136.721 90.6365C135.094 90.0406 133.654 88.29 132.363 87.3961C130.848 86.6884 128.005 85.9807 126.267 86.8374C126.341 87.6568 126.527 88.4017 126.565 89.2212C126.639 90.4131 126.341 91.605 126.453 92.7596C126.453 93.0203 126.639 93.3183 126.676 93.5791C126.751 94.324 126.825 95.1434 126.863 95.8511C126.863 96.6333 126.565 97.3037 126.639 98.0114C126.676 98.6074 126.863 99.2033 126.9 99.762C127.012 101.103 126.565 102.295 126.422 103.71C126.161 105.647 126.788 107.472 126.72 109.26C128.086 109.521 129.302 109.297 130.562 109.111C131.525 108.999 132.226 108.329 133.077 108.18C133.337 108.143 133.629 108.105 133.853 108.105C135.442 108.031 137.031 108.813 138.508 108.813C139.396 108.776 140.06 108.254 140.135 107.509C140.247 106.541 139.322 105.796 139.247 104.828C139.21 104.418 139.322 103.71 139.762 103.636C139.613 105.871 141.128 106.243 141.463 107.882C142.978 108.105 144.418 108.664 145.561 109.372C146.225 110.228 147.591 110.601 147.74 111.83C146.666 111.011 145.225 110.042 143.754 109.372C142.829 108.999 141.463 108.627 140.65 109.26C141.314 110.042 142.202 111.718 141.277 112.761C140.538 113.394 139.539 113.469 138.583 113.767C138.397 113.804 138.217 113.99 137.993 114.065C137.807 114.177 137.515 114.177 137.292 114.251C135.299 114.959 133.747 116.188 132.934 117.901C132.71 117.492 132.971 117.119 133.083 116.821C133.232 116.486 133.344 116.076 133.486 115.815C134.337 114.326 136.733 113.73 138.434 113.134C138.875 112.985 139.396 112.873 139.725 112.687C140.762 112.165 140.725 110.638 139.949 109.819C139.098 110.005 138.359 109.93 137.621 109.781C136.547 109.595 135.591 109.148 134.629 109.037C133.188 108.85 132.375 109.707 131.45 110.005C130.823 110.228 130.084 110.34 129.383 110.452C128.458 110.601 127.539 110.489 126.465 110.228C125.95 111.793 126.577 113.543 126.577 115.182C126.614 116.411 126.062 117.678 126.428 118.981C126.906 119.354 127.831 119.503 128.682 119.391C129.122 119.317 129.457 118.944 129.787 119.13C129.197 119.95 127.757 120.062 126.645 120.211C127.086 122.259 126.869 124.568 127.645 126.17Z" fill="white"/>
<path fill-rule="evenodd" clip-rule="evenodd" d="M140.278 72.9883C141.203 73.9939 141.867 75.7073 141.681 77.5697C142.122 77.5324 142.643 77.1972 143.121 77.0854C143.674 76.9737 144.263 76.9365 144.636 77.2344C142.898 77.4952 141.904 78.0911 141.24 79.5065C140.688 80.6239 140.352 81.7041 140.315 83.3802C139.725 82.5607 139.651 81.4061 139.837 80.2142C139.502 80.2514 139.359 80.5494 139.098 80.6984C138.732 80.9219 138.248 80.9591 137.919 81.2198C137.919 80.7356 138.397 80.5122 138.732 80.2514C139.03 79.9907 139.322 79.6555 139.694 79.4692C140.03 78.9478 140.433 78.5008 140.694 77.9421C140.88 76.9365 140.955 75.7818 140.768 74.6271C140.619 73.9195 140.179 73.4352 140.29 72.9883H140.278Z" fill="white"/>
<path fill-rule="evenodd" clip-rule="evenodd" d="M137.913 82.0043C137.913 82.6375 137.174 82.7865 136.771 83.159C135.48 83.6432 134.368 83.5687 133.226 83.0845C132.487 82.7493 131.823 82.0788 131.196 81.9671C130.495 81.8181 129.98 81.9298 129.353 81.8181C129.613 81.2221 130.532 81.2594 131.016 81.3339C131.829 81.4084 132.68 81.7808 133.599 82.0416C134.486 82.3023 135.337 82.712 136.113 82.6748C136.814 82.6003 137.292 82.2278 137.919 82.0043H137.913Z" fill="white"/>
<path fill-rule="evenodd" clip-rule="evenodd" d="M148.032 83.6406H148.144C148.957 84.3856 149.95 84.9815 150.471 86.0617C150.695 86.5086 150.732 87.1046 150.949 87.5143C151.247 87.9985 151.539 88.52 151.763 89.1532C151.949 89.7119 152.315 90.3451 152.39 90.8665C152.427 91.09 152.315 91.4252 152.39 91.6487C152.539 92.0957 153.352 92.3191 153.718 92.6171C154.494 92.1702 154.457 90.941 154.823 90.0843C155.227 90.6803 155.047 92.3564 154.637 92.9896C155.264 93.5111 156.077 94.107 156.443 94.9264C156.741 95.5596 156.921 96.3046 157.443 96.826C157.629 95.9693 158.07 95.3734 158.697 94.9637C158.473 96.1928 157.921 97.3102 158.033 98.8001C158.107 100.067 158.473 101.296 158.511 102.488C158.07 102.003 157.884 101.258 157.66 100.588C157.474 99.9175 157.219 99.1726 157.145 98.4276C157.145 98.2414 157.182 98.0924 157.145 97.9062C157.033 97.4592 156.406 96.975 156.145 96.5281C155.779 96.0066 155.518 95.5596 155.295 95.0754C155.034 94.8892 154.997 94.6285 154.817 94.405C154.078 93.5855 152.787 93.3993 151.899 92.8034C150.608 93.5111 150.72 95.5224 151.123 97.124C151.235 97.571 151.49 98.0179 151.676 98.5021C151.974 99.4706 152.34 100.402 152.855 101.221C153.116 101.631 153.557 101.929 153.594 102.413C153.228 102.525 153.079 102.078 152.892 101.854C152.34 101.109 151.713 100.364 151.303 99.4333C150.751 98.2042 150.229 96.8633 149.9 95.5969C149.348 95.9321 148.46 96.0811 147.647 95.9693C147.423 96.677 147.572 97.3475 147.423 97.9807C147.237 98.6139 146.871 99.0981 146.759 99.6568C146.61 100.215 146.647 100.849 146.759 101.482C146.796 101.743 146.983 102.003 147.02 102.264C147.02 102.339 146.945 102.413 146.983 102.488C147.094 103.009 147.423 103.605 147.721 104.052C148.684 105.43 150.788 105.616 152.265 106.547C152.781 106.659 153.302 106.994 153.78 107.292C154.482 107.702 155.109 108.037 155.624 108.633C155.99 109.043 156.325 109.564 156.437 110.272C156.549 111.129 156.4 111.911 156.841 112.507C157.139 112.954 157.579 113.14 157.617 113.848C157.654 114.295 157.393 114.891 157.356 115.226C157.281 116.045 157.654 116.604 157.579 117.237C156.505 116.902 156.617 115.375 156.58 113.997C156.139 114.369 155.58 114.854 154.879 114.779C155.065 113.96 155.984 113.773 155.916 112.879C155.841 112.246 155.326 111.837 155.289 111.129C155.214 110.533 155.326 109.9 155.065 109.49C153.991 107.739 151.26 107.032 149.118 106.51C148.379 106.138 147.976 105.877 147.454 105.281C146.79 104.611 146.418 103.791 146.089 102.786C145.865 102.152 145.685 101.445 145.313 100.923C145.127 100.625 144.462 100.067 144.133 99.8803C143.91 99.7685 143.432 99.8058 143.395 99.3961C144.208 99.1726 145.095 99.545 145.648 99.9175C145.573 97.9807 146.79 96.7143 146.647 94.8147C146.61 94.2932 146.498 93.809 146.349 93.3248C146.2 92.9523 145.871 92.5799 145.946 92.0957C146.759 92.5799 147.051 93.66 147.461 94.6285C148.237 94.703 149.162 94.554 149.602 94.1442C149.789 93.3993 150.08 92.8779 150.565 92.3564C150.788 92.0957 151.378 91.8349 151.378 91.4625C151.378 90.5685 150.825 89.8609 150.602 89.1532C150.416 88.6317 150.416 88.073 150.236 87.5143C149.832 86.2479 148.982 84.9443 148.243 84.1993C148.057 83.9758 148.019 83.9014 148.019 83.6406H148.032Z" fill="white"/>
<path fill-rule="evenodd" clip-rule="evenodd" d="M139.651 92.0207C139.614 91.5365 140.129 91.4992 140.39 91.3502C141.57 90.717 141.979 89.2644 141.905 87.4021C141.868 86.5826 141.719 85.7632 141.57 85.0183C141.719 85.0183 141.681 84.9065 141.756 84.832C143.562 86.0984 143.345 89.5996 141.868 91.2013C141.39 91.6855 140.614 92.0207 139.651 92.0207Z" fill="white"/>
<path fill-rule="evenodd" clip-rule="evenodd" d="M143.463 96.5027C142.668 95.0563 141.837 93.7589 140.061 93.5292C139.459 93.4547 138.59 93.5664 138.019 93.2995C137.789 93.225 137.261 92.8029 137.038 92.6166C135.753 91.5116 134.921 89.8355 133.487 88.805C132.922 88.6126 132.394 88.3084 131.749 88.3891C130.501 88.5443 130.011 89.5686 129.297 90.2204C129.148 88.8485 130.091 87.5138 131.376 87.3648C132.699 87.2531 134.095 87.8614 135.002 88.6995C135.796 89.463 136.591 90.984 137.572 91.822C138.404 92.4676 140.105 92.089 141.011 92.5856C142.296 93.2684 143.426 94.7583 143.463 96.5089V96.5027Z" fill="white"/>
<path fill-rule="evenodd" clip-rule="evenodd" d="M130.96 91.1289C131.562 92.0787 131.867 93.1464 132.506 93.9845C133.189 94.897 134.132 95.4309 135.039 96.0765C135.188 96.1138 135.604 96.1883 135.492 96.5732C133.04 95.8468 130.811 94.3259 130.96 91.1289Z" fill="white"/>
<path fill-rule="evenodd" clip-rule="evenodd" d="M166.27 97.8679C166.308 97.8679 166.308 97.9051 166.308 97.9424C165.78 99.5067 165.439 100.99 165.215 102.549C165.066 103.846 165.631 105.367 164.911 106.546C165.594 106.962 165.854 108.067 166.724 108.297C167.555 108.564 168.12 107.8 168.878 107.571C168.648 108.52 168.046 109.092 167.139 109.359C166.99 111.146 166.649 112.86 165.327 113.549C165.327 113.245 165.594 112.978 165.78 112.748C165.929 111.91 166.121 111.339 166.308 110.575C166.382 109.278 165.854 108.216 164.985 107.72C164.607 107.49 163.93 107.453 163.514 107.149C163.514 107.037 163.477 106.956 163.402 106.919C163.669 106.155 164.383 105.355 164.458 104.442C164.495 103.834 164.495 103.225 164.495 102.691C164.532 101.245 165.252 100.252 165.587 98.9605C165.892 98.8053 165.817 98.1969 166.078 97.8927C166.152 97.8927 166.264 97.93 166.264 97.8555L166.27 97.8679Z" fill="white"/>
<path fill-rule="evenodd" clip-rule="evenodd" d="M139.043 100.159C138.136 100.271 137.044 99.7806 136.057 99.7806C134.921 99.8178 133.753 100.24 132.884 100.693C132.201 101.035 131.488 101.339 131.072 101.873C130.767 102.251 130.693 102.636 130.352 102.94C130.352 101.873 130.916 100.848 131.748 100.196C132.164 99.8923 132.804 99.5881 133.487 99.4329C135.032 99.0543 136.659 98.7066 138.055 99.4702C138.434 99.6626 138.776 99.8861 139.036 100.153L139.043 100.159Z" fill="white"/>
<path fill-rule="evenodd" clip-rule="evenodd" d="M155.394 113.602C155.245 113.981 154.711 113.832 154.413 113.944C153.693 114.136 153.277 114.744 152.824 115.16C152.52 116.154 152.334 116.948 151.918 117.823C151.576 118.55 150.974 119.425 150.217 119.611C148.292 120.145 146.517 119.115 144.63 118.618C144.363 118.544 144.102 118.506 143.835 118.426C142.327 118.01 140.098 117.854 138.509 117.966C138.397 117.774 138.205 117.892 138.019 117.737C138.093 117.544 138.397 117.432 138.583 117.395C139.111 117.24 139.831 117.203 140.322 117.203C141.83 117.203 143.19 117.507 144.549 117.848C145.232 118.003 145.834 118.19 146.703 118.308C147.684 118.419 149.385 118.724 150.217 117.848C151.012 116.973 150.9 115.067 151.843 114.229C152.563 113.583 154.258 113.279 155.394 113.583V113.602Z" fill="white"/>
<path fill-rule="evenodd" clip-rule="evenodd" d="M136.554 119.813C136.026 120.272 135.194 120.458 134.704 120.955C134.176 121.451 133.531 122.364 133.946 123.276C134.133 123.692 134.549 124.003 134.853 124.381C135.082 124.648 135.418 124.878 135.455 125.22C135.151 125.331 135.002 124.99 134.698 124.99C134.549 124.648 134.207 124.611 133.94 124.419C133.034 123.655 133.071 122.668 132.165 122.016C131.898 121.824 131.563 121.712 131.258 121.6C130.694 121.371 129.899 121.104 129.142 121.141C129.328 120.533 130.122 120.682 130.731 120.762C131.296 120.874 132.016 121.066 132.543 121.333C132.773 121.408 133.071 121.6 133.071 121.6C133.183 121.6 133.45 121.222 133.562 121.104C133.866 120.725 134.126 120.421 134.505 120.036C135.033 119.881 136.132 119.502 136.548 119.806L136.554 119.813Z" fill="white"/>
<path fill-rule="evenodd" clip-rule="evenodd" d="M156.909 129.221C156.567 129.637 156.226 129.947 155.773 130.288C155.357 130.555 154.45 131.089 153.811 131.238C153.699 131.275 153.469 131.238 153.32 131.275C152.83 131.431 151.998 131.431 151.396 131.468C151.092 131.468 150.601 131.468 150.341 131.542C149.813 131.735 149.888 132.573 149.658 133.107C149.546 133.374 149.354 133.523 149.316 133.833C148.485 134.864 147.2 135.435 145.579 135.664C145.846 137.682 144.22 138.75 143.084 139.55C143.27 138.979 143.841 138.445 144.065 137.607C144.176 137.148 144.332 136.391 144.214 136.124C144.102 135.857 143.456 135.59 143.158 135.397C142.742 135.131 142.364 134.982 142.252 134.485C142.519 134.373 142.668 134.64 142.854 134.715C143.494 134.944 144.363 134.944 145.045 134.907C145.648 134.833 146.256 134.603 146.746 134.373C148.292 133.802 148.938 132.585 149.242 130.872C149.844 130.375 150.943 130.717 151.775 130.642C151.961 130.642 152.079 130.531 152.228 130.531C152.867 130.419 153.55 130.456 154.152 130.338C155.096 130.146 156.151 129.73 156.648 129.159C156.797 129.121 156.834 129.196 156.915 129.233L156.909 129.221Z" fill="white"/>
<path fill-rule="evenodd" clip-rule="evenodd" d="M156.716 130.17C156.754 130.282 156.449 130.362 156.487 130.17C156.598 130.17 156.636 130.095 156.716 130.17Z" fill="white"/>
<path fill-rule="evenodd" clip-rule="evenodd" d="M126.652 120.21C127.756 120.061 129.197 119.949 129.793 119.13C129.457 118.943 129.128 119.316 128.688 119.39C127.837 119.502 126.912 119.353 126.434 118.981C126.068 117.677 126.62 116.411 126.583 115.181C126.583 113.543 125.956 111.792 126.471 110.228C127.545 110.488 128.464 110.6 129.389 110.451C130.091 110.339 130.829 110.228 131.456 110.004C132.381 109.706 133.195 108.849 134.635 109.036C135.597 109.147 136.553 109.594 137.627 109.781C138.366 109.93 139.104 110.004 139.955 109.818C140.731 110.637 140.768 112.164 139.731 112.686C139.396 112.872 138.881 112.984 138.44 113.133C136.739 113.729 134.343 114.325 133.493 115.815C133.344 116.075 133.232 116.485 133.089 116.82C132.977 117.118 132.723 117.491 132.94 117.9C133.753 116.187 135.305 114.958 137.298 114.25C137.521 114.176 137.813 114.176 137.999 114.064C138.223 113.989 138.403 113.803 138.589 113.766C139.551 113.468 140.545 113.394 141.283 112.76C142.208 111.717 141.321 110.041 140.656 109.259C141.47 108.626 142.835 108.998 143.76 109.371C145.238 110.041 146.678 111.01 147.746 111.829C147.597 110.6 146.231 110.228 145.567 109.371C144.424 108.663 142.984 108.104 141.47 107.881C141.134 106.242 139.626 105.87 139.769 103.635C139.328 103.709 139.216 104.417 139.253 104.827C139.328 105.795 140.253 106.54 140.141 107.509C140.067 108.253 139.402 108.775 138.515 108.812C137.037 108.812 135.448 108.03 133.859 108.104C133.635 108.104 133.344 108.142 133.083 108.179C132.232 108.328 131.531 108.998 130.569 109.11C129.315 109.296 128.092 109.52 126.726 109.259C126.8 107.471 126.173 105.646 126.428 103.709C126.577 102.294 127.018 101.102 126.906 99.7611C126.869 99.2024 126.683 98.6065 126.645 98.0105C126.571 97.3029 126.869 96.6324 126.869 95.8502C126.832 95.1425 126.757 94.3231 126.683 93.5782C126.645 93.3174 126.459 93.0195 126.459 92.7587C126.347 91.6041 126.645 90.4122 126.571 89.2203C126.534 88.4008 126.347 87.6559 126.273 86.8365C128.011 85.9798 130.854 86.6875 132.369 87.3952C133.66 88.2891 135.1 90.0397 136.727 90.6357C137.168 90.8219 137.832 91.0081 138.055 90.6357C137.577 90.2259 136.839 89.928 136.174 89.4438C135.951 89.2575 135.696 88.9968 135.361 88.7361C134.771 88.3263 134.182 88.1029 134.734 87.2462C135.032 86.7247 135.696 86.166 136.323 86.017C136.95 85.3838 137.875 85.1604 138.614 84.7506C136.807 84.4154 135.622 85.4956 134.48 86.166C134.219 86.5385 133.815 86.7992 133.629 87.2089C133.294 86.911 132.816 86.6875 132.375 86.464C131.972 86.2405 131.562 85.8681 131.121 85.7191C130.606 85.5701 130.016 85.5701 129.42 85.4583C128.421 85.3094 127.465 85.1231 126.503 85.1976C126.763 84.1547 126.354 82.9628 126.242 81.8081C126.13 80.9142 126.503 80.132 126.428 79.1636C127.533 80.132 129.048 79.4616 129.861 78.5677C130.488 77.8227 130.637 76.7426 131.227 76.1839C131.227 75.7741 131.413 75.3644 131.338 75.0292C130.86 75.3644 130.86 75.9604 130.525 76.4073C130.01 77.0778 129.308 77.562 128.681 78.1207C127.905 78.4932 126.875 78.2324 126.428 77.711C126.428 77.1523 126.093 75.9976 126.354 75.2899C126.503 74.9547 126.794 74.6195 126.981 74.1725C127.204 73.6511 127.421 73.0924 127.719 72.5709C128.16 71.8632 128.57 71.23 129.197 70.932C129.712 70.6713 130.637 70.4478 131.189 70.5223C131.376 70.5596 131.525 70.6713 131.705 70.7458C132.22 70.8948 132.704 71.0438 133.219 71.2673C133.921 71.6397 134.622 71.9377 135.287 71.8632C136.323 74.0608 134.25 75.8859 133.48 77.264C133.145 77.562 132.741 77.8227 132.592 78.3442C133.257 78.0462 133.846 77.3013 134.548 76.6681C135.175 76.1094 135.951 75.4389 136.212 74.7312C136.547 73.8746 136.51 72.3474 136.1 71.5652C137.54 70.8948 139.055 70.9321 140.346 71.7142C140.569 71.8632 140.749 72.1612 140.973 72.1984C141.563 72.3847 142.301 72.1984 142.891 72.1984C143.63 72.2357 144.331 72.6082 144.884 72.8316C145.399 73.0551 145.958 73.3531 146.361 73.6138C148.1 74.6567 148.981 76.4446 150.421 77.711C150.309 78.3442 150.16 78.7539 150.347 79.4616C149.757 79.4243 148.981 79.0519 148.205 79.0891C147.907 79.1264 147.355 79.1264 147.317 79.5733C148.609 79.5733 149.571 79.983 150.496 80.5045C151.234 80.9142 151.75 81.5474 152.234 82.2179C152.675 82.8511 152.861 83.298 153.196 84.0057C153.345 82.7021 152.681 81.4357 152.017 80.6162C151.83 80.3928 151.576 80.132 151.464 79.9086C151.241 79.4243 151.39 78.8656 151.278 78.3442C153.084 79.0891 155.338 79.4243 156.412 80.9515C156.635 81.5102 156.964 81.9944 157.188 82.5531C157.629 83.7077 157.777 85.0486 158.479 85.9425C158.113 86.8365 157.964 87.8049 156.927 88.1029C156.927 88.1401 157.039 88.2891 156.927 88.2891C158.032 88.2519 158.771 87.4697 159.367 86.762C162.21 88.6616 163.911 91.9021 164.203 95.813C164.24 96.4462 164.203 97.4891 164.463 98.0105C164.724 98.532 165.202 98.83 165.537 99.3514C165.686 99.6122 166.053 100.022 166.127 100.32C166.605 101.996 167.232 103.896 167.344 105.907C167.083 106.726 167.269 107.657 166.903 108.477C167.493 109.445 167.902 110.563 168.008 112.164C168.045 112.76 167.933 113.133 167.784 113.766C167.306 115.628 166.195 117.304 165.128 118.459C164.054 118.236 163.023 118.273 161.806 118.347C161.44 118.385 160.993 118.385 160.77 118.683C162.322 118.906 163.911 119.055 164.792 119.912C165.09 121.066 165.897 122.035 165.972 123.487C166.009 125.126 165.233 126.281 164.271 127.175C163.607 126.989 163.091 127.398 162.495 127.324C161.421 127.175 160.906 126.057 160.019 125.834C159.683 125.759 159.205 125.797 158.914 125.797C156.884 125.946 155.294 127.175 154.04 128.292C154.556 128.255 155.114 127.883 155.704 127.622C156.219 127.398 156.778 127.063 157.293 126.877C158.33 126.467 160.062 126.542 160.652 127.51C161.092 127.585 161.502 127.92 162.017 127.957C162.204 127.957 162.421 127.883 162.57 127.92C163.309 127.92 163.712 128.367 164.196 128.739C164.308 130.006 163.644 130.862 163.122 131.607C162.123 133.06 160.72 133.954 159.168 134.922C158.802 135.146 158.318 135.332 157.989 135.63C157.213 136.263 157.175 137.567 156.399 138.2C156.213 138.349 155.996 138.423 155.81 138.572C155.369 138.945 154.847 139.355 154.146 139.504C153.631 139.131 153.333 138.535 152.855 138.163C153.78 136.934 154.593 135.555 154.885 133.656C154.332 133.991 154.22 134.736 153.922 135.257C152.997 136.859 151.595 138.014 150.192 139.131C149.856 139.243 149.378 139.504 149.155 139.876C150.043 139.69 150.856 138.982 151.812 138.647C152.29 139.131 152.774 139.541 153.252 139.988C153.029 140.286 152.737 140.509 152.439 140.695C151.551 142.185 150.85 143.861 148.82 144.271C147.895 144.457 146.976 144.495 146.088 144.42C145.61 144.383 145.163 144.42 144.834 144.234C144.095 144.346 143.984 144.085 143.245 144.01C142.14 143.117 141.439 141.813 140.402 140.807C139.185 140.621 137.596 140.77 136.634 140.211C136.267 139.988 135.454 139.28 135.156 138.833C134.529 137.976 134.082 136.524 134.014 135.444C133.79 133.47 133.716 130.9 134.939 129.857C136.156 128.814 138.409 129.261 140.296 129.223C141.11 129.223 141.96 129.335 142.773 129.372C144.251 129.447 145.542 129.186 146.69 128.925C147.653 128.59 148.534 128.218 149.167 127.734C150.831 126.206 151.75 123.86 154.227 123.413C155.04 123.227 155.704 123.227 156.219 122.668C156.586 122.296 156.884 121.625 157.182 121.066C157.48 120.545 157.734 119.837 158.107 119.465C158.442 119.167 158.957 118.981 159.398 118.72C160.211 118.236 160.875 117.751 161.577 117.118C162.017 116.708 162.427 116.373 162.576 115.852C162.39 115.777 162.241 116.113 162.135 116.299C161.657 116.634 161.248 117.044 160.658 117.267C160.472 117.528 160.143 117.602 159.845 117.714C159.584 117.863 159.367 118.124 159.106 118.087C159.069 118.236 158.845 118.198 158.702 118.273C158.187 118.459 157.374 118.757 157.039 119.167C156.704 119.502 156.635 120.061 156.375 120.508C156.008 121.066 155.487 121.402 155.195 121.923C154.792 122.109 154.233 122.221 153.755 122.407C151.613 123.189 150.173 124.754 148.919 126.467C148.733 126.542 148.584 126.653 148.478 126.84C146.672 127.585 144.046 127.771 141.867 127.957C139.247 128.143 135.92 127.436 134.554 128.851C132.263 129.223 130.271 129.186 128.979 127.957C128.756 127.734 128.539 127.361 128.315 127.063C128.092 126.765 127.8 126.43 127.651 126.169C126.875 124.568 127.098 122.258 126.652 120.21ZM140.756 74.6257C140.942 75.7804 140.867 76.935 140.681 77.9407C140.42 78.4994 140.017 78.9463 139.682 79.4678C139.315 79.654 139.017 79.9893 138.719 80.25C138.384 80.5107 137.906 80.7342 137.906 81.2184C138.241 80.9577 138.719 80.9204 139.086 80.6969C139.346 80.548 139.489 80.25 139.824 80.2127C139.638 81.4046 139.713 82.5593 140.302 83.3787C140.34 81.7026 140.669 80.6224 141.227 79.505C141.892 78.0897 142.891 77.4937 144.623 77.233C144.257 76.935 143.661 76.9723 143.108 77.084C142.63 77.1957 142.109 77.531 141.668 77.5682C141.854 75.7059 141.19 73.9925 140.265 72.9868C140.153 73.4338 140.6 73.918 140.743 74.6257H140.756ZM136.106 82.671C135.33 82.7083 134.48 82.2986 133.592 82.0378C132.667 81.7771 131.816 81.4046 131.009 81.3301C130.531 81.2556 129.606 81.2184 129.346 81.8144C129.973 81.9261 130.488 81.8144 131.189 81.9633C131.816 82.0751 132.481 82.7455 133.219 83.0807C134.362 83.565 135.473 83.6395 136.764 83.1552C137.168 82.7828 137.906 82.6338 137.906 82.0006C137.279 82.2241 136.801 82.5965 136.1 82.671H136.106ZM148.255 84.1982C148.993 84.9431 149.844 86.2467 150.247 87.5131C150.434 88.0718 150.434 88.6305 150.614 89.152C150.837 89.8597 151.39 90.5674 151.39 91.4613C151.39 91.8338 150.8 92.0945 150.576 92.3552C150.098 92.8767 149.8 93.3981 149.614 94.1431C149.173 94.5528 148.248 94.7018 147.473 94.6273C147.069 93.6589 146.771 92.5787 145.958 92.0945C145.883 92.5787 146.219 92.9512 146.361 93.3236C146.51 93.8079 146.622 94.2921 146.659 94.8135C146.808 96.7131 145.585 97.9795 145.66 99.9163C145.107 99.5439 144.22 99.1714 143.406 99.3949C143.444 99.8046 143.922 99.7674 144.145 99.8791C144.48 100.065 145.145 100.624 145.325 100.922C145.691 101.443 145.877 102.151 146.101 102.784C146.436 103.79 146.802 104.609 147.466 105.28C147.982 105.876 148.391 106.137 149.13 106.509C151.272 107.031 154.003 107.738 155.077 109.489C155.338 109.899 155.226 110.532 155.301 111.128C155.338 111.835 155.853 112.245 155.928 112.878C156.002 113.772 155.077 113.958 154.891 114.778C155.592 114.852 156.145 114.368 156.592 113.996C156.629 115.374 156.517 116.901 157.591 117.236C157.666 116.603 157.293 116.044 157.368 115.225C157.405 114.89 157.666 114.294 157.628 113.847C157.591 113.139 157.15 112.953 156.853 112.506C156.412 111.91 156.555 111.128 156.449 110.271C156.337 109.563 156.008 109.042 155.636 108.632C155.121 108.036 154.494 107.701 153.792 107.291C153.314 106.993 152.793 106.658 152.277 106.546C150.8 105.615 148.695 105.429 147.733 104.051C147.435 103.604 147.106 103.008 146.995 102.486C146.957 102.412 147.032 102.337 147.032 102.263C146.995 102.002 146.808 101.741 146.771 101.481C146.659 100.848 146.622 100.214 146.771 99.6556C146.883 99.0969 147.249 98.6127 147.435 97.9795C147.584 97.3463 147.435 96.6759 147.659 95.9682C148.472 96.0799 149.36 95.9309 149.912 95.5957C150.247 96.8621 150.763 98.203 151.315 99.4321C151.719 100.363 152.352 101.108 152.904 101.853C153.091 102.077 153.24 102.524 153.606 102.412C153.569 101.928 153.128 101.63 152.867 101.22C152.352 100.401 151.979 99.4694 151.688 98.501C151.501 98.0168 151.247 97.5698 151.135 97.1228C150.732 95.5212 150.62 93.5099 151.911 92.8022C152.799 93.3981 154.09 93.5844 154.829 94.4038C155.015 94.6273 155.052 94.888 155.307 95.0742C155.53 95.5585 155.785 96.0054 156.157 96.5269C156.418 96.9738 157.045 97.458 157.157 97.905C157.194 98.0912 157.157 98.2402 157.157 98.4265C157.231 99.1714 157.492 99.9163 157.672 100.587C157.895 101.257 158.075 102.002 158.522 102.486C158.485 101.294 158.119 100.065 158.044 98.7989C157.933 97.3091 158.485 96.1917 158.709 94.9625C158.082 95.3722 157.635 95.9682 157.455 96.8249C156.939 96.3034 156.753 95.5585 156.455 94.9253C156.089 94.1058 155.276 93.5099 154.649 92.9884C155.052 92.3552 155.238 90.6791 154.835 90.0832C154.469 90.9398 154.5 92.169 153.73 92.616C153.364 92.318 152.551 92.0945 152.402 91.6475C152.327 91.4241 152.439 91.0888 152.402 90.8653C152.327 90.3439 151.961 89.7107 151.775 89.152C151.551 88.5188 151.259 87.9973 150.961 87.5131C150.738 87.1034 150.701 86.5075 150.483 86.0605C149.968 84.9803 148.969 84.3844 148.155 83.6394H148.044C148.044 83.9002 148.081 83.9747 148.267 84.1982H148.255ZM141.867 91.2006C143.344 89.599 143.568 86.0977 141.755 84.8313C141.681 84.9058 141.718 85.0176 141.569 85.0176C141.718 85.7625 141.867 86.582 141.904 87.4014C141.979 89.2637 141.569 90.7164 140.389 91.3496C140.129 91.4985 139.613 91.5358 139.651 92.02C140.613 92.02 141.389 91.6848 141.867 91.2006ZM139.092 94.4348C138.204 93.9506 136.547 94.3231 135.734 93.6899C134.771 92.8705 133.995 91.3806 133.219 90.6357C132.332 89.8162 130.966 89.2203 129.675 89.332C128.421 89.481 127.496 90.7846 127.645 92.1255C128.346 91.4923 128.824 90.4867 130.047 90.3377C130.674 90.2632 131.189 90.5612 131.748 90.7474C133.151 91.7531 133.964 93.3919 135.218 94.4721C135.442 94.6583 135.957 95.068 136.18 95.1425C136.733 95.4033 137.583 95.2915 138.173 95.366C139.911 95.5895 140.718 96.8559 141.494 98.2713C141.457 96.5579 140.352 95.1053 139.092 94.4348ZM133.704 98.3458C133.815 97.9733 133.406 97.8988 133.263 97.8616C132.375 97.2284 131.456 96.7069 130.786 95.813C130.159 94.9935 129.861 93.9506 129.271 93.0195C129.122 96.1482 131.301 97.6381 133.704 98.3458ZM163.613 99.6494C163.352 99.9474 163.427 100.543 163.135 100.692C162.8 101.959 162.098 102.927 162.061 104.343C162.061 104.864 162.061 105.46 162.024 106.056C161.949 106.95 161.248 107.732 160.987 108.477C161.061 108.514 161.099 108.589 161.099 108.7C161.502 108.998 162.173 109.036 162.539 109.259C163.389 109.743 163.905 110.786 163.83 112.053C163.644 112.798 163.464 113.356 163.315 114.176C163.129 114.399 162.874 114.66 162.874 114.958C164.165 114.287 164.501 112.611 164.65 110.861C165.537 110.6 166.127 110.041 166.35 109.11C165.612 109.334 165.059 110.079 164.246 109.818C163.396 109.594 163.141 108.514 162.471 108.104C163.172 106.95 162.62 105.46 162.769 104.194C162.992 102.666 163.321 101.214 163.843 99.6867C163.843 99.6494 163.843 99.6122 163.805 99.6122C163.805 99.6867 163.694 99.6494 163.619 99.6494H163.613ZM136.212 101.177C134.846 100.432 133.257 100.767 131.742 101.139C131.078 101.288 130.451 101.586 130.041 101.884C129.228 102.517 128.675 103.523 128.675 104.566C129.01 104.268 129.079 103.896 129.377 103.523C129.78 103.002 130.482 102.704 131.152 102.368C132.003 101.921 133.145 101.512 134.256 101.475C135.218 101.475 136.286 101.959 137.174 101.847C136.913 101.586 136.584 101.363 136.212 101.177ZM149.695 115.628C148.77 116.448 148.882 118.31 148.106 119.167C147.292 120.023 145.629 119.725 144.673 119.614C143.822 119.502 143.233 119.316 142.568 119.167C141.24 118.832 139.911 118.534 138.434 118.534C137.956 118.534 137.254 118.571 136.733 118.72C136.547 118.757 136.255 118.869 136.18 119.055C136.367 119.204 136.547 119.092 136.658 119.279C138.21 119.167 140.389 119.316 141.867 119.725C142.128 119.8 142.382 119.837 142.643 119.912C144.487 120.396 146.225 121.402 148.106 120.88C148.844 120.694 149.434 119.837 149.769 119.13C150.173 118.273 150.359 117.491 150.657 116.522C151.098 116.113 151.508 115.517 152.209 115.33C152.507 115.219 153.022 115.368 153.171 114.995C152.066 114.697 150.403 114.995 149.701 115.628H149.695ZM132.741 121.29C132.375 121.662 132.114 121.96 131.816 122.333C131.705 122.445 131.45 122.817 131.338 122.817C131.338 122.817 131.04 122.631 130.823 122.556C130.308 122.296 129.606 122.109 129.048 121.998C128.458 121.923 127.682 121.774 127.496 122.37C128.234 122.333 129.01 122.593 129.563 122.817C129.861 122.929 130.19 123.04 130.451 123.227C131.338 123.86 131.301 124.828 132.189 125.573C132.45 125.759 132.779 125.797 132.928 126.132C133.226 126.132 133.368 126.467 133.666 126.355C133.629 126.02 133.3 125.797 133.077 125.536C132.779 125.164 132.375 124.866 132.189 124.456C131.785 123.562 132.412 122.668 132.928 122.184C133.406 121.7 134.219 121.513 134.734 121.066C134.331 120.768 133.257 121.141 132.741 121.29ZM154.382 130.192C153.904 130.751 152.867 131.16 151.942 131.347C151.352 131.458 150.688 131.421 150.061 131.533C149.912 131.533 149.8 131.644 149.62 131.644C148.807 131.719 147.739 131.384 147.143 131.868C146.846 133.544 146.219 134.736 144.704 135.295C144.226 135.518 143.63 135.742 143.04 135.816C142.376 135.853 141.525 135.853 140.898 135.63C140.712 135.555 140.563 135.295 140.309 135.406C140.42 135.891 140.787 136.04 141.196 136.3C141.494 136.487 142.121 136.747 142.233 137.008C142.345 137.269 142.196 138.014 142.084 138.461C141.861 139.28 141.308 139.802 141.122 140.36C142.227 139.578 143.816 138.535 143.562 136.561C145.151 136.338 146.405 135.779 147.218 134.773C147.255 134.475 147.441 134.326 147.553 134.066C147.777 133.544 147.702 132.725 148.217 132.538C148.478 132.464 148.956 132.464 149.254 132.464C149.844 132.427 150.657 132.427 151.135 132.278C151.284 132.24 151.501 132.278 151.613 132.24C152.24 132.091 153.128 131.57 153.531 131.309C153.972 130.974 154.307 130.676 154.636 130.266C154.562 130.229 154.525 130.155 154.376 130.192H154.382ZM154.233 131.198C154.196 131.384 154.494 131.309 154.456 131.198C154.382 131.123 154.345 131.198 154.233 131.198Z" fill="black"/>
<path fill-rule="evenodd" clip-rule="evenodd" d="M119.302 49.6361C120.301 50.0086 127.13 17.3803 62.5439 28.4799C73.3642 32.0928 74.8789 34.1787 82.2289 42.224C90.5039 51.275 104.869 65.4661 119.308 49.6361H119.302ZM147.107 32.0556C147.107 32.0556 121.369 42.075 122.698 78.1238C116.273 40.9887 122.958 33.3965 147.107 32.0556Z" fill="#A7CF44"/>
<path fill-rule="evenodd" clip-rule="evenodd" d="M114.305 115.625C114.305 115.625 102.069 118.251 108.83 123.205C115.553 128.159 114.305 115.625 114.305 115.625Z" fill="#A7CF44"/>
<path fill-rule="evenodd" clip-rule="evenodd" d="M114.305 112.348C114.305 112.348 102.069 109.722 108.83 104.768C115.553 99.8143 114.305 112.348 114.305 112.348Z" fill="#A7CF44"/>
<path d="M122.84 135.695C130.693 135.695 137.081 142.133 137.081 150.054C137.081 157.975 130.7 164.413 122.84 164.413C114.981 164.413 108.562 157.975 108.562 150.054C108.562 142.133 114.944 135.695 122.84 135.695ZM118.234 147.807H127.409C127.751 148.49 127.937 149.253 127.937 150.054C127.937 150.855 127.751 151.618 127.409 152.301H118.234C117.893 151.618 117.707 150.855 117.707 150.054C117.707 149.253 117.893 148.49 118.234 147.807ZM122.84 138.172C123.219 138.172 123.598 138.209 123.977 138.247V145.522H131.457C130.439 143.579 128.812 141.978 126.813 141.102V143.238H127.608V142.17C128.744 142.853 129.725 143.809 130.476 144.951H125.001V138.402C129.57 139.24 133.195 142.741 134.294 147.236H131.01V147.695H134.368C134.517 148.459 134.598 149.259 134.598 150.054C134.598 150.849 134.524 151.656 134.368 152.413H131.01V152.872H134.294C133.201 157.367 129.576 160.868 125.001 161.75V155.2H130.476C129.719 156.305 128.775 157.255 127.608 157.981V156.876H126.813V159.012C128.812 158.137 130.439 156.572 131.457 154.629H123.977V161.867C123.598 161.905 123.219 161.942 122.84 161.942C122.425 161.942 122.046 161.905 121.667 161.867V154.629H114.187C115.205 156.572 116.831 158.13 118.83 159.012V156.876H118.036V157.981C116.9 157.255 115.919 156.305 115.168 155.2H120.643V161.75C116.074 160.874 112.449 157.367 111.387 152.872H114.634V152.413H111.275C111.126 151.649 111.046 150.849 111.046 150.054C111.046 149.259 111.12 148.452 111.275 147.695H114.634V147.236H111.387C112.442 142.741 116.068 139.24 120.643 138.402V144.951H115.168C115.925 143.809 116.906 142.859 118.036 142.17V143.238H118.83V141.102C116.831 141.978 115.205 143.579 114.187 145.522H121.667V138.247C122.046 138.209 122.425 138.172 122.84 138.172ZM117.44 147.31C117.061 147.993 116.838 148.757 116.8 149.595H112.945V150.507H116.8C116.838 151.345 117.067 152.109 117.44 152.792H128.241C128.583 152.109 128.806 151.345 128.843 150.507H132.698V149.595H128.843C128.806 148.757 128.576 147.993 128.241 147.31H117.44ZM119.557 149.483V150.625H126.087V149.483H119.557ZM122.84 137.483C115.931 137.483 110.375 143.12 110.375 150.054C110.375 156.988 115.925 162.625 122.84 162.625C129.756 162.625 135.269 156.988 135.269 150.054C135.269 143.12 129.719 137.483 122.84 137.483Z" stroke="black" stroke-width="6.35" stroke-miterlimit="10"/>
<path fill-rule="evenodd" clip-rule="evenodd" d="M122.84 135.695C130.693 135.695 137.081 142.133 137.081 150.054C137.081 157.975 130.7 164.413 122.84 164.413C114.981 164.413 108.562 157.975 108.562 150.054C108.562 142.133 114.944 135.695 122.84 135.695ZM118.234 147.807H127.409C127.751 148.49 127.937 149.253 127.937 150.054C127.937 150.855 127.751 151.618 127.409 152.301H118.234C117.893 151.618 117.707 150.855 117.707 150.054C117.707 149.253 117.893 148.49 118.234 147.807ZM122.84 138.172C123.219 138.172 123.598 138.209 123.977 138.247V145.522H131.457C130.439 143.579 128.812 141.978 126.813 141.102V143.238H127.608V142.17C128.744 142.853 129.725 143.809 130.476 144.951H125.001V138.402C129.57 139.24 133.195 142.741 134.294 147.236H131.01V147.695H134.368C134.517 148.459 134.598 149.259 134.598 150.054C134.598 150.849 134.524 151.656 134.368 152.413H131.01V152.872H134.294C133.201 157.367 129.576 160.868 125.001 161.75V155.2H130.476C129.719 156.305 128.775 157.255 127.608 157.981V156.876H126.813V159.012C128.812 158.137 130.439 156.572 131.457 154.629H123.977V161.867C123.598 161.905 123.219 161.942 122.84 161.942C122.425 161.942 122.046 161.905 121.667 161.867V154.629H114.187C115.205 156.572 116.831 158.13 118.83 159.012V156.876H118.036V157.981C116.9 157.255 115.919 156.305 115.168 155.2H120.643V161.75C116.074 160.874 112.449 157.367 111.387 152.872H114.634V152.413H111.275C111.126 151.649 111.046 150.849 111.046 150.054C111.046 149.259 111.12 148.452 111.275 147.695H114.634V147.236H111.387C112.442 142.741 116.068 139.24 120.643 138.402V144.951H115.168C115.925 143.809 116.906 142.859 118.036 142.17V143.238H118.83V141.102C116.831 141.978 115.205 143.579 114.187 145.522H121.667V138.247C122.046 138.209 122.425 138.172 122.84 138.172ZM117.44 147.31C117.061 147.993 116.838 148.757 116.8 149.595H112.945V150.507H116.8C116.838 151.345 117.067 152.109 117.44 152.792H128.241C128.583 152.109 128.806 151.345 128.843 150.507H132.698V149.595H128.843C128.806 148.757 128.576 147.993 128.241 147.31H117.44ZM119.557 149.483V150.625H126.087V149.483H119.557ZM122.84 137.483C115.931 137.483 110.375 143.12 110.375 150.054C110.375 156.988 115.925 162.625 122.84 162.625C129.756 162.625 135.269 156.988 135.269 150.054C135.269 143.12 129.719 137.483 122.84 137.483Z" fill="#A7CF44"/>
<path d="M72.5697 206.654V203.898H74.3203V188.012H72.5697V185.256H78.0388L83.7003 199.9V188.012H82.0056V185.256H88.4307V188.012H86.68V206.766H83.5327L77.3497 190.88V203.898H79.0196V206.654H72.5635H72.5697ZM91.7146 201.247V188.012H89.9888V185.256H97.0471V188.012H95.4082V201.055C95.4082 202.104 95.6007 202.849 95.9856 203.345C96.3705 203.817 96.9726 204.034 97.792 204.034C98.6115 204.034 99.2136 203.811 99.5985 203.345C99.9834 202.849 100.176 202.104 100.176 201.055V188.012H98.537V185.256H105.595V188.012H103.845V201.247C103.845 203.153 103.354 204.587 102.311 205.605C101.275 206.598 99.7661 207.095 97.7982 207.095C95.8304 207.095 94.3281 206.598 93.2852 205.605C92.2485 204.587 91.727 203.153 91.727 201.247H91.7146ZM110.009 206.654V203.898H112.089V187.931H109.68V191.519H107.166V185.262H120.73V191.519H118.16V187.931H115.751V203.898H117.887V206.654H110.009ZM127.701 194.108H129.781C130.681 194.108 131.339 193.94 131.749 193.587C132.159 193.258 132.351 192.674 132.351 191.904V190.085C132.351 189.285 132.159 188.732 131.774 188.428C131.364 188.124 130.625 187.987 129.533 187.987H127.701V194.108ZM122.257 206.654V203.898H124.008V188.012H122.257V185.256H129.775C132.072 185.256 133.661 185.616 134.561 186.361C135.492 187.081 135.927 188.316 135.927 190.085V191.495C135.927 192.792 135.653 193.729 135.132 194.338C134.586 194.971 133.655 195.356 132.345 195.548C133.686 195.716 134.642 196.045 135.163 196.542C135.685 197.038 135.927 197.808 135.927 198.888V203.91H137.677V206.667H132.345V199.056C132.345 198.174 132.152 197.597 131.767 197.262C131.383 196.957 130.644 196.79 129.551 196.79H127.689V203.904H129.328V206.66H122.245L122.257 206.654ZM138.615 206.654V203.898H140.365V188.012H138.615V185.256H145.809V188.012H144.034V203.898H145.809V206.654H138.615ZM147.442 200.75V198.131H155.127V200.75H147.442ZM156.99 200.695V191.265C156.99 189.142 157.511 187.571 158.548 186.466C159.56 185.392 161.062 184.84 163.03 184.84C164.998 184.84 166.5 185.392 167.543 186.466C168.555 187.571 169.076 189.142 169.076 191.265V200.695C169.076 202.265 168.778 203.563 168.201 204.581C167.599 205.599 166.724 206.288 165.575 206.679L169.021 210.348H165.19L162.235 207.064C160.485 206.871 159.175 206.238 158.3 205.158C157.424 204.109 156.99 202.619 156.99 200.688V200.695ZM160.708 200.862C160.708 201.967 160.87 202.768 161.255 203.289C161.639 203.786 162.242 204.034 163.03 204.034C163.818 204.034 164.427 203.786 164.805 203.289C165.19 202.768 165.383 201.967 165.383 200.862V191.041C165.383 189.936 165.19 189.136 164.805 188.639C164.421 188.118 163.849 187.869 163.03 187.869C162.211 187.869 161.633 188.118 161.255 188.639C160.87 189.136 160.708 189.936 160.708 191.041V200.862Z" fill="black"/>
</svg>
