<svg width="233" height="234" viewBox="0 0 233 234" fill="none" xmlns="http://www.w3.org/2000/svg">
<rect width="233" height="233" transform="translate(0 0.5)" fill="#FFF2EE"/>
<path fill-rule="evenodd" clip-rule="evenodd" d="M139.769 134.324C135.132 128.712 129.216 123.652 122.952 117.42C114.361 108.878 104.465 99.206 92.6644 89.7763C86.8477 85.1266 76.8779 81.9545 69.2361 82.1966C53.1765 81.9917 45.6526 90.515 45.7271 96.0959C45.9133 109.896 60.2596 112.143 71.6634 107.884C73.7554 106.581 72.2841 105.768 71.0612 107.053C55.821 114.223 48.1357 102.558 48.3406 96.4994C48.533 90.7323 58.3973 84.4686 68.4167 84.1148C80.0377 84.1458 89.5046 89.2238 98.4501 97.0953C109.09 106.457 121.127 124.701 124.206 136.974C129.769 135.025 134.995 133.653 139.769 134.33V134.324Z" fill="#92278F" stroke="#92278F" stroke-width="2" stroke-miterlimit="10"/>
<path fill-rule="evenodd" clip-rule="evenodd" d="M120.208 82.6784C118.799 82.3494 117.39 82.0204 115.981 81.6976C119.65 78.097 123.753 75.8498 128.359 77.768C134.791 80.4436 116.682 88.5262 110.474 92.406C101.964 97.7261 98.3258 100.004 89.8397 105.374C87.6794 104.424 85.5191 103.673 83.3525 102.723C96.6186 99.1105 109.562 91.5369 122.555 83.8579C124.61 82.4239 125.106 81.6976 124.815 80.6174C124.063 79.7359 122.524 80.4187 120.196 82.6784H120.208Z" fill="#92278F" stroke="#92278F" stroke-width="2" stroke-miterlimit="10"/>
<path fill-rule="evenodd" clip-rule="evenodd" d="M126.652 95.1884C128.899 94.1827 127.409 93.6054 127.589 91.1657C127.775 88.7323 125.876 89.8 124.858 90.3463C90.8886 108.734 69.5275 122.199 66.6595 125.408C61.4573 131.237 67.1437 135.527 75.307 131.498C77.2376 130.548 78.9075 129.139 80.7078 127.959C82.0983 126.532 82.148 125.818 79.1434 125.222C76.8403 124.762 74.4193 124.502 72.0603 124.328C70.4463 124.204 70.3593 125.458 71.961 125.607C74.3758 125.83 74.7048 130.542 69.8689 131.2C66.6409 131.15 65.0827 129.201 67.4417 126.588C81.9369 113.986 103.888 104.854 126.646 95.1822L126.652 95.1884Z" fill="#92278F" stroke="#92278F" stroke-width="2" stroke-miterlimit="10"/>
<path fill-rule="evenodd" clip-rule="evenodd" d="M63.7477 94.6337C65.3121 94.6337 66.5785 95.54 66.5785 96.6512C66.5785 97.7624 65.3121 98.6688 63.7477 98.6688C62.1834 98.6688 60.917 97.7624 60.917 96.6512C60.917 95.54 62.1834 94.6337 63.7477 94.6337ZM63.605 91.6602C67.4228 91.6602 70.5205 93.7956 70.5205 96.4278C70.5205 99.0599 67.4228 101.195 63.605 101.195C59.7872 101.195 56.6895 99.0599 56.6895 96.4278C56.6895 93.7956 59.7872 91.6602 63.605 91.6602Z" fill="#92278F" stroke="#92278F" stroke-width="2" stroke-miterlimit="10"/>
<path fill-rule="evenodd" clip-rule="evenodd" d="M78.2002 71.8359C100.07 89.5158 118.272 109.151 140.26 126.999C149.739 131.735 156.375 120.089 142.681 115.073C141.812 116.563 140.943 118.053 140.073 119.549C146.797 120.294 145.872 126.036 142.029 124.304C116.13 103.676 99.2819 86.4802 90.7772 72.3077C86.587 72.1525 82.3905 71.9973 78.2002 71.8421V71.8359Z" fill="#92278F" stroke="#92278F" stroke-width="2" stroke-miterlimit="10"/>
<path fill-rule="evenodd" clip-rule="evenodd" d="M96.0908 117.773C125.174 100.143 149.925 79.8433 172.968 80.5945C196.335 81.4387 200.258 110.181 169.709 111.156C160.056 111.466 151.452 108.139 150.13 99.5097C149.106 92.8363 161.279 85.6973 167.661 91.7747C152.874 87.1437 149.025 106.469 167.847 105.289C188.966 104.445 187.849 86.3615 168.778 85.629C149.708 84.8965 99.3003 117.233 96.097 117.779L96.0908 117.773Z" fill="#92278F" stroke="#92278F" stroke-width="2" stroke-miterlimit="10"/>
<path d="M117.949 42.7862C141.116 42.7862 162.105 49.2486 177.308 59.6839C192.598 70.1813 202.058 84.7138 202.058 100.786C202.058 116.858 192.598 131.39 177.308 141.888C162.105 152.323 141.122 158.779 117.955 158.779C94.7872 158.779 73.7986 152.317 58.5957 141.882C43.3058 131.384 33.8451 116.852 33.8451 100.78C33.8451 84.7076 43.3058 70.1751 58.5957 59.6777C73.7986 49.2423 94.781 42.7862 117.949 42.7862ZM117.949 44.3754C95.1163 44.3754 74.4442 50.726 59.4958 60.9937C44.6343 71.1994 35.4343 85.2725 35.4343 100.786C35.4343 116.299 44.6281 130.372 59.4958 140.578C74.4504 150.846 95.1163 157.196 117.955 157.196C140.787 157.196 161.459 150.846 176.414 140.578C191.275 130.372 200.475 116.299 200.475 100.786C200.475 85.2725 191.282 71.1994 176.414 60.9937C161.459 50.726 140.793 44.3754 117.955 44.3754H117.949ZM117.949 36.5039C142.954 36.5101 165.612 43.6429 182.032 55.1646C198.607 66.798 208.862 82.9259 208.862 100.78C208.862 118.633 198.607 134.761 182.032 146.395C165.612 157.923 142.954 165.049 117.955 165.049C92.9497 165.043 70.2912 157.91 53.8715 146.388C37.2905 134.761 27.0352 118.64 27.0352 100.786C27.0352 82.9322 37.2905 66.8043 53.8653 55.1708C70.285 43.6429 92.9435 36.5163 117.942 36.5163L117.949 36.5039ZM117.949 39.5519C93.5953 39.5519 71.5576 46.4674 55.6221 57.6539C39.8419 68.7349 30.077 83.9875 30.077 100.78C30.077 117.578 39.8357 132.824 55.6159 143.899C71.5514 155.086 93.5891 162.007 117.942 162.007C142.296 162.007 164.333 155.092 180.269 143.905C196.049 132.831 205.808 117.578 205.808 100.78C205.808 83.9813 196.049 68.7349 180.269 57.6601C164.333 46.4737 142.296 39.5519 117.942 39.5519H117.949Z" fill="#662D91"/>
<path d="M60.2713 183.121C60.2713 184.853 60.023 186.362 59.5326 187.647C58.7442 189.695 57.4406 190.8 55.6155 190.955C55.1189 190.98 54.5602 190.844 53.927 190.552C53.2938 190.26 53.0268 190.012 53.1199 189.807V196.151C53.3 196.94 53.5483 197.443 53.8649 197.672C54.1815 197.896 54.4919 198.113 54.8085 198.312V198.448H48.7683L48.6689 198.349C48.6938 198.392 48.9918 198.212 49.5629 197.809C50.134 197.405 50.4258 196.878 50.4258 196.22V179.949C50.4258 179.434 50.2892 178.925 50.016 178.428C49.7243 177.844 49.3394 177.503 48.8676 177.416H48.8366C48.8117 177.373 48.8241 177.304 48.8676 177.211C49.9726 176.423 50.5872 175.964 50.7237 175.827C51.4004 175.243 52.0957 174.443 52.8158 173.431C52.9027 173.344 52.9834 173.35 53.0517 173.462C53.0765 173.934 53.0641 174.846 53.0206 176.193C52.9958 176.237 53.0455 176.261 53.1572 176.261C53.1324 176.261 53.3621 176.094 53.8463 175.752C54.3305 175.417 54.8768 175.243 55.4851 175.243C57.1737 175.243 58.4463 176.187 59.3029 178.08C59.9548 179.521 60.2838 181.197 60.2838 183.109L60.2713 183.121ZM57.602 182.041C57.3537 179.384 56.5653 178.056 55.2368 178.062C54.1815 178.062 53.5048 178.726 53.2131 180.054C53.1013 180.57 53.0455 181.631 53.0455 183.227C53.0455 184.623 53.1013 185.579 53.2131 186.095C53.5048 187.398 54.1567 188.05 55.1685 188.05C56.3853 188.05 57.1364 187.287 57.4282 185.753C57.453 185.573 57.5089 184.338 57.5958 182.041H57.602Z" fill="#662D91" stroke="#662D91" stroke-width="0.5" stroke-miterlimit="10"/>
<path d="M76.8835 198.444L70.6384 198.413L70.7377 198.245C71.1661 198.22 71.5075 198.022 71.7682 197.637C72.029 197.252 72.1593 196.836 72.1531 196.389C72.1531 196.116 71.9979 194.701 71.6813 192.137L67.9008 192.106C67.6338 194.489 67.4973 195.874 67.4973 196.259C67.4973 197.252 68.0932 197.91 69.2851 198.251V198.456L63.04 198.425V198.258C64.1637 198.034 64.7844 197.326 64.8962 196.128L66.4419 178.07C66.4419 177.375 66.3178 176.866 66.0695 176.549C65.8211 176.232 65.3618 175.928 64.6851 175.636V175.469H74.8101L74.8411 175.636C73.7175 175.953 73.0532 176.704 72.8484 177.896C72.8236 178.033 73.0719 180.385 73.5933 184.948C74.1582 189.964 74.63 193.714 75.0149 196.19C75.1267 196.842 75.3067 197.295 75.555 197.538C75.8033 197.786 76.2751 198.022 76.9704 198.245C76.9952 198.382 76.958 198.45 76.8711 198.45L76.8835 198.444ZM71.4454 189.803L70.2597 177.784L68.8754 177.822L68.0994 189.803H71.4392H71.4454Z" fill="#662D91" stroke="#662D91" stroke-width="0.5" stroke-miterlimit="10"/>
<path d="M91.5645 198.073C91.5893 198.166 91.5769 198.277 91.5334 198.408C90.745 199.06 89.8884 200.401 88.9696 202.424H88.802C87.877 200.848 86.6851 196.663 85.2201 189.872C84.9469 189.847 84.7048 189.816 84.4751 189.773C83.9102 189.661 83.5067 189.481 83.2584 189.233V195.95C83.2584 196.49 83.4322 196.986 83.7861 197.433C84.1337 197.886 84.5683 198.178 85.0835 198.309V198.445H78.6708C78.6274 198.445 78.6212 198.426 78.6522 198.395C78.6832 198.364 78.6895 198.333 78.6708 198.309C78.9874 198.129 79.2916 197.961 79.5834 197.799C80.1917 197.396 80.4959 196.8 80.4959 196.012V179.306C80.4959 178.723 80.198 178.226 79.6144 177.823C79.2978 177.668 78.9936 177.506 78.7019 177.351C78.677 177.307 78.677 177.239 78.7019 177.146C79.6268 176.606 80.2787 176.19 80.6573 175.898C81.4457 175.29 82.1969 174.483 82.917 173.465C82.9604 173.508 83.0287 173.508 83.1218 173.465V176.265C83.8668 175.501 84.6862 175.153 85.5863 175.215C87.2749 175.371 88.5351 176.308 89.3669 178.015C89.9939 179.319 90.3105 180.883 90.3105 182.708C90.3105 185.837 89.4662 188.066 87.7777 189.394C88.2929 191.914 88.7213 193.677 89.0627 194.696C89.8263 197.061 90.6581 198.184 91.5583 198.073H91.5645ZM87.5791 182.609C87.5791 179.48 86.7348 177.916 85.0463 177.916C83.7178 177.916 83.0536 179.188 83.0536 181.727C83.0536 182.019 83.0536 182.404 83.0536 182.876C83.0784 183.373 83.0846 183.695 83.0846 183.857C83.0846 186.197 83.8047 187.364 85.2449 187.364C86.7969 187.364 87.5728 185.775 87.5728 182.603L87.5791 182.609Z" fill="#662D91" stroke="#662D91" stroke-width="0.5" stroke-miterlimit="10"/>
<path d="M105.7 175.551L103.776 179.666H103.571C103.348 178.431 102.814 177.81 101.982 177.81H99.1822V186.048H102.454C103.199 186.048 103.906 185.471 104.577 184.328L104.744 184.36V190.263H104.546C104.322 189.947 104.093 189.667 103.869 189.419C103.286 188.854 102.708 188.575 102.15 188.575H99.1822L99.2195 202.921C99.1946 202.896 99.176 202.89 99.1512 202.89C99.1512 202.933 99.1264 202.989 99.0829 203.057C99.0581 203.033 99.0519 203.014 99.0519 202.989C97.6551 200.605 96.2832 199.029 94.9361 198.265C94.9609 198.222 94.9609 198.166 94.9361 198.097C95.9231 197.377 96.4198 196.632 96.4198 195.869V178.388C96.4198 177.692 96.2894 177.152 96.0473 176.767C95.8238 176.476 95.3148 176.091 94.5264 175.619V175.414H105.7V175.551Z" fill="#662D91" stroke="#662D91" stroke-width="0.5" stroke-miterlimit="10"/>
<path d="M118.935 193.539C118.935 195.072 118.507 196.339 117.657 197.351C116.8 198.363 115.621 198.872 114.112 198.872C111.027 198.872 109.487 197.059 109.487 193.44V179.162C109.487 177.585 108.966 176.418 107.929 175.654C107.886 175.586 107.898 175.518 107.96 175.45C109.667 175.381 111.604 175.381 113.764 175.45C113.833 175.45 113.795 175.518 113.665 175.654C113.013 176.17 112.591 176.629 112.399 177.02C112.206 177.411 112.113 178.063 112.113 178.963V193.645C112.113 195.47 112.839 196.376 114.28 196.376C115.72 196.376 116.341 195.501 116.341 193.744V179.634C116.341 178.51 115.819 177.846 114.782 177.641C114.739 177.597 114.739 177.529 114.782 177.436C116.403 176.201 117.731 174.748 118.762 173.078C118.805 173.122 118.873 173.134 118.967 173.109L118.935 193.527V193.539Z" fill="#662D91" stroke="#662D91" stroke-width="0.5" stroke-miterlimit="10"/>
<path d="M130.78 175.718C130.556 175.874 130.327 176.035 130.103 176.19C129.787 176.525 129.675 176.997 129.768 177.606L131.152 187.867C131.221 187.867 131.705 184.515 132.599 177.81C132.624 177.724 132.63 177.562 132.63 177.339C132.63 176.439 132.282 175.855 131.581 175.582C131.668 175.582 131.68 175.538 131.612 175.445H139.918C139.961 175.514 139.974 175.588 139.949 175.681C139.52 175.836 139.092 176.01 138.664 176.19C138.167 176.55 137.919 177.258 137.919 178.32V195.602C137.919 196.906 138.589 197.775 139.912 198.203C139.998 198.296 139.98 198.371 139.843 198.439C138.428 198.414 136.23 198.42 133.263 198.439C133.238 198.396 133.232 198.352 133.232 198.302C133.257 198.278 133.263 198.247 133.263 198.203C134.48 197.775 135.088 196.931 135.082 195.67V179.574H134.84L131.674 198.408H130.426L127.589 179.642H127.285V201.512C127.285 202.207 127.272 202.573 127.254 202.611C127.229 202.642 127.161 202.648 127.049 202.629C126.782 202.201 126.385 201.636 125.869 200.941C125.218 200.109 124.15 199.321 122.66 198.582C122.685 198.538 122.66 198.483 122.592 198.414C123.107 198.278 123.579 197.967 124.007 197.483C124.435 196.999 124.647 196.496 124.647 195.981V178.462C124.647 177.854 124.498 177.301 124.206 176.811C123.821 176.159 123.268 175.799 122.554 175.731L122.523 175.458H130.761C130.805 175.458 130.805 175.545 130.761 175.725L130.78 175.718Z" fill="#662D91" stroke="#662D91" stroke-width="0.5" stroke-miterlimit="10"/>
<path d="M151.539 179.628C151.247 179.001 151.054 178.616 150.968 178.479C150.719 178.144 150.396 177.97 149.987 177.97H147.963L147.932 185.463H147.963H151.843C152.135 185.327 152.619 184.979 153.295 184.414H153.395V189.107H153.295C153.184 188.927 152.96 188.716 152.619 188.468C152.284 188.219 152.023 188.095 151.843 188.095L147.857 188.064V195.861C147.702 195.886 148.329 195.892 149.751 195.892C150.918 195.892 151.756 195.439 152.246 194.539H152.383C152.811 195.346 153.407 196.563 154.171 198.183L154.14 198.388H143.574V198.022C144.046 197.91 144.431 197.63 144.722 197.196C145.014 196.755 145.163 196.29 145.163 195.793V178.175C145.163 177.12 144.561 176.331 143.369 175.81L143.4 175.438H154.034C153.811 176.338 153.109 177.728 151.942 179.622H151.539V179.628Z" fill="#662D91" stroke="#662D91" stroke-width="0.5" stroke-miterlimit="10"/>
<path d="M168.113 193.527C168.113 195.061 167.685 196.327 166.834 197.339C165.978 198.351 164.798 198.86 163.29 198.86C160.204 198.86 158.665 197.047 158.665 193.428V179.15C158.665 177.573 158.143 176.406 157.107 175.643C157.063 175.574 157.076 175.506 157.138 175.438C158.845 175.37 160.782 175.37 162.942 175.438C163.01 175.438 162.973 175.506 162.843 175.643C162.191 176.158 161.769 176.617 161.576 177.008C161.384 177.399 161.291 178.051 161.291 178.951V193.633C161.291 195.458 162.017 196.364 163.451 196.364C164.823 196.364 165.512 195.489 165.512 193.732V179.622C165.512 178.498 164.991 177.834 163.96 177.629C163.917 177.586 163.917 177.517 163.96 177.424C165.58 176.189 166.909 174.736 167.939 173.066C167.983 173.11 168.051 173.122 168.144 173.097L168.113 193.515V193.527Z" fill="#662D91" stroke="#662D91" stroke-width="0.5" stroke-miterlimit="10"/>
<path d="M185.024 198.045C185.049 198.138 185.036 198.25 184.993 198.381C184.204 199.032 183.348 200.373 182.429 202.397H182.261C181.336 200.82 180.144 196.636 178.679 189.845C178.406 189.82 178.164 189.789 177.934 189.745C177.37 189.634 176.966 189.454 176.718 189.205V195.922C176.718 196.462 176.892 196.959 177.239 197.406C177.587 197.859 178.021 198.151 178.537 198.281V198.418H172.124C172.081 198.418 172.074 198.399 172.105 198.368C172.136 198.337 172.143 198.306 172.124 198.281C172.441 198.101 172.745 197.934 173.037 197.772C173.645 197.369 173.949 196.773 173.949 195.984V179.279C173.949 178.696 173.651 178.199 173.068 177.795C172.751 177.64 172.447 177.479 172.155 177.324C172.13 177.28 172.13 177.212 172.155 177.119C173.08 176.579 173.732 176.163 174.11 175.871C174.899 175.263 175.65 174.456 176.37 173.438C176.414 173.481 176.482 173.481 176.575 173.438V176.237C177.32 175.474 178.139 175.126 179.039 175.188C180.728 175.343 181.988 176.281 182.82 177.988C183.453 179.291 183.764 180.856 183.764 182.681C183.764 185.81 182.919 188.038 181.231 189.367C181.746 191.887 182.174 193.65 182.516 194.668C183.279 197.033 184.111 198.157 185.018 198.045H185.024ZM181.038 182.588C181.038 179.459 180.194 177.895 178.506 177.895C177.177 177.895 176.513 179.167 176.513 181.706V182.855C176.538 183.351 176.55 183.674 176.55 183.836C176.55 186.176 177.27 187.343 178.71 187.343C180.262 187.343 181.038 185.754 181.038 182.582V182.588Z" fill="#662D91" stroke="#662D91" stroke-width="0.5" stroke-miterlimit="10"/>
</svg>
