<svg width="233" height="234" viewBox="0 0 233 234" fill="none" xmlns="http://www.w3.org/2000/svg">
<rect width="233" height="233" transform="translate(0 0.5)" fill="#FFF2EE"/>
<path d="M116.838 158.65V161.034C152.756 161.028 182.02 131.696 182.026 95.7031C182.026 59.7288 152.756 30.3968 116.838 30.3906C80.9378 30.3968 51.6742 59.7288 51.668 95.7031C51.668 131.696 80.9316 161.028 116.838 161.034V156.26C100.207 156.26 85.1219 149.469 74.1713 138.494C63.2207 127.512 56.4418 112.39 56.4418 95.7031C56.4418 79.0351 63.2207 63.9066 74.1713 52.9312C85.1219 41.9558 100.207 35.1644 116.838 35.1644C133.475 35.1644 148.566 41.9558 159.523 52.9312C170.473 63.9066 177.252 79.0289 177.252 95.7031C177.252 112.383 170.473 127.512 159.523 138.487C148.566 149.463 133.481 156.254 116.838 156.254V158.638V158.65Z" fill="#EF4237"/>
<path fill-rule="evenodd" clip-rule="evenodd" d="M104.211 63.4791C88.7471 63.4791 75.0464 71.2327 66.7031 83.1641C66.1692 65.9064 85.6742 46.6994 104.931 47.0036C124.187 47.3077 140.551 64.5282 141.905 83.1641C133.58 71.2327 119.885 63.4791 104.211 63.4791Z" fill="#BE202E"/>
<path fill-rule="evenodd" clip-rule="evenodd" d="M137.143 81.7746L124.057 72.227C119.885 69.2472 113.144 69.2472 108.972 72.227L95.8859 81.7746C91.7143 84.9654 89.734 91.3222 91.317 96.096L96.2708 111.616C97.8724 116.582 103.416 120.567 108.382 120.567H124.647C129.812 120.567 135.368 116.576 136.951 111.616L141.904 96.096C143.506 91.3222 141.315 84.9654 137.143 81.7746ZM136.553 103.061L128.614 113.999C126.043 117.588 120.686 119.363 116.521 117.972L103.627 113.807C99.4554 112.416 96.0846 107.835 96.0846 103.459V89.733C96.0846 85.549 99.4554 80.9862 103.627 79.5957L116.521 75.4116C120.692 74.0211 126.043 75.8151 128.614 79.1922L136.553 90.3228C139.142 93.6998 139.142 99.4855 136.553 103.055V103.061Z" fill="#EF4237"/>
<path fill-rule="evenodd" clip-rule="evenodd" d="M133.983 96.6963L130.402 85.7581C129.414 82.3811 125.448 79.5938 121.866 79.5938H110.549C106.986 79.5938 103.217 82.3811 102.013 85.7581L98.4499 96.6963C97.4566 100.073 98.8472 104.636 101.821 106.641L110.946 113.402C113.938 115.388 118.489 115.388 121.462 113.402L130.606 106.641C133.58 104.636 134.97 100.073 133.977 96.6963H133.983ZM129.812 101.265C129.812 104.053 127.428 107.032 124.839 108.026L116.322 110.813C113.541 111.614 109.959 110.62 108.171 108.237L103.031 100.868C101.243 98.6952 101.243 94.9146 103.031 92.5246L108.171 85.1746C109.959 82.977 113.541 81.7789 116.322 82.5797L124.839 85.367C127.428 86.3603 129.812 89.34 129.812 92.1273V101.271V101.265Z" fill="#BE202E"/>
<path fill-rule="evenodd" clip-rule="evenodd" d="M127.831 96.8872C128.421 94.7083 127.62 91.7161 125.64 90.5304L119.885 86.1601C118.097 84.7695 114.931 84.7695 113.143 86.1601L107.389 90.5304C105.409 91.7161 104.608 94.7083 105.197 96.8872L107.581 103.648C108.171 105.845 110.555 107.639 112.932 107.639H120.078C122.455 107.639 124.839 105.845 125.447 103.648L127.831 96.8872Z" fill="#EF4237"/>
<path fill-rule="evenodd" clip-rule="evenodd" d="M143.314 73.5055C138.074 58.8986 126.149 48.6122 112.132 44.813C128.173 38.4562 152.799 50.3318 159.026 68.6014C165.277 86.871 154.643 108.12 137.615 115.719C145.977 103.825 148.628 88.2864 143.307 73.5055H143.314Z" fill="#BE202E"/>
<path fill-rule="evenodd" clip-rule="evenodd" d="M145.163 115.811C157.716 106.741 164.327 92.4447 164.135 77.875C174.632 91.5819 169.982 118.58 154.171 129.611C138.36 140.624 115.049 136.216 103.087 121.876C116.8 126.687 132.437 124.967 145.163 115.805V115.811Z" fill="#BE202E"/>
<path fill-rule="evenodd" clip-rule="evenodd" d="M108.041 130.511C120.63 139.544 136.268 141.201 149.962 136.353C140.383 150.73 113.373 154.983 97.8846 143.511C82.3774 132.038 79.0625 108.48 88.7777 92.5195C88.6473 107.089 95.2711 121.386 108.034 130.511H108.041Z" fill="#BE202E"/>
<path fill-rule="evenodd" clip-rule="evenodd" d="M82.1543 98.8182C77.6412 113.655 81.0493 129.038 90.0009 140.516C73.3702 135.991 60.7249 111.706 66.6285 93.3243C72.5322 74.9367 93.7505 64.2841 111.927 68.4123C98.1146 72.9378 86.7294 83.8015 82.1543 98.8244V98.8182Z" fill="#BE202E"/>
<path d="M116.837 164.3V165.256C155.065 165.256 186.228 134.018 186.228 95.7033C186.228 57.4135 155.065 26.1758 116.837 26.1758C78.6281 26.1758 47.4648 57.4135 47.4648 95.7033C47.4648 134.012 78.6281 165.249 116.837 165.256V163.344C98.2634 163.344 81.403 155.752 69.1736 143.497C56.9504 131.243 49.3706 114.333 49.3706 95.7033C49.3706 77.0861 56.9504 60.1822 69.1736 47.928C81.403 35.6737 98.2634 28.0816 116.837 28.0816C135.423 28.0816 152.29 35.6737 164.519 47.928C176.749 60.1822 184.322 77.0799 184.322 95.7033C184.322 114.333 176.743 131.237 164.519 143.497C152.29 155.752 135.423 163.344 116.837 163.344V164.3Z" fill="#BE202E"/>
<path d="M75.233 179.182L74.1094 178.766C71.2103 177.668 68.7582 176.867 66.7593 176.364C66.5855 178.518 65.884 180.945 64.6611 183.633C62.7367 187.886 60.4522 191.598 57.8014 194.77C56.2495 196.645 54.2754 198.215 51.8792 199.494C49.4768 200.773 47.2792 201.406 45.2803 201.406C41.6301 201.406 39.5567 200.376 39.0538 198.333C38.8552 197.93 38.7559 197.458 38.7559 196.906C38.7559 196.254 38.88 195.72 39.1283 195.291C39.2773 195.018 39.4015 194.894 39.507 194.913C39.5318 194.913 39.4822 195.136 39.358 195.589C39.3332 195.738 39.3208 195.906 39.3208 196.111C39.3208 197.216 39.6684 198.197 40.3699 199.078C41.4438 200.401 43.1075 201.059 45.3548 201.059C47.0805 201.059 48.9305 200.444 50.9046 199.227C52.7297 198.104 54.3933 196.639 55.8894 194.838C58.385 191.815 60.7005 188.041 62.8236 183.521C64.301 180.393 65.2508 177.91 65.673 176.06C61.2033 174.955 57.7269 174.384 55.25 174.334C53.3504 174.315 51.6619 174.57 50.1907 175.122C48.0676 175.942 47.1302 177.283 47.3785 179.133C47.5523 180.554 48.7877 182.007 51.0908 183.478C51.2894 183.627 51.3763 183.745 51.3515 183.819C51.3267 183.875 51.1777 183.819 50.8983 183.67C47.9248 182.199 46.2735 180.796 45.9507 179.474C45.8514 179.126 45.8017 178.785 45.8017 178.456C45.8017 176.612 47.1861 175.321 49.961 174.601C51.6122 174.148 53.4994 173.937 55.6225 173.968C59.0989 174.017 62.4945 174.427 65.8157 175.203C65.7661 174.7 65.7785 174.204 65.853 173.701C65.9275 173.682 66.0765 173.837 66.3061 174.191C66.5358 174.545 66.6786 174.967 66.7593 175.464C69.1059 176.116 71.5828 177.109 74.1839 178.431C74.935 178.804 75.2826 179.058 75.233 179.176V179.182Z" fill="#EC2227" stroke="#EC2227" stroke-miterlimit="10"/>
<path d="M73.172 178.437C73.172 178.437 73.1471 178.524 73.023 178.617C72.7684 178.772 72.5326 178.958 72.3091 179.182C71.4586 180.001 70.6081 181.119 69.7577 182.515C68.7085 184.241 67.6346 186.333 66.5358 188.779C65.8095 190.399 65.0956 192.137 64.4003 193.987C65.1266 193.038 65.9274 192.051 66.8027 191.026C67.8519 189.828 68.7768 188.891 69.5776 188.22C70.1053 187.798 70.5274 187.649 70.8502 187.767C71.173 187.891 71.2227 188.22 70.9992 188.742C70.5461 189.741 69.888 191.312 69.0127 193.466C68.4354 194.968 67.976 196.315 67.6222 197.513C67.5725 197.842 67.5973 198.029 67.6967 198.072C67.796 198.128 68.1498 197.911 68.7458 197.439C68.9196 197.265 69.0313 197.191 69.081 197.215C69.2052 197.29 69.1555 197.414 68.932 197.588C68.0567 198.563 67.3366 199.016 66.7593 198.941C66.3061 198.892 66.1447 198.488 66.2689 197.737C66.4675 196.539 66.9393 195.03 67.6905 193.199C68.0381 192.404 68.5409 191.219 69.1927 189.636C69.2921 189.363 69.3169 189.201 69.2672 189.145C69.1679 189.096 69.0065 189.189 68.7768 189.412C67.7525 190.443 66.8027 191.492 65.9274 192.56C65.257 193.385 64.2637 194.912 62.9663 197.141C62.8422 197.29 62.6435 197.551 62.3641 197.923C62.1655 198.196 61.9544 198.296 61.731 198.221C61.5571 198.172 61.5571 197.923 61.731 197.476L63.5685 192.64C64.0216 191.424 64.779 189.567 65.8529 187.097C66.7034 185.346 67.6408 183.72 68.6651 182.224C69.6397 180.796 70.7509 179.691 72.0049 178.884C72.6567 178.462 73.0416 178.313 73.1657 178.437H73.172Z" fill="#EC2227" stroke="#EC2227" stroke-miterlimit="10"/>
<path d="M79.2807 188.146C79.2807 188.643 79.0448 189.096 78.5668 189.493C77.7908 190.145 76.9031 190.418 75.9037 190.319C75.5064 190.263 75.1401 190.17 74.8173 190.021C74.3641 190.667 74.0165 191.232 73.7682 191.703C73.0419 193.175 72.5204 194.491 72.1914 195.633C72.0672 196.136 72.0052 196.558 72.0052 196.912C72.0052 197.489 72.1666 197.824 72.4956 197.924C72.8743 198.023 73.3523 197.849 73.942 197.396C74.5255 196.943 75.0284 196.372 75.4443 195.676C75.854 194.975 76.1768 194.187 76.4003 193.311C76.4748 193.013 76.5493 192.858 76.6238 192.858C76.7231 192.858 76.7604 192.995 76.7355 193.274C76.7107 193.975 76.4127 194.814 75.8354 195.782C74.6621 197.787 73.4392 198.687 72.1604 198.482C71.1857 198.333 70.6953 197.626 70.6953 196.347C70.6953 195.894 70.7574 195.422 70.8815 194.919C71.254 193.448 71.9183 192.094 72.868 190.872C74.6931 188.575 76.5245 187.439 78.3744 187.457C78.9765 187.457 79.2745 187.681 79.2745 188.134L79.2807 188.146ZM78.1944 188.252C78.1944 188.004 78.0454 187.873 77.7412 187.873C77.3128 187.873 76.7914 188.109 76.1644 188.581C75.6367 188.984 75.2519 189.369 75.0035 189.748C75.3263 189.922 75.6678 190.015 76.0154 190.015C76.5431 190.033 77.0397 189.847 77.5177 189.431C77.9957 189.015 78.2192 188.624 78.1944 188.252Z" fill="#EC2227" stroke="#EC2227" stroke-miterlimit="10"/>
<path d="M113.697 183.229C113.07 185.426 111.611 187.015 109.308 187.99C107.483 188.766 105.248 189.126 102.597 189.07C100.623 189.02 98.8602 188.611 97.3082 187.835C93.7325 194.334 90.7838 198.643 88.4621 200.772C87.5123 201.641 86.7736 202.032 86.2521 201.933C85.4016 201.777 84.9795 200.97 84.9795 199.493C84.9795 197.773 85.7803 196.041 87.3819 194.322C87.7296 193.925 88.1082 193.596 88.5055 193.347C88.9028 193.099 89.1325 193.012 89.1822 193.087L88.8035 193.422C88.4559 193.726 88.1331 194.092 87.8289 194.552C86.7053 196.246 86.1031 198.115 86.0286 200.139C86.0038 201.064 86.1404 201.548 86.4445 201.604C86.7922 201.678 87.3695 201.262 88.1703 200.387C88.9649 199.499 90.0947 197.724 91.5412 195.079C91.9633 194.303 93.3911 191.609 95.8121 186.984C95.2348 186.587 94.763 186.19 94.3843 185.786C94.0119 185.383 93.8256 185.085 93.8256 184.886C93.8256 184.83 93.838 184.799 93.8629 184.774C93.8877 184.774 93.9622 184.849 94.0864 185.004C94.2353 185.246 94.4092 185.451 94.614 185.6C94.9368 185.948 95.39 186.314 95.9673 186.692C96.3398 185.916 96.942 184.743 97.7676 183.16C99.5182 179.789 100.791 177.443 101.592 176.114C100.518 176.065 98.6305 175.953 95.9301 175.773C94.3347 175.649 93.2173 175.512 92.5965 175.363C91.448 175.053 90.908 174.6 90.9824 173.973C91.0569 173.321 91.8453 172.818 93.3414 172.47C94.5644 172.197 95.7501 172.098 96.9047 172.172C97.5069 172.228 97.8048 172.284 97.8048 172.365C97.8048 172.458 97.6062 172.501 97.2027 172.47C94.1298 172.346 92.5034 172.837 92.3295 173.935C92.2302 174.637 93.4656 175.102 96.0418 175.326C97.1903 175.382 99.1147 175.518 101.815 175.742C102.343 174.916 102.777 174.314 103.125 173.942C103.622 173.42 104.137 172.998 104.664 172.694C105.192 172.377 105.503 172.272 105.602 172.377L105.037 173.159C104.311 174.153 103.74 175.059 103.317 175.86C103.64 175.878 104.23 175.947 105.08 176.04C110.978 176.772 113.927 178.678 113.927 181.782C113.927 182.254 113.852 182.744 113.703 183.247L113.697 183.229ZM111.748 183.148C111.946 182.502 112.046 181.9 112.046 181.354C112.046 178.653 109.656 177.002 104.888 176.412C104.112 176.307 103.528 176.245 103.125 176.22C102.473 177.542 101.337 179.864 99.7106 183.191C98.885 184.886 98.1525 186.32 97.5007 187.462C99.0464 188.213 100.723 188.604 102.523 188.629C107.52 188.679 110.593 186.854 111.741 183.148H111.748Z" fill="#EC2227" stroke="#EC2227" stroke-miterlimit="10"/>
<path d="M116.956 188.146C116.956 188.643 116.72 189.096 116.242 189.493C115.466 190.145 114.578 190.418 113.578 190.319C113.181 190.263 112.815 190.17 112.492 190.021C112.039 190.667 111.691 191.232 111.443 191.703C110.717 193.175 110.195 194.491 109.866 195.633C109.742 196.136 109.68 196.558 109.68 196.912C109.68 197.489 109.841 197.824 110.17 197.924C110.549 198.023 111.027 197.849 111.617 197.396C112.2 196.943 112.703 196.372 113.119 195.676C113.529 194.975 113.852 194.187 114.075 193.311C114.15 193.013 114.224 192.858 114.299 192.858C114.398 192.858 114.435 192.995 114.41 193.274C114.385 193.975 114.088 194.814 113.51 195.782C112.337 197.787 111.114 198.687 109.835 198.482C108.861 198.333 108.37 197.626 108.37 196.347C108.37 195.894 108.432 195.422 108.556 194.919C108.929 193.448 109.593 192.094 110.543 190.872C112.368 188.575 114.199 187.439 116.049 187.457C116.651 187.457 116.949 187.681 116.949 188.134L116.956 188.146ZM115.869 188.252C115.869 188.004 115.72 187.873 115.416 187.873C114.988 187.873 114.466 188.109 113.839 188.581C113.312 188.984 112.927 189.369 112.678 189.748C113.001 189.922 113.343 190.015 113.69 190.015C114.218 190.033 114.714 189.847 115.193 189.431C115.671 189.015 115.894 188.624 115.869 188.252Z" fill="#EC2227" stroke="#EC2227" stroke-miterlimit="10"/>
<path d="M124.194 188.742C124.069 189.518 123.554 190.176 122.654 190.729C122.431 190.878 122.275 190.915 122.201 190.84C122.052 190.766 122.077 190.58 122.275 190.282C122.549 189.884 122.691 189.642 122.691 189.568C122.766 189.17 122.679 188.941 122.431 188.897C122.207 188.848 121.977 188.934 121.754 189.158C121.282 189.561 120.891 189.922 120.593 190.251C119.916 190.971 119.277 191.827 118.681 192.802C118.029 194.23 117.142 195.912 116.018 197.861C115.943 197.917 115.813 198.035 115.627 198.234C115.441 198.432 115.186 198.6 114.857 198.724C114.559 198.83 114.354 198.817 114.255 198.693C114.28 198.743 114.391 198.6 114.596 198.277C115.192 197.321 115.919 195.788 116.769 193.665C117.62 191.536 118.129 189.859 118.309 188.643C118.054 188.736 117.818 188.804 117.595 188.829C117.421 188.829 117.322 188.804 117.291 188.754C117.266 188.655 117.34 188.581 117.514 188.525C118.513 188.227 119.24 187.898 119.687 187.55C119.836 187.476 119.96 187.463 120.059 187.519C120.134 187.594 120.146 187.73 120.096 187.929C119.743 189.481 119.196 191.039 118.445 192.616C118.898 191.939 119.594 191.002 120.543 189.804C121.195 189.102 121.779 188.593 122.306 188.264C122.76 187.991 123.144 187.848 123.467 187.848C124.045 187.848 124.28 188.152 124.181 188.748L124.194 188.742Z" fill="#EC2227" stroke="#EC2227" stroke-miterlimit="10"/>
<path d="M137.385 179.707C137.311 180.279 136.839 180.843 135.958 181.39C135.635 181.588 135.461 181.644 135.43 181.539L135.771 181.204C136.119 180.856 136.305 180.477 136.33 180.074C136.355 179.453 136.038 179.143 135.393 179.143C133.717 179.143 132.059 180.719 130.408 183.867C129.806 184.997 129.123 186.53 128.347 188.485C128.725 188.485 129.247 188.504 129.924 188.56C130.898 188.634 131.37 188.727 131.345 188.858C131.345 188.883 130.886 188.895 129.961 188.895C129.532 188.895 128.924 188.92 128.123 188.97C127.422 190.745 126.261 193.644 124.641 197.667C123.138 201.242 121.351 204.079 119.277 206.178C116.955 208.549 114.491 209.741 111.89 209.741C111.089 209.741 110.456 209.517 109.978 209.07C109.55 208.692 109.401 208.419 109.525 208.251C109.525 208.22 109.711 208.326 110.083 208.549C110.586 208.822 111.219 208.965 111.995 208.965C114.845 208.965 117.179 207.872 119.004 205.7C120.183 204.278 121.58 201.621 123.207 197.716C124.181 195.388 124.895 193.551 125.342 192.204C125.491 191.751 125.541 191.229 125.491 190.627C125.442 189.981 125.168 189.516 124.666 189.243C124.392 189.087 124.268 188.976 124.287 188.901C124.361 188.727 124.684 188.616 125.261 188.566C125.64 188.541 126.162 188.523 126.838 188.523C127.589 186.623 128.353 185.077 129.123 183.873C131.401 180.378 133.772 178.621 136.249 178.621C137.1 178.621 137.472 178.987 137.373 179.714L137.385 179.707ZM126.627 189.001C126.174 189.001 125.752 189.025 125.348 189.075C125.802 189.578 125.913 190.335 125.69 191.366L126.627 189.001Z" fill="#EC2227" stroke="#EC2227" stroke-miterlimit="10"/>
<path d="M137.535 188.146C137.535 188.643 137.299 189.096 136.821 189.493C136.045 190.145 135.157 190.418 134.158 190.319C133.76 190.263 133.394 190.17 133.071 190.021C132.618 190.667 132.27 191.232 132.022 191.703C131.296 193.175 130.774 194.491 130.445 195.633C130.321 196.136 130.259 196.558 130.259 196.912C130.259 197.489 130.42 197.824 130.749 197.924C131.128 198.023 131.606 197.849 132.196 197.396C132.779 196.943 133.282 196.372 133.698 195.676C134.108 194.975 134.431 194.187 134.654 193.311C134.729 193.013 134.803 192.858 134.878 192.858C134.977 192.858 135.014 192.995 134.989 193.274C134.965 193.975 134.667 194.814 134.089 195.782C132.916 197.787 131.693 198.687 130.414 198.482C129.44 198.333 128.949 197.626 128.949 196.347C128.949 195.894 129.011 195.422 129.135 194.919C129.508 193.448 130.172 192.094 131.122 190.872C132.947 188.575 134.778 187.439 136.628 187.457C137.23 187.457 137.528 187.681 137.528 188.134L137.535 188.146ZM136.448 188.252C136.448 188.004 136.299 187.873 135.995 187.873C135.567 187.873 135.045 188.109 134.418 188.581C133.891 188.984 133.506 189.369 133.257 189.748C133.58 189.922 133.922 190.015 134.269 190.015C134.797 190.033 135.294 189.847 135.772 189.431C136.25 189.015 136.473 188.624 136.448 188.252Z" fill="#EC2227" stroke="#EC2227" stroke-miterlimit="10"/>
<path d="M143.836 188.145C143.86 188.518 143.662 188.853 143.24 189.151C142.985 189.275 142.849 189.306 142.824 189.231C142.799 189.207 142.824 189.089 142.898 188.878C142.973 188.667 143.01 188.456 143.01 188.257C143.01 188.009 142.923 187.872 142.749 187.841C142.023 187.742 141.123 188.462 140.049 189.995C138.975 191.535 138.199 193.161 137.727 194.887C137.504 195.737 137.392 196.389 137.392 196.836C137.392 197.463 137.615 197.773 138.062 197.773C138.64 197.773 139.335 197.246 140.161 196.197C140.757 195.477 141.259 194.701 141.657 193.875C141.93 193.322 142.054 193.049 142.035 193.049C142.184 193.074 142.135 193.409 141.886 194.067C141.415 195.284 140.701 196.352 139.751 197.246C139.049 197.922 138.36 198.264 137.69 198.264C136.591 198.264 136.026 197.637 136.001 196.389C135.977 195.265 136.293 194.036 136.939 192.714C137.665 191.268 138.571 190.051 139.676 189.064C140.775 188.071 141.812 187.568 142.786 187.543C143.463 187.543 143.811 187.742 143.836 188.145Z" fill="#EC2227" stroke="#EC2227" stroke-miterlimit="10"/>
<path d="M150.845 189.076C150.894 189.001 150.416 188.964 149.417 188.964C148.517 188.964 147.84 188.983 147.393 189.001C146.94 190.032 146.456 191.205 145.928 192.533C145.351 194.005 144.792 195.519 144.24 197.071C144.916 196.444 145.518 196.004 146.04 195.755C146.214 195.575 146.301 195.594 146.301 195.786C146.301 195.817 146.102 195.973 145.698 196.258C145.301 196.55 144.86 196.978 144.389 197.549C143.488 198.605 142.955 199.101 142.774 199.052C142.452 199.033 142.359 198.816 142.514 198.418C143.166 196.097 144.059 193.52 145.214 190.69C145.388 190.268 145.63 189.727 145.928 189.076C145.854 189.076 145.642 189.101 145.295 189.15C144.742 189.231 144.444 189.212 144.395 189.119C144.345 188.964 144.482 188.846 144.811 188.759C145.133 188.672 145.587 188.604 146.158 188.56C146.536 187.735 147.045 186.723 147.697 185.519C148.119 184.743 148.523 184.159 148.895 183.762C149.218 183.433 149.479 183.296 149.684 183.346C149.808 183.371 149.87 183.433 149.87 183.538C149.87 183.557 149.721 183.861 149.417 184.438C149.02 185.183 148.417 186.549 147.617 188.517C148.492 188.517 149.119 188.542 149.491 188.591C150.441 188.716 150.888 188.883 150.845 189.082V189.076Z" fill="#EC2227" stroke="#EC2227" stroke-miterlimit="10"/>
<path d="M180.12 179.516C180.424 180.621 180.573 181.806 180.573 183.079C180.573 186.462 179.623 189.715 177.724 192.869C176.401 195.066 174.613 196.935 172.366 198.456C169.914 200.101 167.481 200.933 165.053 200.933C162.98 200.933 161.248 200.312 159.857 199.077C158.473 197.835 157.703 196.171 157.554 194.073C157.381 191.422 157.939 188.759 159.243 186.084C159.969 184.563 160.782 183.296 161.676 182.297C161.329 181.651 161.13 180.9 161.08 180.05C160.956 178.1 161.664 176.468 163.216 175.152C164.768 173.842 166.655 173.171 168.877 173.146C173.726 173.072 176.861 175.121 178.288 179.292C178.487 179.863 178.437 180.18 178.139 180.23C177.941 180.254 177.742 179.981 177.537 179.41C177.413 179.063 177.19 178.585 176.861 177.982C176.159 177.206 175.147 176.797 173.825 176.747C171.776 176.673 169.964 177.126 168.393 178.1C166.469 179.28 164.706 180.975 163.104 183.197C163.83 184.345 164.892 185.196 166.289 185.748C166.562 185.848 166.686 185.922 166.661 185.978C166.587 186.071 166.388 186.065 166.065 185.935C164.588 185.407 163.464 184.699 162.688 183.799C162.316 184.352 161.776 185.214 161.074 186.388C159.572 189.268 158.827 191.826 158.827 194.079C158.827 197.798 160.429 199.927 163.626 200.448C164.079 200.523 164.513 200.56 164.935 200.56C167.083 200.56 169.194 199.722 171.274 198.046C172.975 196.674 174.483 194.861 175.812 192.614C178.264 188.511 179.487 184.823 179.487 181.552C179.487 178.28 177.922 175.45 174.8 173.494C174.651 173.438 174.613 173.376 174.688 173.302C174.762 173.252 174.874 173.264 175.023 173.345C175.998 173.842 176.935 174.593 177.835 175.592C178.984 176.815 179.747 178.125 180.12 179.522V179.516ZM176.637 177.306C175.886 176.182 174.862 175.282 173.558 174.605C172.087 173.829 170.46 173.457 168.685 173.482C166.785 173.5 165.178 174.152 163.868 175.431C162.558 176.704 161.974 178.305 162.123 180.23C162.173 180.757 162.26 181.204 162.384 181.583C163.812 179.956 165.625 178.616 167.822 177.566C169.722 176.673 171.708 176.281 173.782 176.412C174.93 176.486 175.88 176.784 176.631 177.306H176.637Z" fill="#EC2227" stroke="#EC2227" stroke-miterlimit="10"/>
<path d="M188.259 188.74C187.83 189.739 187.185 191.31 186.309 193.464C185.962 194.315 185.496 195.662 184.919 197.512C184.844 197.841 184.857 198.027 184.956 198.07C185.105 198.145 185.403 197.977 185.856 197.543C186.055 197.369 186.167 197.294 186.198 197.319C186.247 197.369 186.185 197.493 186.011 197.698C185.236 198.598 184.584 199.008 184.062 198.933C183.609 198.884 183.435 198.505 183.535 197.81C183.708 196.68 184.199 195.146 185 193.191C185.347 192.396 185.85 191.211 186.502 189.628C186.601 189.386 186.614 189.23 186.539 189.181C186.44 189.125 186.285 189.199 186.086 189.404C185.062 190.435 184.112 191.484 183.237 192.552C182.765 193.129 181.772 194.65 180.275 197.133C180.151 197.282 179.953 197.543 179.68 197.915C179.506 198.188 179.319 198.288 179.115 198.213C178.916 198.12 178.891 197.865 179.04 197.468L182.454 188.473C182.554 188.219 182.504 188.094 182.305 188.094C182.181 188.094 181.889 188.219 181.443 188.473C181.318 188.597 181.225 188.622 181.182 188.548C181.157 188.492 181.207 188.411 181.331 188.281C182.082 187.604 182.771 187.231 183.392 187.157C183.715 187.132 183.932 187.207 184.031 187.38C184.106 187.529 184.106 187.741 184.031 188.014C183.479 189.367 182.709 191.353 181.709 193.973C182.436 193.023 183.23 192.036 184.106 191.012C185.155 189.814 186.08 188.877 186.881 188.206C187.408 187.784 187.83 187.635 188.153 187.753C188.451 187.877 188.495 188.206 188.265 188.728L188.259 188.74Z" fill="#EC2227" stroke="#EC2227" stroke-miterlimit="10"/>
<path d="M196.578 188.146C196.578 188.643 196.342 189.096 195.864 189.493C195.088 190.145 194.2 190.418 193.201 190.319C192.803 190.263 192.437 190.17 192.114 190.021C191.661 190.667 191.313 191.232 191.065 191.703C190.339 193.175 189.817 194.491 189.488 195.633C189.364 196.136 189.302 196.558 189.302 196.912C189.302 197.489 189.463 197.824 189.792 197.924C190.171 198.023 190.649 197.849 191.239 197.396C191.822 196.943 192.325 196.372 192.741 195.676C193.151 194.975 193.474 194.187 193.697 193.311C193.772 193.013 193.846 192.858 193.921 192.858C194.02 192.858 194.057 192.995 194.032 193.274C194.008 193.975 193.71 194.814 193.132 195.782C191.959 197.787 190.736 198.687 189.457 198.482C188.483 198.333 187.992 197.626 187.992 196.347C187.992 195.894 188.054 195.422 188.178 194.919C188.551 193.448 189.215 192.094 190.165 190.872C191.99 188.575 193.821 187.439 195.671 187.457C196.273 187.457 196.571 187.681 196.571 188.134L196.578 188.146ZM195.491 188.252C195.491 188.004 195.342 187.873 195.038 187.873C194.61 187.873 194.088 188.109 193.461 188.581C192.934 188.984 192.549 189.369 192.3 189.748C192.623 189.922 192.965 190.015 193.312 190.015C193.84 190.033 194.337 189.847 194.815 189.431C195.286 189.015 195.516 188.624 195.491 188.252Z" fill="#EC2227" stroke="#EC2227" stroke-miterlimit="10"/>
</svg>
