<svg width="233" height="234" viewBox="0 0 233 234" fill="none" xmlns="http://www.w3.org/2000/svg">
<rect width="233" height="233" transform="translate(0 0.5)" fill="#FFF2EE"/>
<path fill-rule="evenodd" clip-rule="evenodd" d="M65.139 113.644C81.8318 116.233 93.2604 131.864 90.6718 148.557C89.7095 154.765 86.9409 160.24 82.9865 164.542L94.4275 175.983H28.3701V109.926L39.7739 121.33C46.3852 115.271 55.5914 112.161 65.139 113.644ZM56.3115 151.202H59.5271L61.3957 148.793L63.0842 151.202H66.902L63.3822 146.248L66.7344 141.884H63.5498L61.8675 144.069L60.3155 141.884H56.5288L59.8686 146.608L56.3115 151.202ZM52.1212 134.962L46.0872 151.307L43.2751 143.429L39.3269 144.807L39.687 146.155L41.3569 145.546L45.0629 155.77H46.2548L53.3131 136.632C60.9549 136.632 68.932 136.539 76.7104 136.539V134.937C74.2086 134.937 52.3757 135.111 52.1274 134.962H52.1212ZM81.3911 166.156C77.4367 169.868 72.5201 172.513 67.1441 173.717H88.9522L81.3911 166.156ZM53.7911 173.717C42.0459 171.11 33.2246 161.947 30.636 150.736V173.717H53.7911ZM30.636 137.023C31.8837 131.572 34.5407 126.761 38.1536 122.925L30.636 115.407V137.029V137.023ZM41.332 122.888L51.277 132.833C50.3768 133.186 50.1285 133.758 49.8181 134.583L39.7242 124.489C15.4082 150.699 53.1952 189.212 79.7832 164.548L69.0189 153.784C69.6273 153.275 70.0556 152.53 70.1922 151.754L81.3787 162.941C86.0221 157.894 88.8529 151.158 88.8529 143.765C88.8529 128.108 76.1641 115.42 60.508 115.42C53.1083 115.42 46.379 118.257 41.332 122.894V122.888Z" fill="#36499E" stroke="#36499E" stroke-width="0.75" stroke-miterlimit="10"/>
<path d="M156.115 116.033C156.115 119.087 155.991 123.669 155.736 129.783C155.481 135.898 155.357 140.498 155.357 143.571V170.029C155.357 170.749 154.966 171.115 154.19 171.115C153.551 171.115 152.576 171.14 151.279 171.196C149.981 171.251 149.007 171.276 148.367 171.276C147.672 171.276 146.629 171.22 145.239 171.115C143.848 171.009 142.805 170.953 142.11 170.953C141.626 170.953 141.048 170.513 140.384 169.631C138.46 167.036 134.12 161.282 127.379 152.367C125.535 149.878 122.723 146.209 118.948 141.367C118.843 141.206 118.638 141.044 118.346 140.883C118.129 141.069 118.024 141.367 118.024 141.764C118.024 144.868 118.11 149.524 118.284 155.738C118.458 161.946 118.545 166.602 118.545 169.706C118.545 170.643 118.185 171.109 117.459 171.109H103.566C102.79 171.109 102.398 170.693 102.398 169.867C102.398 166.974 102.541 162.616 102.821 156.781C103.1 150.946 103.243 146.569 103.243 143.652C103.243 140.572 103.119 135.972 102.864 129.839C102.61 123.712 102.485 119.118 102.485 116.07C102.485 115.48 103.007 115.189 104.05 115.189C105.602 115.189 107.514 115.083 109.792 114.866C110.326 114.81 111.381 114.636 112.964 114.344C114.305 114.102 115.36 113.984 116.136 113.984C116.459 113.984 116.95 114.438 117.62 115.35L132.593 135.867C133.934 137.711 135.952 140.417 138.652 143.974C139.323 144.806 139.894 145.216 140.378 145.216C140.725 145.216 140.899 144.173 140.899 142.087C140.899 139.275 140.744 135.047 140.44 129.405C140.13 123.755 139.981 119.516 139.981 116.679C139.981 115.692 140.26 115.195 140.825 115.195C142.433 115.195 144.854 115.127 148.088 114.996C151.328 114.86 153.749 114.798 155.357 114.798C155.866 114.798 156.121 115.214 156.121 116.039L156.115 116.033Z" stroke="#36499E" stroke-width="4" stroke-miterlimit="10"/>
<path d="M208.8 158.633C208.8 159.781 208.57 161.898 208.117 164.977C207.633 168.323 207.204 170.316 206.832 170.961C206.509 171.47 206.068 171.725 205.503 171.725C205.261 171.725 204.864 171.681 204.299 171.607C202.344 171.34 196.645 171.203 187.197 171.203C185.136 171.203 182.069 171.191 178.003 171.166C173.931 171.141 170.882 171.123 168.853 171.123C167.971 171.123 167.53 170.732 167.53 169.956C167.53 166.957 167.698 162.457 168.033 156.447C168.368 150.438 168.536 145.938 168.536 142.939C168.536 139.941 168.375 134.199 168.058 125.88C167.977 123.738 167.828 120.541 167.617 116.283L167.574 115.718C167.518 115.103 167.853 114.793 168.579 114.793C170.56 114.793 173.539 114.849 177.512 114.954C181.485 115.06 184.465 115.116 186.445 115.116C188.426 115.116 191.343 115.06 195.279 114.954C199.215 114.849 202.157 114.793 204.113 114.793C205.503 114.793 206.31 115.314 206.522 116.357C206.652 116.972 206.863 118.84 207.142 121.957C207.422 125.073 207.564 126.966 207.564 127.637C207.564 128.196 207.298 128.481 206.764 128.481C206.602 128.481 206.323 128.469 205.919 128.444C198.799 127.854 192.405 127.562 186.731 127.562C185.309 127.562 184.44 127.898 184.124 128.568C183.987 128.891 183.925 129.921 183.925 131.66C183.925 133.398 184.192 134.683 184.726 135.273C185.179 135.782 186.054 136.036 187.339 136.036C187.606 136.036 188.128 136.017 188.904 135.974C189.68 135.937 190.325 135.912 190.828 135.912C194.199 135.912 197.613 135.819 201.065 135.633C201.357 135.608 202.095 135.539 203.269 135.434C204.181 135.328 204.901 135.273 205.441 135.273C206.081 135.273 206.404 135.583 206.404 136.198C206.404 135.633 206.162 137.681 205.677 142.337C205.46 144.479 205.354 146.62 205.354 148.762C205.354 149.296 204.963 149.563 204.187 149.563L200.574 149.159C199.047 148.998 195.571 148.917 190.139 148.917H185.881C184.782 148.917 184.142 149.184 183.956 149.718C183.931 149.855 183.919 150.68 183.919 152.207C183.919 154.244 184.055 155.553 184.322 156.143C184.776 157.161 186.489 157.763 189.462 157.95C189.407 157.95 191.362 157.95 195.323 157.95C196.738 157.95 198.849 157.826 201.642 157.565C204.436 157.31 206.534 157.186 207.925 157.186C208.514 157.186 208.806 157.67 208.806 158.633H208.8Z" stroke="#36499E" stroke-width="4" stroke-miterlimit="10"/>
<path d="M52.6548 80.5008C52.6548 83.9647 51.7422 86.7707 49.9295 88.9186C47.9803 91.1968 45.2985 92.3329 41.878 92.3329C41.3069 92.3329 40.444 92.3018 39.2894 92.2335C38.1347 92.1715 37.2718 92.1342 36.7007 92.1342C36.0861 92.1342 35.7757 92.4012 35.7757 92.9288C35.7757 93.5869 35.8378 94.5677 35.9682 95.8713C36.0985 97.175 36.1606 98.1496 36.1606 98.789C36.1606 99.118 36.0116 99.2856 35.7074 99.2856C34.8321 99.2856 33.5223 99.2608 31.7779 99.2111C30.0335 99.1615 28.7236 99.1366 27.8483 99.1366C27.4324 99.1366 27.2276 98.9318 27.2276 98.5159C27.2276 96.9267 27.2524 94.5366 27.3021 91.352C27.3517 88.1674 27.3766 85.7774 27.3766 84.1882C27.3766 79.6938 27.1841 74.9696 26.7992 70.0158L26.7744 69.7178C26.7434 69.4447 26.9606 69.2833 27.42 69.2212C28.5374 69.0784 31.0019 69.0039 34.8073 69.0039C37.0545 69.0039 39.2086 69.0349 41.2696 69.0908C44.6653 69.1901 47.3968 70.2579 49.4702 72.2878C51.587 74.3799 52.6486 77.1113 52.6486 80.4884L52.6548 80.5008ZM44.088 80.8422C44.088 77.5086 42.4615 75.8387 39.2149 75.8387C36.9242 75.8387 35.7199 75.9691 35.6081 76.2236C35.5088 76.4098 35.4591 78.0611 35.4591 81.1836C35.4591 81.6244 35.4778 82.2824 35.515 83.1453C35.5522 84.0144 35.5709 84.6662 35.5709 85.107C35.5709 85.3925 36.8621 85.5353 39.4383 85.5353C42.5485 85.5353 44.1004 83.9647 44.1004 80.8298L44.088 80.8422Z" fill="#36499E"/>
<path d="M78.0265 92.4602C78.0265 93.0748 77.9024 94.2046 77.6602 95.8559C77.4057 97.6438 77.176 98.7115 76.9712 99.0529C76.7974 99.3261 76.5615 99.4627 76.2635 99.4627C76.1331 99.4627 75.9221 99.444 75.6179 99.4006C74.5688 99.2578 71.5207 99.1833 66.4676 99.1833C65.3688 99.1833 63.7237 99.1771 61.551 99.1647C59.3782 99.1523 57.7456 99.1461 56.653 99.1461C56.1812 99.1461 55.9453 98.9412 55.9453 98.5253C55.9453 96.9237 56.0322 94.515 56.2122 91.2994C56.3923 88.0837 56.4792 85.6751 56.4792 84.0735C56.4792 82.4719 56.3923 79.399 56.2247 74.948C56.1812 73.7996 56.1005 72.0924 55.9888 69.8141L55.9701 69.5099C55.9391 69.1809 56.1191 69.0195 56.504 69.0195C57.5656 69.0195 59.1548 69.0506 61.284 69.1064C63.4071 69.1623 65.0025 69.1934 66.0578 69.1934C67.1132 69.1934 68.6775 69.1623 70.782 69.1064C72.8864 69.0506 74.4632 69.0195 75.5061 69.0195C76.2511 69.0195 76.6794 69.2989 76.7974 69.8576C76.8656 70.1866 76.9774 71.1861 77.1326 72.856C77.2816 74.5259 77.3561 75.5377 77.3561 75.8916C77.3561 76.1896 77.2133 76.3448 76.9277 76.3448C76.8408 76.3448 76.6918 76.3385 76.4746 76.3261C72.6692 76.0095 69.2425 75.8543 66.213 75.8543C65.4557 75.8543 64.9901 76.0344 64.8163 76.3944C64.7418 76.5682 64.7107 77.1145 64.7107 78.0457C64.7107 78.9769 64.8535 79.6659 65.1391 79.9763C65.3812 80.2495 65.8468 80.386 66.5358 80.386C66.6786 80.386 66.958 80.3736 67.3739 80.355C67.7898 80.3364 68.1313 80.324 68.4044 80.324C70.2047 80.324 72.036 80.2743 73.8797 80.175C74.0349 80.1626 74.4322 80.1253 75.0592 80.0694C75.5434 80.0136 75.9345 79.9825 76.22 79.9825C76.5615 79.9825 76.7353 80.1501 76.7353 80.4792C76.7353 80.175 76.6049 81.2738 76.3504 83.7631C76.2325 84.9115 76.1766 86.0538 76.1766 87.196C76.1766 87.4816 75.9655 87.6244 75.5558 87.6244L73.6252 87.4071C72.8119 87.3202 70.9496 87.2767 68.0443 87.2767H65.7661C65.1763 87.2767 64.8349 87.4195 64.7356 87.7051C64.7232 87.7796 64.7107 88.2203 64.7107 89.0335C64.7107 90.1199 64.779 90.8214 64.928 91.138C65.1701 91.6843 66.0889 92.0009 67.6781 92.1064C67.647 92.1064 68.6962 92.1064 70.813 92.1064C71.5704 92.1064 72.7002 92.0381 74.1963 91.9015C75.6924 91.765 76.8098 91.6967 77.5547 91.6967C77.8713 91.6967 78.0265 91.9512 78.0265 92.4727V92.4602Z" fill="#36499E"/>
<path d="M106.917 98.924C106.917 99.0234 106.775 99.0979 106.489 99.1413C105.943 99.2282 104.577 99.2717 102.386 99.2717C100.511 99.2717 99.2384 99.2282 98.5617 99.1413C98.2451 99.0979 98.0651 99.0606 98.0278 99.0358C97.9409 98.9923 97.8416 98.8495 97.7237 98.6074C97.5064 98.0487 97.196 97.2169 96.7801 96.1181C96.2214 94.6841 95.3523 92.5734 94.1604 89.7861C93.9059 89.2274 93.3099 88.9232 92.3787 88.8612C92.8071 88.8922 92.0683 88.9046 90.1688 88.9046C89.9515 88.9046 89.8459 89.2709 89.8459 89.9972C89.8459 90.9718 89.9329 92.4245 90.1129 94.3551C90.2929 96.2857 90.3798 97.7383 90.3798 98.713C90.3798 98.9551 90.3177 99.0979 90.1874 99.1413C89.9887 99.1537 89.7839 99.1723 89.5852 99.1848C88.741 99.2406 87.4249 99.2717 85.6308 99.2717C83.5823 99.2717 82.3531 99.2282 81.9372 99.1413C81.5213 99.0544 81.3164 98.8309 81.3164 98.4771C81.3164 96.9003 81.3909 94.5289 81.5399 91.3505C81.6889 88.1721 81.7634 85.7883 81.7634 84.1991C81.7634 78.1403 81.6268 73.4223 81.3537 70.0267L81.335 69.7287C81.3226 69.4866 81.5461 69.319 82.0117 69.2321C82.4773 69.1451 84.6624 69.0582 88.5733 68.9775C91.2241 68.9217 93.3347 68.8906 94.9053 68.8906C98.1706 68.8906 100.834 69.6294 102.895 71.1006C105.229 72.7643 106.396 75.1605 106.396 78.2955C106.396 80.3875 106.092 82.0512 105.496 83.299C104.894 84.5467 103.782 85.7511 102.168 86.9305C101.839 87.1602 101.672 87.3713 101.672 87.5761C101.672 87.5637 102.547 89.3578 104.292 92.9645C106.036 96.5713 106.911 98.564 106.911 98.9364L106.917 98.924ZM97.8975 79.6612C97.8975 77.9168 97.3264 76.7063 96.1779 76.0296C95.2902 75.5144 93.9059 75.2536 92.0125 75.2536C90.653 75.2536 89.9267 75.4585 89.8459 75.8744C89.759 76.3586 89.7156 77.7616 89.7156 80.0833C89.7156 80.4123 89.7218 80.8965 89.7404 81.5422C89.7528 82.1878 89.7652 82.6658 89.7652 82.9824C89.7652 83.0569 89.9949 83.1251 90.4481 83.1996C91.3234 83.33 92.236 83.3921 93.1982 83.3921C96.3331 83.3921 97.9037 82.1443 97.9037 79.655L97.8975 79.6612Z" fill="#36499E"/>
<path d="M156.928 92.4602C156.928 93.0748 156.804 94.2046 156.562 95.8559C156.301 97.6438 156.071 98.7115 155.873 99.0529C155.699 99.3261 155.463 99.4627 155.165 99.4627C155.034 99.4627 154.823 99.444 154.519 99.4006C153.47 99.2578 150.422 99.1833 145.369 99.1833C144.264 99.1833 142.625 99.1771 140.452 99.1647C138.28 99.1523 136.647 99.1461 135.554 99.1461C135.083 99.1461 134.847 98.9412 134.847 98.5253C134.847 96.9237 134.934 94.515 135.114 91.2994C135.294 88.0837 135.381 85.6751 135.381 84.0735C135.381 82.4719 135.294 79.399 135.126 74.948C135.083 73.7996 135.002 72.0924 134.89 69.8141L134.872 69.5099C134.84 69.1809 135.021 69.0195 135.412 69.0195C136.467 69.0195 138.062 69.0506 140.192 69.1064C142.321 69.1623 143.91 69.1934 144.972 69.1934C146.033 69.1934 147.591 69.1623 149.696 69.1064C151.8 69.0506 153.377 69.0195 154.42 69.0195C155.165 69.0195 155.593 69.2989 155.711 69.8576C155.779 70.1866 155.891 71.1861 156.04 72.856C156.189 74.5259 156.264 75.5377 156.264 75.8916C156.264 76.1896 156.121 76.3448 155.835 76.3448C155.748 76.3448 155.599 76.3385 155.382 76.3261C151.571 76.0095 148.15 75.8543 145.121 75.8543C144.363 75.8543 143.898 76.0344 143.724 76.3944C143.656 76.5682 143.618 77.1145 143.618 78.0457C143.618 78.9769 143.761 79.6659 144.047 79.9763C144.289 80.2495 144.754 80.386 145.443 80.386C145.586 80.386 145.866 80.3736 146.281 80.355C146.697 80.3364 147.039 80.324 147.312 80.324C149.112 80.324 150.937 80.2743 152.787 80.175C152.942 80.1626 153.34 80.1253 153.967 80.0694C154.451 80.0136 154.842 79.9825 155.128 79.9825C155.469 79.9825 155.643 80.1501 155.643 80.4792C155.643 80.175 155.513 81.2738 155.258 83.7631C155.14 84.9115 155.084 86.0538 155.084 87.196C155.084 87.4816 154.879 87.6244 154.463 87.6244L152.533 87.4071C151.72 87.3202 149.857 87.2767 146.952 87.2767H144.674C144.084 87.2767 143.742 87.4195 143.643 87.7051C143.631 87.7796 143.625 88.2203 143.625 89.0335C143.625 90.1199 143.693 90.8214 143.836 91.138C144.078 91.6843 144.996 92.0009 146.586 92.1064C146.555 92.1064 147.604 92.1064 149.721 92.1064C150.478 92.1064 151.608 92.0381 153.104 91.9015C154.6 91.765 155.717 91.6967 156.462 91.6967C156.779 91.6967 156.934 91.9512 156.934 92.4727L156.928 92.4602Z" fill="#36499E"/>
<path d="M185.304 94.2867C185.304 94.5164 185.155 94.8144 184.851 95.1868C182.219 98.3218 178.717 99.8924 174.353 99.8924C169.989 99.8924 166.264 98.3652 163.49 95.3172C160.783 92.3685 159.43 88.6438 159.43 84.1493C159.43 79.6549 160.752 76.104 163.403 73.0684C166.165 69.89 169.679 68.3008 173.944 68.3008C178.581 68.3008 182.219 69.7224 184.851 72.5718C185.136 72.8884 185.279 73.1677 185.279 73.4098C185.279 73.683 184.782 74.6886 183.789 76.4392C182.796 78.1836 182.169 79.1645 181.908 79.3817C181.796 79.4935 181.647 79.5555 181.48 79.5555C181.405 79.5555 181.052 79.27 180.406 78.6989C179.63 78.0098 178.873 77.4759 178.128 77.091C176.998 76.5199 175.825 76.2344 174.608 76.2344C172.503 76.2344 170.821 77.0228 169.561 78.5995C168.4 80.0584 167.823 81.8649 167.823 84.0128C167.823 86.1607 168.4 88.0168 169.561 89.4881C170.821 91.0897 172.503 91.8905 174.608 91.8905C175.856 91.8905 177.035 91.6173 178.152 91.0773C178.885 90.7172 179.624 90.2206 180.387 89.575C181.02 89.0287 181.368 88.7617 181.443 88.7617C181.585 88.7617 181.728 88.8424 181.871 88.9976C182.101 89.2522 182.721 90.1523 183.739 91.6794C184.782 93.2686 185.304 94.1439 185.304 94.2991V94.2867Z" fill="#36499E"/>
<path d="M208.98 75.5809C208.98 75.8665 208.825 76.0092 208.508 76.0092C207.962 76.0092 205.808 75.9037 202.046 75.6864C201.959 79.3056 201.916 81.8322 201.916 83.2662C201.916 84.9547 201.984 87.4937 202.12 90.8894C202.257 94.285 202.325 96.824 202.325 98.5126C202.325 98.7857 202.263 98.9533 202.133 99.0278C202.089 99.0589 201.891 99.0899 201.531 99.1333C200.674 99.2451 199.414 99.3072 197.75 99.3072C195.9 99.3072 194.609 99.2513 193.864 99.1333C193.461 99.0651 193.262 98.8416 193.262 98.4691C193.262 96.7806 193.33 94.2478 193.479 90.8645C193.622 87.4875 193.696 84.9547 193.696 83.2662C193.696 82.1488 193.641 79.6594 193.523 75.792C190.661 76.0775 188.376 76.2203 186.675 76.2203C186.446 76.2203 186.334 76.152 186.334 76.003C186.334 75.8168 186.433 75.2643 186.632 74.3517C186.862 73.3523 186.992 72.7439 187.017 72.5267C187.06 71.8562 187.11 71.1796 187.166 70.5091C187.265 69.4352 187.439 68.9013 187.681 68.9013C187.712 68.9013 187.811 68.9075 187.979 68.9199C190.301 69.2179 193.727 69.3731 198.265 69.3731C199.55 69.3731 201.928 69.2365 205.392 68.9634C207.254 68.8206 208.192 68.7461 208.204 68.7461C208.49 68.7461 208.657 68.7647 208.701 68.802C208.744 68.8392 208.769 68.9758 208.788 69.2179C208.788 69.6028 208.775 70.1429 208.744 70.8257C208.713 71.5831 208.701 72.1231 208.701 72.4335C208.701 72.7936 208.75 73.315 208.837 74.0103C208.93 74.7056 208.98 75.2208 208.98 75.5685V75.5809Z" fill="#36499E"/>
<path d="M118.992 72.8772C116.08 72.8772 85.7922 72.9269 83.2036 72.84C82.5766 72.8214 81.1177 73.4545 81.4964 71.9957C81.7696 70.9404 80.9563 68.9104 83.3153 68.9725C84.5134 69.0035 113.429 69.0594 114.603 68.8546C117.992 68.2586 120.382 66.3466 122.002 63.2737C124.877 57.8046 127.13 51.9445 131.618 47.4624C135.542 43.5391 139.887 40.3731 145.791 40.6276C148.826 40.758 151.235 42.1858 152.65 44.9731C153.892 47.4252 152.979 50.3056 150.664 51.392C149.093 52.1307 147.579 51.8886 146.325 50.7215C145.151 49.6352 145.189 48.3253 145.834 46.9037C146.25 45.9912 147.417 45.091 146.231 43.955C145.22 42.9804 143.916 43.2287 142.817 43.5018C139.986 44.2033 138.037 46.1712 136.491 48.5364C132.438 54.738 130.954 61.9515 128.105 69.0284H135.647C135.802 72.1944 134.437 73.1317 131.513 72.9455C127.347 72.6848 127.378 72.8896 126.155 77.0365C122.319 90.0667 119.432 103.395 114.087 115.953C111.536 121.938 108.538 127.68 103.776 132.267C100.176 135.738 96.0227 138.128 90.8205 137.997C87.2697 137.91 84.3023 135.173 84.3706 132.125C84.4141 130.225 85.2025 128.797 86.9779 127.903C88.7037 127.034 90.1749 127.245 91.4165 128.673C92.596 130.033 92.2483 131.373 91.2427 132.702C90.8392 133.23 89.8832 133.621 90.4108 134.527C90.9137 135.396 91.8386 135.303 92.6581 135.216C96.1344 134.831 98.8783 133.118 100.989 130.374C103.46 127.158 104.732 123.384 105.831 119.554C110.034 104.891 114.205 90.2281 118.383 75.559C118.607 74.7644 118.762 73.9512 119.01 72.8834L118.992 72.8772Z" fill="#36499E"/>
</svg>
