<svg width="36" height="37" viewBox="0 0 36 37" fill="none" xmlns="http://www.w3.org/2000/svg">
<g clip-path="url(#clip0_1165_4727)">
<path d="M16.5 29V20H7.5C6.67157 20 6 19.3284 6 18.5C6 17.6716 6.67157 17 7.5 17H16.5V8C16.5 7.17157 17.1716 6.5 18 6.5C18.8284 6.5 19.5 7.17157 19.5 8V17H28.5C29.3284 17 30 17.6716 30 18.5C30 19.3284 29.3284 20 28.5 20H19.5V29C19.5 29.8284 18.8284 30.5 18 30.5C17.1716 30.5 16.5 29.8284 16.5 29Z" fill="black"/>
</g>
<defs>
<clipPath id="clip0_1165_4727">
<rect width="36" height="36" fill="white" transform="translate(0 0.5)"/>
</clipPath>
</defs>
</svg>
