<svg width="36" height="36" viewBox="0 0 36 36" fill="none" xmlns="http://www.w3.org/2000/svg">
<g clip-path="url(#clip0_1087_13799)">
<path d="M15 6L18 7.5L21 6" stroke="#727967" stroke-width="2" stroke-linecap="round" stroke-linejoin="round"/>
<path d="M18 3V12.75L22.5 15.33" stroke="#727967" stroke-width="2" stroke-linecap="round" stroke-linejoin="round"/>
<path d="M26.8916 9.39844L27.0926 12.7464L29.8916 14.5944" stroke="#727967" stroke-width="2" stroke-linecap="round" stroke-linejoin="round"/>
<path d="M30.9904 10.5L22.5469 15.375L22.5619 20.562" stroke="#727967" stroke-width="2" stroke-linecap="round" stroke-linejoin="round"/>
<path d="M29.8916 21.3984L27.0926 23.2464L26.8916 26.5944" stroke="#727967" stroke-width="2" stroke-linecap="round" stroke-linejoin="round"/>
<path d="M30.99 25.5L22.5465 20.625L18.0615 23.232" stroke="#727967" stroke-width="2" stroke-linecap="round" stroke-linejoin="round"/>
<path d="M21 30L18 28.5L15 30" stroke="#727967" stroke-width="2" stroke-linecap="round" stroke-linejoin="round"/>
<path d="M18 33.0019V23.2519L13.5 20.6719" stroke="#727967" stroke-width="2" stroke-linecap="round" stroke-linejoin="round"/>
<path d="M9.1084 26.5944L8.9074 23.2464L6.1084 21.3984" stroke="#727967" stroke-width="2" stroke-linecap="round" stroke-linejoin="round"/>
<path d="M5.00977 25.4995L13.4533 20.6245L13.4383 15.4375" stroke="#727967" stroke-width="2" stroke-linecap="round" stroke-linejoin="round"/>
<path d="M6.1084 14.5944L8.9074 12.7464L9.1084 9.39844" stroke="#727967" stroke-width="2" stroke-linecap="round" stroke-linejoin="round"/>
<path d="M5.00977 10.5L13.4533 15.375L17.9383 12.768" stroke="#727967" stroke-width="2" stroke-linecap="round" stroke-linejoin="round"/>
</g>
<defs>
<clipPath id="clip0_1087_13799">
<rect width="36" height="36" fill="white"/>
</clipPath>
</defs>
</svg>
