<svg width="84" height="86" viewBox="0 0 84 86" fill="none" xmlns="http://www.w3.org/2000/svg">
<path d="M81.6645 30.5625H2.48398C1.6579 30.5625 0.989258 31.2311 0.989258 32.0572V40.3291C0.989258 40.7277 1.14869 41.1114 1.43269 41.3914C1.71669 41.6724 2.11329 41.8189 2.49993 41.8239L31.1887 41.5219V51.2915L1.39582 82.9381C0.987265 83.3726 0.875658 84.0084 1.11182 84.5554C1.34799 85.1035 1.88709 85.4573 2.48398 85.4573H12.3731C12.6919 85.4573 13.0028 85.3546 13.2599 85.1653L40.2058 65.2922H55.7948V83.9625C55.7948 84.7876 56.4644 85.4573 57.2895 85.4573H68.2747C69.0998 85.4573 69.7695 84.7876 69.7695 83.9625V55.4021C69.7695 54.577 69.0998 53.9073 68.2747 53.9073H53.0734V41.8239H81.6645C82.4896 41.8239 83.1592 41.1552 83.1592 40.3291V32.0572C83.1592 31.2311 82.4906 30.5625 81.6645 30.5625ZM80.1698 38.8344H51.5787C50.7536 38.8344 50.084 39.503 50.084 40.3291V55.4021C50.084 56.2272 50.7536 56.8968 51.5787 56.8968H66.78V82.4678H58.7842V63.7975C58.7842 62.9724 58.1146 62.3028 57.2895 62.3028H39.7146C39.3957 62.3028 39.0848 62.4054 38.8277 62.5947L11.8818 82.4678H5.94476L33.7705 52.9078C34.0316 52.6308 34.1771 52.2641 34.1771 51.8834V40.0112C34.1771 39.6126 34.0177 39.229 33.7337 38.949C33.4497 38.668 33.0152 38.5185 32.6664 38.5165L3.97771 38.8184V33.552H80.1688V38.8344H80.1698Z" fill="black"/>
<path d="M42.0756 22.126C47.9867 22.126 52.7948 17.317 52.7948 11.4068C52.7948 5.49657 47.9867 0.6875 42.0756 0.6875C36.1655 0.6875 31.3564 5.49657 31.3564 11.4068C31.3564 17.317 36.1655 22.126 42.0756 22.126ZM42.0756 3.67698C46.3376 3.67698 49.8053 7.14377 49.8053 11.4068C49.8053 15.6698 46.3386 19.1366 42.0756 19.1366C37.8127 19.1366 34.3459 15.6698 34.3459 11.4068C34.3459 7.14377 37.8137 3.67698 42.0756 3.67698Z" fill="black"/>
</svg>
