<svg xmlns="http://www.w3.org/2000/svg" xmlns:xlink="http://www.w3.org/1999/xlink" xmlns:inkscape="http://www.inkscape.org/namespaces/inkscape" version="1.1" width="113.386" height="113.386" viewBox="0 0 113.386 113.386">
<defs>
<clipPath id="clip_0">
<path transform="matrix(1,0,0,-1,0,113.386)" d="M0 0H113.386V113.386H0Z"/>
</clipPath>
</defs>
<path transform="matrix(1,0,0,-1,71.6633,20.551499)" stroke-width="3" stroke-linecap="round" stroke-miterlimit="4" stroke-linejoin="miter" fill="none" stroke="#231f20" d="M0 0H-29.941L-51.112-21.171V-51.112L-29.941-72.283H0L21.171-51.112V-21.171L0 0Z"/>
<path transform="matrix(1,0,0,-1,51.0897,27.772706)" stroke-width="3" stroke-linecap="round" stroke-miterlimit="4" stroke-linejoin="miter" fill="none" stroke="#231f20" d="M0 0H11.083"/>
<path transform="matrix(1,0,0,-1,32.2813,40.205606)" stroke-width="3" stroke-linecap="round" stroke-miterlimit="4" stroke-linejoin="miter" fill="none" stroke="#231f20" d="M0 0 7.837 7.837"/>
<path transform="matrix(1,0,0,-1,27.7725,62.296304)" stroke-width="3" stroke-linecap="round" stroke-miterlimit="4" stroke-linejoin="miter" fill="none" stroke="#231f20" d="M0 0V11.083"/>
<path transform="matrix(1,0,0,-1,40.2056,81.104709)" stroke-width="3" stroke-linecap="round" stroke-miterlimit="4" stroke-linejoin="miter" fill="none" stroke="#231f20" d="M0 0-7.837 7.837"/>
<path transform="matrix(1,0,0,-1,62.2962,85.6131)" stroke-width="3" stroke-linecap="round" stroke-miterlimit="4" stroke-linejoin="miter" fill="none" stroke="#231f20" d="M0 0H-11.083"/>
<path transform="matrix(1,0,0,-1,81.1047,73.180408)" stroke-width="3" stroke-linecap="round" stroke-miterlimit="4" stroke-linejoin="miter" fill="none" stroke="#231f20" d="M0 0-7.837-7.837"/>
<path transform="matrix(1,0,0,-1,85.6128,51.0898)" stroke-width="3" stroke-linecap="round" stroke-miterlimit="4" stroke-linejoin="miter" fill="none" stroke="#231f20" d="M0 0V-11.083"/>
<path transform="matrix(1,0,0,-1,73.1804,32.281305)" stroke-width="3" stroke-linecap="round" stroke-miterlimit="4" stroke-linejoin="miter" fill="none" stroke="#231f20" d="M0 0 7.837-7.837"/>
<g clip-path="url(#clip_0)">
<path transform="matrix(1,0,0,-1,56.6929,77.7898)" stroke-width="3" stroke-linecap="round" stroke-miterlimit="4" stroke-linejoin="miter" fill="none" stroke="#231f20" d="M0 0C11.652 0 21.097 9.445 21.097 21.097 21.097 32.749 11.652 42.194 0 42.194-11.652 42.194-21.097 32.749-21.097 21.097-21.097 9.445-11.652 0 0 0Z"/>
<path transform="matrix(1,0,0,-1,56.6929,56.6931)" stroke-width="2.967" stroke-linecap="round" stroke-miterlimit="4" stroke-linejoin="miter" fill="none" stroke="#231f20" d="M0 0C-5.813 0-10.526-4.712-10.526-10.525-10.526-16.338-5.813-21.051 0-21.051"/>
<path transform="matrix(1,0,0,-1,56.6929,56.6926)" stroke-width="2.967" stroke-linecap="round" stroke-miterlimit="4" stroke-linejoin="miter" fill="none" stroke="#231f20" d="M0 0C5.813 0 10.526 4.712 10.526 10.525 10.526 16.338 5.813 21.051 0 21.051"/>
<path transform="matrix(1,0,0,-1,56.6929,48.579805)" d="M0 0C1.332 0 2.412 1.08 2.412 2.412 2.412 3.744 1.332 4.824 0 4.824-1.332 4.824-2.412 3.744-2.412 2.412-2.412 1.08-1.332 0 0 0" fill="#231f20"/>
<path transform="matrix(1,0,0,-1,56.6929,69.6306)" d="M0 0C1.332 0 2.412 1.08 2.412 2.412 2.412 3.744 1.332 4.824 0 4.824-1.332 4.824-2.412 3.744-2.412 2.412-2.412 1.08-1.332 0 0 0" fill="#231f20"/>
</g>
</svg>
