<svg width="36" height="36" viewBox="0 0 36 36" fill="none" xmlns="http://www.w3.org/2000/svg">
<g clip-path="url(#clip0_805_35227)">
<path d="M17.9902 1.50391C18.561 1.50409 19.0823 1.82847 19.3349 2.34033L23.6137 11.0122L33.1836 12.3994C33.7489 12.4813 34.2186 12.8771 34.395 13.4204C34.5713 13.9636 34.4248 14.5601 34.0156 14.9585L27.081 21.7085L28.7158 31.2402C28.8122 31.8031 28.5803 32.3726 28.1181 32.708C27.6559 33.0433 27.0428 33.087 26.5376 32.8208L17.9975 28.3208L9.43992 32.8208C8.93456 33.0864 8.3227 33.0421 7.86081 32.7065C7.39903 32.371 7.16686 31.8028 7.26316 31.2402L8.89792 21.7085L1.96482 14.9585C1.55555 14.5601 1.40767 13.9637 1.58396 13.4204C1.76037 12.8772 2.23015 12.4814 2.79538 12.3994L12.3637 11.0122L16.644 2.34033C16.8967 1.82832 17.4192 1.50391 17.9902 1.50391ZM14.706 13.0469C14.4874 13.4898 14.064 13.7963 13.5752 13.8672L6.2363 14.9307L11.5566 20.1089C11.9107 20.4535 12.0723 20.9505 11.9887 21.4375L10.7334 28.75L17.3017 25.2988L17.4702 25.2227C17.8691 25.0719 18.3168 25.0974 18.6992 25.2988L25.2426 28.7471L23.9902 21.4375C23.9067 20.9505 24.0683 20.4535 24.4223 20.1089L29.7412 14.9307L22.4038 13.8672C21.915 13.7963 21.4915 13.4898 21.2729 13.0469L17.9887 6.39355L14.706 13.0469Z" fill="#A76E5A"/>
</g>
<defs>
<clipPath id="clip0_805_35227">
<rect width="36" height="36" fill="white"/>
</clipPath>
</defs>
</svg>
