<svg width="24" height="25" viewBox="0 0 24 25" fill="none" xmlns="http://www.w3.org/2000/svg">
<g clip-path="url(#clip0_1165_1757)">
<path d="M8.24325 7.84188L1.86325 8.76688L1.75025 8.78988C1.57919 8.83529 1.42325 8.92528 1.29835 9.05068C1.17344 9.17607 1.08406 9.33236 1.03932 9.5036C0.994575 9.67484 0.996081 9.85488 1.04368 10.0253C1.09128 10.1958 1.18327 10.3506 1.31025 10.4739L5.93225 14.9729L4.84225 21.3279L4.82925 21.4379C4.81878 21.6148 4.85552 21.7913 4.9357 21.9494C5.01589 22.1074 5.13664 22.2413 5.28559 22.3374C5.43454 22.4334 5.60634 22.4882 5.7834 22.496C5.96046 22.5038 6.13642 22.4644 6.29325 22.3819L11.9993 19.3819L17.6923 22.3819L17.7923 22.4279C17.9573 22.4929 18.1367 22.5128 18.312 22.4856C18.4873 22.4584 18.6522 22.3851 18.7898 22.2731C18.9275 22.1612 19.0328 22.0146 19.0951 21.8485C19.1574 21.6824 19.1743 21.5027 19.1443 21.3279L18.0533 14.9729L22.6773 10.4729L22.7553 10.3879C22.8667 10.2506 22.9397 10.0863 22.967 9.91167C22.9942 9.73701 22.9747 9.55825 22.9103 9.39361C22.846 9.22896 22.7392 9.08431 22.6007 8.97439C22.4623 8.86447 22.2972 8.79321 22.1223 8.76788L15.7423 7.84188L12.8903 2.06188C12.8077 1.89441 12.68 1.75339 12.5214 1.65478C12.3629 1.55617 12.1799 1.50391 11.9933 1.50391C11.8066 1.50391 11.6236 1.55617 11.4651 1.65478C11.3065 1.75339 11.1788 1.89441 11.0963 2.06188L8.24325 7.84188Z" fill="#A76E5A"/>
</g>
<defs>
<clipPath id="clip0_1165_1757">
<rect width="24" height="24" fill="white" transform="translate(0 0.5)"/>
</clipPath>
</defs>
</svg>
