<svg width="37" height="37" viewBox="0 0 37 37" fill="none" xmlns="http://www.w3.org/2000/svg">
<g clip-path="url(#clip0_1165_5488)">
<path d="M31.4567 5.10209C31.9792 4.89886 32.5712 5.0038 32.9918 5.37455C33.4123 5.74522 33.5905 6.319 33.4547 6.86283L27.4547 30.8628C27.3236 31.3871 26.9208 31.8011 26.4 31.9453C25.8794 32.0894 25.3216 31.9421 24.9396 31.5601L18.6613 25.2818L15.1998 29.899C14.8651 30.3453 14.3106 30.5698 13.7599 30.4805C13.2093 30.3912 12.7543 30.0032 12.5778 29.4742L9.77405 21.063L4.32923 18.3413C3.79877 18.0761 3.47437 17.5231 3.50159 16.9307C3.5291 16.338 3.90371 15.8171 4.45667 15.6021L31.4567 5.10209ZM8.69592 17.1695L11.671 18.6578L11.7999 18.731C12.0918 18.915 12.3123 19.1948 12.4225 19.5249L14.5172 25.8091L16.5197 23.1402L15.9396 22.5601C15.3538 21.9743 15.3538 21.0248 15.9396 20.439L21.9396 14.439C22.5254 13.8532 23.4749 13.8532 24.0607 14.439C24.6465 15.0248 24.6465 15.9743 24.0607 16.5601L19.1212 21.4995L25.1871 27.5655L29.8424 8.9473L8.69592 17.1695Z" fill="#727967"/>
</g>
<defs>
<clipPath id="clip0_1165_5488">
<rect width="36" height="36" fill="white" transform="translate(0.5 0.5)"/>
</clipPath>
</defs>
</svg>
