<svg xmlns="http://www.w3.org/2000/svg" xmlns:xlink="http://www.w3.org/1999/xlink" xmlns:inkscape="http://www.inkscape.org/namespaces/inkscape" version="1.1" width="113.386" height="113.386" viewBox="0 0 113.386 113.386">
<path transform="matrix(1,0,0,-1,56.6929,27.9216)" stroke-width="3" stroke-linecap="round" stroke-linejoin="round" fill="none" stroke="#231f20" d="M0 0V-57.543"/>
<path transform="matrix(1,0,0,-1,48.3898,34.9216)" stroke-width="3" stroke-linecap="round" stroke-linejoin="round" fill="none" stroke="#231f20" d="M0 0V-43.543"/>
<path transform="matrix(1,0,0,-1,64.9961,34.9216)" stroke-width="3" stroke-linecap="round" stroke-linejoin="round" fill="none" stroke="#231f20" d="M0 0V-43.543"/>
<path transform="matrix(1,0,0,-1,40.0866,40.9216)" stroke-width="3" stroke-linecap="round" stroke-linejoin="round" fill="none" stroke="#231f20" d="M0 0V-31.543"/>
<path transform="matrix(1,0,0,-1,73.2992,40.9216)" stroke-width="3" stroke-linecap="round" stroke-linejoin="round" fill="none" stroke="#231f20" d="M0 0V-31.543"/>
<path transform="matrix(1,0,0,-1,31.7835,45.9216)" stroke-width="3" stroke-linecap="round" stroke-linejoin="round" fill="none" stroke="#231f20" d="M0 0V-21.543"/>
<path transform="matrix(1,0,0,-1,81.6024,45.9216)" stroke-width="3" stroke-linecap="round" stroke-linejoin="round" fill="none" stroke="#231f20" d="M0 0V-21.543"/>
<path transform="matrix(1,0,0,-1,23.4803,49.9216)" stroke-width="3" stroke-linecap="round" stroke-linejoin="round" fill="none" stroke="#231f20" d="M0 0V-13.543"/>
<path transform="matrix(1,0,0,-1,89.9055,49.9216)" stroke-width="3" stroke-linecap="round" stroke-linejoin="round" fill="none" stroke="#231f20" d="M0 0V-13.543"/>
<path transform="matrix(1,0,0,-1,15.1772,52.9216)" stroke-width="3" stroke-linecap="round" stroke-linejoin="round" fill="none" stroke="#231f20" d="M0 0V-7.543"/>
<path transform="matrix(1,0,0,-1,98.2087,52.9216)" stroke-width="3" stroke-linecap="round" stroke-linejoin="round" fill="none" stroke="#231f20" d="M0 0V-7.543"/>
</svg>
